<?xml version="1.0" encoding="UTF-8" standalone="no"?><svg xmlns="http://www.w3.org/2000/svg" xmlns:xlink="http://www.w3.org/1999/xlink" contentScriptType="application/ecmascript" contentStyleType="text/css" height="625px" preserveAspectRatio="none" style="width:599px;height:625px;" version="1.1" viewBox="0 0 599 625" width="599px" zoomAndPan="magnify"><defs><filter height="300%" id="f12nsqorfymika" width="300%" x="-1" y="-1"><feGaussianBlur result="blurOut" stdDeviation="2.0"/><feColorMatrix in="blurOut" result="blurOut2" type="matrix" values="0 0 0 0 0 0 0 0 0 0 0 0 0 0 0 0 0 0 .4 0"/><feOffset dx="4.0" dy="4.0" in="blurOut2" result="blurOut3"/><feBlend in="SourceGraphic" in2="blurOut3" mode="normal"/></filter></defs><g><ellipse cx="88" cy="50.0957" fill="#000000" filter="url(#f12nsqorfymika)" rx="10" ry="10" style="stroke: none; stroke-width: 1.0;"/><rect fill="#FEFECE" filter="url(#f12nsqorfymika)" height="35.0938" rx="12.5" ry="12.5" style="stroke: #A80036; stroke-width: 1.5;" width="109" x="33.5" y="80.0957"/><text fill="#000000" font-family="sans-serif" font-size="12" lengthAdjust="spacingAndGlyphs" textLength="89" x="43.5" y="102.5527">modify laTeX file</text><rect fill="#FEFECE" filter="url(#f12nsqorfymika)" height="35.0938" rx="12.5" ry="12.5" style="stroke: #A80036; stroke-width: 1.5;" width="112" x="32" y="135.1895"/><text fill="#000000" font-family="sans-serif" font-size="12" lengthAdjust="spacingAndGlyphs" textLength="92" x="42" y="157.6465">commit changes</text><rect fill="#FEFECE" filter="url(#f12nsqorfymika)" height="35.0938" rx="12.5" ry="12.5" style="stroke: #A80036; stroke-width: 1.5;" width="87" x="44.5" y="190.2832"/><text fill="#000000" font-family="sans-serif" font-size="12" lengthAdjust="spacingAndGlyphs" textLength="18" x="54.5" y="212.7402">run</text><text fill="#000000" font-family="sans-serif" font-size="12" font-style="italic" lengthAdjust="spacingAndGlyphs" textLength="46" x="75.5" y="212.7402">Makefile</text><rect fill="#FEFECE" filter="url(#f12nsqorfymika)" height="35.0938" rx="12.5" ry="12.5" style="stroke: #A80036; stroke-width: 1.5;" width="136" x="20" y="245.377"/><text fill="#000000" font-family="sans-serif" font-size="12" lengthAdjust="spacingAndGlyphs" textLength="116" x="30" y="267.834">commit updated PDF</text><rect fill="#FEFECE" filter="url(#f12nsqorfymika)" height="35.0938" rx="12.5" ry="12.5" style="stroke: #A80036; stroke-width: 1.5;" width="99" x="38.5" y="300.4707"/><text fill="#000000" font-family="sans-serif" font-size="12" lengthAdjust="spacingAndGlyphs" textLength="79" x="48.5" y="322.9277">push changes</text><rect fill="#FEFECE" filter="url(#f12nsqorfymika)" height="50.1875" rx="12.5" ry="12.5" style="stroke: #A80036; stroke-width: 1.5;" width="188" x="166" y="355.5645"/><text fill="#000000" font-family="sans-serif" font-size="12" lengthAdjust="spacingAndGlyphs" textLength="138" x="176" y="378.0215">generate static web page</text><text fill="#000000" font-family="sans-serif" font-size="12" lengthAdjust="spacingAndGlyphs" textLength="168" x="176" y="393.1152">treating CV (PDF) as an artifact</text><rect fill="#FEFECE" filter="url(#f12nsqorfymika)" height="35.0938" rx="12.5" ry="12.5" style="stroke: #A80036; stroke-width: 1.5;" width="147" x="186.5" y="425.752"/><text fill="#000000" font-family="sans-serif" font-size="12" lengthAdjust="spacingAndGlyphs" textLength="127" x="196.5" y="448.209">upload static web page</text><rect fill="#FEFECE" filter="url(#f12nsqorfymika)" height="35.0938" rx="12.5" ry="12.5" style="stroke: #A80036; stroke-width: 1.5;" width="117" x="364" y="480.8457"/><text fill="#000000" font-family="sans-serif" font-size="12" lengthAdjust="spacingAndGlyphs" textLength="97" x="374" y="503.3027">provide web page</text><rect fill="#FEFECE" filter="url(#f12nsqorfymika)" height="35.0938" rx="12.5" ry="12.5" style="stroke: #A80036; stroke-width: 1.5;" width="87" x="491" y="535.9395"/><text fill="#000000" font-family="sans-serif" font-size="12" lengthAdjust="spacingAndGlyphs" textLength="67" x="501" y="558.3965">enjoy my CV</text><ellipse cx="534.5" cy="602.0332" fill="#FFFFFF" filter="url(#f12nsqorfymika)" rx="11" ry="11" style="stroke: #000000; stroke-width: 1.0;"/><ellipse cx="534.5" cy="602.0332" fill="#000000" rx="6" ry="6" style="stroke: #7F7F7F; stroke-width: 1.0;"/><line style="stroke: #A80036; stroke-width: 1.5;" x1="88" x2="88" y1="60.0957" y2="80.0957"/><polygon fill="#A80036" points="84,70.0957,88,80.0957,92,70.0957,88,74.0957" style="stroke: #A80036; stroke-width: 1.0;"/><line style="stroke: #A80036; stroke-width: 1.5;" x1="88" x2="88" y1="115.1895" y2="135.1895"/><polygon fill="#A80036" points="84,125.1895,88,135.1895,92,125.1895,88,129.1895" style="stroke: #A80036; stroke-width: 1.0;"/><line style="stroke: #A80036; stroke-width: 1.5;" x1="88" x2="88" y1="170.2832" y2="190.2832"/><polygon fill="#A80036" points="84,180.2832,88,190.2832,92,180.2832,88,184.2832" style="stroke: #A80036; stroke-width: 1.0;"/><line style="stroke: #A80036; stroke-width: 1.5;" x1="88" x2="88" y1="225.377" y2="245.377"/><polygon fill="#A80036" points="84,235.377,88,245.377,92,235.377,88,239.377" style="stroke: #A80036; stroke-width: 1.0;"/><line style="stroke: #A80036; stroke-width: 1.5;" x1="88" x2="88" y1="280.4707" y2="300.4707"/><polygon fill="#A80036" points="84,290.4707,88,300.4707,92,290.4707,88,294.4707" style="stroke: #A80036; stroke-width: 1.0;"/><line style="stroke: #A80036; stroke-width: 1.5;" x1="260" x2="260" y1="405.752" y2="425.752"/><polygon fill="#A80036" points="256,415.752,260,425.752,264,415.752,260,419.752" style="stroke: #A80036; stroke-width: 1.0;"/><line style="stroke: #A80036; stroke-width: 1.5;" x1="534.5" x2="534.5" y1="571.0332" y2="591.0332"/><polygon fill="#A80036" points="530.5,581.0332,534.5,591.0332,538.5,581.0332,534.5,585.0332" style="stroke: #A80036; stroke-width: 1.0;"/><line style="stroke: #A80036; stroke-width: 1.5;" x1="88" x2="88" y1="335.5645" y2="340.5645"/><line style="stroke: #A80036; stroke-width: 1.5;" x1="88" x2="260" y1="340.5645" y2="340.5645"/><line style="stroke: #A80036; stroke-width: 1.5;" x1="260" x2="260" y1="340.5645" y2="355.5645"/><polygon fill="#A80036" points="256,345.5645,260,355.5645,264,345.5645,260,349.5645" style="stroke: #A80036; stroke-width: 1.0;"/><line style="stroke: #A80036; stroke-width: 1.5;" x1="260" x2="260" y1="460.8457" y2="465.8457"/><line style="stroke: #A80036; stroke-width: 1.5;" x1="260" x2="422.5" y1="465.8457" y2="465.8457"/><line style="stroke: #A80036; stroke-width: 1.5;" x1="422.5" x2="422.5" y1="465.8457" y2="480.8457"/><polygon fill="#A80036" points="418.5,470.8457,422.5,480.8457,426.5,470.8457,422.5,474.8457" style="stroke: #A80036; stroke-width: 1.0;"/><line style="stroke: #A80036; stroke-width: 1.5;" x1="422.5" x2="422.5" y1="515.9395" y2="520.9395"/><line style="stroke: #A80036; stroke-width: 1.5;" x1="422.5" x2="534.5" y1="520.9395" y2="520.9395"/><line style="stroke: #A80036; stroke-width: 1.5;" x1="534.5" x2="534.5" y1="520.9395" y2="535.9395"/><polygon fill="#A80036" points="530.5,525.9395,534.5,535.9395,538.5,525.9395,534.5,529.9395" style="stroke: #A80036; stroke-width: 1.0;"/><text fill="#000000" font-family="sans-serif" font-size="18" lengthAdjust="spacingAndGlyphs" textLength="73" x="51" y="31.1406">local (git)</text><text fill="#000000" font-family="sans-serif" font-size="18" lengthAdjust="spacingAndGlyphs" textLength="107" x="206" y="31.1406">Build pipeline</text><text fill="#000000" font-family="sans-serif" font-size="18" lengthAdjust="spacingAndGlyphs" textLength="92" x="376" y="31.1406">Web server</text><text fill="#000000" font-family="sans-serif" font-size="18" lengthAdjust="spacingAndGlyphs" textLength="54" x="507" y="31.1406">Viewer</text><line style="stroke: #000000; stroke-width: 2.0;" x1="10" x2="10" y1="12.4551" y2="613.0332"/><line style="stroke: #000000; stroke-width: 2.0;" x1="161" x2="161" y1="12.4551" y2="613.0332"/><line style="stroke: #000000; stroke-width: 2.0;" x1="359" x2="359" y1="12.4551" y2="613.0332"/><line style="stroke: #000000; stroke-width: 2.0;" x1="486" x2="486" y1="12.4551" y2="613.0332"/><line style="stroke: #000000; stroke-width: 2.0;" x1="587" x2="587" y1="12.4551" y2="613.0332"/><!--MD5=[891e201d91cca0422775631109e6055a]
@startuml
skinparam monochrrome true
|local (git)|
start
:modify laTeX file;
:commit changes;
:run <i>Makefile;
:commit updated PDF;
:push changes;
|Build pipeline|
:generate static web page
treating CV (PDF) as an artifact;
:upload static web page;
|Web server|
:provide web page;
|Viewer|
:enjoy my CV;
stop
@enduml

PlantUML version 1.2019.12(Sun Nov 03 11:24:54 CET 2019)
(APACHE source distribution)
Java Runtime: Java(TM) SE Runtime Environment
JVM: Java HotSpot(TM) 64-Bit Server VM
Java Version: 1.8.0_221-b11
Operating System: Windows 10
Default Encoding: Cp1252
Language: fr
Country: FR
--></g></svg>