<?xml version="1.0" encoding="UTF-8" standalone="no"?><svg xmlns="http://www.w3.org/2000/svg" xmlns:xlink="http://www.w3.org/1999/xlink" contentScriptType="application/ecmascript" contentStyleType="text/css" height="414px" preserveAspectRatio="none" style="width:551px;height:414px;" version="1.1" viewBox="0 0 551 414" width="551px" zoomAndPan="magnify"><defs><filter height="300%" id="fqfolnesfjqy" width="300%" x="-1" y="-1"><feGaussianBlur result="blurOut" stdDeviation="2.0"/><feColorMatrix in="blurOut" result="blurOut2" type="matrix" values="0 0 0 0 0 0 0 0 0 0 0 0 0 0 0 0 0 0 .4 0"/><feOffset dx="4.0" dy="4.0" in="blurOut2" result="blurOut3"/><feBlend in="SourceGraphic" in2="blurOut3" mode="normal"/></filter></defs><g><rect fill="#FEFECE" filter="url(#fqfolnesfjqy)" height="37.6094" rx="12.5" ry="12.5" style="stroke: #A80036; stroke-width: 1.5;" width="65" x="10" y="192.8281"/><text fill="#000000" font-family="sans-serif" font-size="14" lengthAdjust="spacingAndGlyphs" textLength="45" x="20" y="217.3613">Debian</text><rect fill="#FEFECE" filter="url(#fqfolnesfjqy)" height="37.6094" rx="12.5" ry="12.5" style="stroke: #A80036; stroke-width: 1.5;" width="65" x="125" y="106.4141"/><text fill="#000000" font-family="sans-serif" font-size="14" lengthAdjust="spacingAndGlyphs" textLength="45" x="135" y="130.9473">Ubuntu</text><rect fill="#FEFECE" filter="url(#fqfolnesfjqy)" height="37.6094" rx="12.5" ry="12.5" style="stroke: #A80036; stroke-width: 1.5;" width="83" x="240" y="20"/><text fill="#000000" font-family="sans-serif" font-size="14" lengthAdjust="spacingAndGlyphs" textLength="63" x="250" y="44.5332">Linux Mint</text><path d="M190,125.2188 L200,125.2188 C215,125.2188 215,38.8047 230,38.8047 L240,38.8047 " fill="none" style="stroke: #A80036; stroke-width: 1.0;"/><rect fill="#FEFECE" filter="url(#fqfolnesfjqy)" height="37.6094" rx="12.5" ry="12.5" style="stroke: #A80036; stroke-width: 1.5;" width="73" x="240" y="77.6094"/><text fill="#000000" font-family="sans-serif" font-size="14" lengthAdjust="spacingAndGlyphs" textLength="53" x="250" y="102.1426">Kubuntu</text><path d="M190,125.2188 L200,125.2188 C215,125.2188 215,96.4141 230,96.4141 L240,96.4141 " fill="none" style="stroke: #A80036; stroke-width: 1.0;"/><rect fill="#FEFECE" filter="url(#fqfolnesfjqy)" height="37.6094" rx="12.5" ry="12.5" style="stroke: #A80036; stroke-width: 1.5;" width="72" x="240" y="135.2188"/><text fill="#000000" font-family="sans-serif" font-size="14" lengthAdjust="spacingAndGlyphs" textLength="52" x="250" y="159.752">Lubuntu</text><path d="M190,125.2188 L200,125.2188 C215,125.2188 215,154.0234 230,154.0234 L240,154.0234 " fill="none" style="stroke: #A80036; stroke-width: 1.0;"/><rect fill="#FEFECE" filter="url(#fqfolnesfjqy)" height="37.6094" rx="12.5" ry="12.5" style="stroke: #A80036; stroke-width: 1.5;" width="85" x="240" y="192.8281"/><text fill="#000000" font-family="sans-serif" font-size="14" lengthAdjust="spacingAndGlyphs" textLength="65" x="250" y="217.3613">KDE Neon</text><path d="M190,125.2188 L200,125.2188 C215,125.2188 215,211.6328 230,211.6328 L240,211.6328 " fill="none" style="stroke: #A80036; stroke-width: 1.0;"/><path d="M75,211.6328 L85,211.6328 C100,211.6328 100,125.2188 115,125.2188 L125,125.2188 " fill="none" style="stroke: #A80036; stroke-width: 1.0;"/><rect fill="#FEFECE" filter="url(#fqfolnesfjqy)" height="37.6094" rx="12.5" ry="12.5" style="stroke: #A80036; stroke-width: 1.5;" width="58" x="125" y="164.0234"/><text fill="#000000" font-family="sans-serif" font-size="14" lengthAdjust="spacingAndGlyphs" textLength="38" x="135" y="188.5566">LMDE</text><path d="M75,211.6328 L85,211.6328 C100,211.6328 100,182.8281 115,182.8281 L125,182.8281 " fill="none" style="stroke: #A80036; stroke-width: 1.0;"/><rect fill="#FEFECE" filter="url(#fqfolnesfjqy)" height="37.6094" rx="12.5" ry="12.5" style="stroke: #A80036; stroke-width: 1.5;" width="72" x="125" y="221.6328"/><text fill="#000000" font-family="sans-serif" font-size="14" lengthAdjust="spacingAndGlyphs" textLength="52" x="135" y="246.166">SolydXK</text><path d="M75,211.6328 L85,211.6328 C100,211.6328 100,240.4375 115,240.4375 L125,240.4375 " fill="none" style="stroke: #A80036; stroke-width: 1.0;"/><rect fill="#FEFECE" filter="url(#fqfolnesfjqy)" height="37.6094" rx="12.5" ry="12.5" style="stroke: #A80036; stroke-width: 1.5;" width="80" x="125" y="279.2422"/><text fill="#000000" font-family="sans-serif" font-size="14" lengthAdjust="spacingAndGlyphs" textLength="60" x="135" y="303.7754">SteamOS</text><path d="M75,211.6328 L85,211.6328 C100,211.6328 100,298.0469 115,298.0469 L125,298.0469 " fill="none" style="stroke: #A80036; stroke-width: 1.0;"/><rect fill="#FEFECE" filter="url(#fqfolnesfjqy)" height="37.6094" rx="12.5" ry="12.5" style="stroke: #A80036; stroke-width: 1.5;" width="221" x="125" y="336.8516"/><text fill="#000000" font-family="sans-serif" font-size="14" lengthAdjust="spacingAndGlyphs" textLength="201" x="135" y="361.3848">Raspbian with a very long name</text><rect fill="#FEFECE" filter="url(#fqfolnesfjqy)" height="37.6094" rx="12.5" ry="12.5" style="stroke: #A80036; stroke-width: 1.5;" width="144" x="396" y="308.0469"/><text fill="#000000" font-family="sans-serif" font-size="14" lengthAdjust="spacingAndGlyphs" text-decoration="line-through" textLength="59" x="406" y="332.5801">Raspmbc</text><text fill="#000000" font-family="sans-serif" font-size="14" lengthAdjust="spacingAndGlyphs" textLength="61" x="469" y="332.5801">=&gt; OSMC</text><path d="M346,355.6563 L356,355.6563 C371,355.6563 371,326.8516 386,326.8516 L396,326.8516 " fill="none" style="stroke: #A80036; stroke-width: 1.0;"/><rect fill="#FEFECE" filter="url(#fqfolnesfjqy)" height="37.6094" rx="12.5" ry="12.5" style="stroke: #A80036; stroke-width: 1.5;" width="141" x="396" y="365.6563"/><text fill="#000000" font-family="sans-serif" font-size="14" lengthAdjust="spacingAndGlyphs" text-decoration="line-through" textLength="47" x="406" y="390.1895">Raspyfi</text><text fill="#000000" font-family="sans-serif" font-size="14" lengthAdjust="spacingAndGlyphs" textLength="70" x="457" y="390.1895">=&gt; Volumio</text><path d="M346,355.6563 L356,355.6563 C371,355.6563 371,384.4609 386,384.4609 L396,384.4609 " fill="none" style="stroke: #A80036; stroke-width: 1.0;"/><path d="M75,211.6328 L85,211.6328 C100,211.6328 100,355.6563 115,355.6563 L125,355.6563 " fill="none" style="stroke: #A80036; stroke-width: 1.0;"/><!--MD5=[d2b0b01e92d4c8cb796ce4e5be505916]
@startmindmap
* Debian
** Ubuntu
*** Linux Mint
*** Kubuntu
*** Lubuntu
*** KDE Neon
** LMDE
** SolydXK
** SteamOS
** Raspbian with a very long name
*** <s>Raspmbc</s> => OSMC
*** <s>Raspyfi</s> => Volumio
@endmindmap

PlantUML version 1.2019.12(Sun Nov 03 11:24:54 CET 2019)
(APACHE source distribution)
Java Runtime: Java(TM) SE Runtime Environment
JVM: Java HotSpot(TM) 64-Bit Server VM
Java Version: 1.8.0_221-b11
Operating System: Windows 10
Default Encoding: Cp1252
Language: fr
Country: FR
--></g></svg>