<?xml version="1.0" encoding="UTF-8" standalone="no"?><svg xmlns="http://www.w3.org/2000/svg" xmlns:xlink="http://www.w3.org/1999/xlink" contentScriptType="application/ecmascript" contentStyleType="text/css" height="235px" preserveAspectRatio="none" style="width:430px;height:235px;" version="1.1" viewBox="0 0 430 235" width="430px" zoomAndPan="magnify"><defs><filter height="300%" id="f7rwxoldmcm9c" width="300%" x="-1" y="-1"><feGaussianBlur result="blurOut" stdDeviation="2.0"/><feColorMatrix in="blurOut" result="blurOut2" type="matrix" values="0 0 0 0 0 0 0 0 0 0 0 0 0 0 0 0 0 0 .4 0"/><feOffset dx="4.0" dy="4.0" in="blurOut2" result="blurOut3"/><feBlend in="SourceGraphic" in2="blurOut3" mode="normal"/></filter></defs><g><!--MD5=[dd1dba2181b62d7a6b9501e057c2fe75]
cluster admin--><rect fill="#FFFFFF" filter="url(#f7rwxoldmcm9c)" height="116" style="stroke: #000000; stroke-width: 1.5;" width="267" x="152" y="24"/><text fill="#000000" font-family="sans-serif" font-size="14" font-weight="bold" lengthAdjust="spacingAndGlyphs" textLength="94" x="238.5" y="40.5332">Gerrit / Gitlab</text><!--MD5=[bf1b4add2ee2e1b53e65912b20fb7ef4]
entity ui--><rect fill="#FEFECE" filter="url(#f7rwxoldmcm9c)" height="37.6094" style="stroke: #A80036; stroke-width: 1.5;" width="49" x="168" y="78"/><text fill="#000000" font-family="sans-serif" font-size="14" lengthAdjust="spacingAndGlyphs" textLength="29" x="178" y="102.5332">front</text><!--MD5=[74b17aa3a46a51a0367a31414923af4b]
entity repo_local--><path d="M354,70 C354,60 378.5,60 378.5,60 C378.5,60 403,60 403,70 L403,114.2188 C403,124.2188 378.5,124.2188 378.5,124.2188 C378.5,124.2188 354,124.2188 354,114.2188 L354,70 " fill="#FEFECE" filter="url(#f7rwxoldmcm9c)" style="stroke: #000000; stroke-width: 1.5;"/><path d="M354,70 C354,80 378.5,80 378.5,80 C378.5,80 403,80 403,70 " fill="none" style="stroke: #000000; stroke-width: 1.5;"/><text fill="#000000" font-family="sans-serif" font-size="14" lengthAdjust="spacingAndGlyphs" textLength="29" x="364" y="98.5332">local</text><text fill="#000000" font-family="sans-serif" font-size="14" lengthAdjust="spacingAndGlyphs" textLength="29" x="364" y="116.1426">repo</text><!--MD5=[23e4898078453906b079a6bea7d1245c]
entity developer--><ellipse cx="37.5" cy="64.5" fill="#FEFECE" filter="url(#f7rwxoldmcm9c)" rx="8" ry="8" style="stroke: #A80036; stroke-width: 2.0;"/><path d="M37.5,72.5 L37.5,99.5 M24.5,80.5 L50.5,80.5 M37.5,99.5 L24.5,114.5 M37.5,99.5 L50.5,114.5 " fill="none" filter="url(#f7rwxoldmcm9c)" style="stroke: #A80036; stroke-width: 2.0;"/><text fill="#000000" font-family="sans-serif" font-size="14" lengthAdjust="spacingAndGlyphs" textLength="63" x="6" y="136.0332">developer</text><!--MD5=[ae38f3df50bbf8acf027574e6a8bac37]
entity repo--><path d="M347,169 C347,159 378.5,159 378.5,159 C378.5,159 410,159 410,169 L410,213.2188 C410,223.2188 378.5,223.2188 378.5,223.2188 C378.5,223.2188 347,223.2188 347,213.2188 L347,169 " fill="#FEFECE" filter="url(#f7rwxoldmcm9c)" style="stroke: #000000; stroke-width: 1.5;"/><path d="M347,169 C347,179 378.5,179 378.5,179 C378.5,179 410,179 410,169 " fill="none" style="stroke: #000000; stroke-width: 1.5;"/><text fill="#000000" font-family="sans-serif" font-size="14" lengthAdjust="spacingAndGlyphs" textLength="43" x="357" y="197.5332">central</text><text fill="#000000" font-family="sans-serif" font-size="14" lengthAdjust="spacingAndGlyphs" textLength="29" x="357" y="215.1426">repo</text><!--MD5=[9d43cf96047e378adcca12cb04008485]
entity jenkins--><rect fill="#FEFECE" filter="url(#f7rwxoldmcm9c)" height="37.6094" style="stroke: #A80036; stroke-width: 1.5;" width="67" x="159" y="185"/><text fill="#000000" font-family="sans-serif" font-size="14" lengthAdjust="spacingAndGlyphs" textLength="47" x="169" y="209.5332">Jenkins</text><!--MD5=[cc9b45b380763288d77c2dfce4828dc6]
link developer to ui--><path d="M69.0941,97 C96.4004,97 136.089,97 162.802,97 " fill="none" id="developer-&gt;ui" style="stroke: #A80036; stroke-width: 1.0;"/><polygon fill="#A80036" points="167.964,97,158.964,93,162.964,97,158.964,101,167.964,97" style="stroke: #A80036; stroke-width: 1.0;"/><text fill="#000000" font-family="sans-serif" font-size="13" lengthAdjust="spacingAndGlyphs" textLength="28" x="100" y="93.4951">push</text><!--MD5=[ffcededc9d1437bb7cacf9f637080c4e]
link ui to repo_local--><path d="M217.178,96.357 C250.852,95.442 312.504,93.766 348.755,92.781 " fill="none" id="ui-&gt;repo_local" style="stroke: #A80036; stroke-width: 1.0;"/><polygon fill="#A80036" points="353.913,92.641,344.8077,88.8868,348.9148,92.7767,345.0249,96.8839,353.913,92.641" style="stroke: #A80036; stroke-width: 1.0;"/><text fill="#000000" font-family="sans-serif" font-size="13" lengthAdjust="spacingAndGlyphs" textLength="28" x="272.5" y="89.4951">push</text><!--MD5=[5d9e52ece3a811db579290a6c7622bb9]
reverse link jenkins to ui--><path d="M192.5,179.6629 C192.5,160.4753 192.5,134.0807 192.5,116.325 " fill="none" id="jenkins&lt;-ui" style="stroke: #A80036; stroke-width: 1.0;"/><polygon fill="#A80036" points="192.5,184.8705,196.5,175.8705,192.5,179.8705,188.5,175.8705,192.5,184.8705" style="stroke: #A80036; stroke-width: 1.0;"/><text fill="#000000" font-family="sans-serif" font-size="13" lengthAdjust="spacingAndGlyphs" textLength="0" x="174.5" y="147.9951"/><text fill="#000000" font-family="sans-serif" font-size="13" lengthAdjust="spacingAndGlyphs" textLength="28" x="156.5" y="164.3467">push</text><!--MD5=[93c6bd3ce2d8141a69f15c93238d9df3]
link ui to repo--><path d="M217.178,109.096 C248.854,125.2786 305.284,154.1073 342.043,172.8863 " fill="none" id="ui-&gt;repo" style="stroke: #A80036; stroke-width: 1.0; stroke-dasharray: 7.0,7.0;"/><polygon fill="#A80036" points="346.872,175.3529,340.6764,167.6969,342.4192,173.0786,337.0375,174.8213,346.872,175.3529" style="stroke: #A80036; stroke-width: 1.0;"/><text fill="#000000" font-family="sans-serif" font-size="13" lengthAdjust="spacingAndGlyphs" textLength="59" x="257" y="126.4951">replication</text><!--MD5=[3e1eb71a394e146dc7aa0edec86826d0]
@startuml
left to right direction

actor developer
database repo as "central\nrepo"
agent jenkins as "Jenkins"

rectangle admin as "Gerrit / Gitlab" {
    agent ui as "front"
    database repo_local as "local\nrepo"
}

developer - -> ui : push
ui - -> repo_local : push
ui -left-> jenkins: "\npush "
ui ..> repo : replication
@enduml

PlantUML version 1.2019.12(Sun Nov 03 11:24:54 CET 2019)
(APACHE source distribution)
Java Runtime: Java(TM) SE Runtime Environment
JVM: Java HotSpot(TM) 64-Bit Server VM
Java Version: 1.8.0_221-b11
Operating System: Windows 10
Default Encoding: Cp1252
Language: fr
Country: FR
--></g></svg>