<?xml version="1.0" encoding="UTF-8" standalone="no"?><svg xmlns="http://www.w3.org/2000/svg" xmlns:xlink="http://www.w3.org/1999/xlink" contentScriptType="application/ecmascript" contentStyleType="text/css" height="532px" preserveAspectRatio="none" style="width:615px;height:532px;" version="1.1" viewBox="0 0 615 532" width="615px" zoomAndPan="magnify"><defs><filter height="300%" id="f1wxxjyieah60b" width="300%" x="-1" y="-1"><feGaussianBlur result="blurOut" stdDeviation="2.0"/><feColorMatrix in="blurOut" result="blurOut2" type="matrix" values="0 0 0 0 0 0 0 0 0 0 0 0 0 0 0 0 0 0 .4 0"/><feOffset dx="4.0" dy="4.0" in="blurOut2" result="blurOut3"/><feBlend in="SourceGraphic" in2="blurOut3" mode="normal"/></filter></defs><g><ellipse cx="580.702" cy="33" fill="#000000" filter="url(#f1wxxjyieah60b)" rx="10" ry="10" style="stroke: none; stroke-width: 1.0;"/><rect fill="#FEFECE" filter="url(#f1wxxjyieah60b)" height="50" rx="12.5" ry="12.5" style="stroke: #A80036; stroke-width: 1.5;" width="61" x="474.202" y="8"/><line style="stroke: #A80036; stroke-width: 1.5;" x1="474.202" x2="535.202" y1="35.6094" y2="35.6094"/><text fill="#000000" font-family="sans-serif" font-size="14" lengthAdjust="spacingAndGlyphs" textLength="41" x="484.202" y="27.5332">State1</text><rect fill="#FEFECE" filter="url(#f1wxxjyieah60b)" height="50" rx="12.5" ry="12.5" style="stroke: #A80036; stroke-width: 1.5;" width="61" x="248.202" y="8"/><line style="stroke: #A80036; stroke-width: 1.5;" x1="248.202" x2="309.202" y1="35.6094" y2="35.6094"/><text fill="#000000" font-family="sans-serif" font-size="14" lengthAdjust="spacingAndGlyphs" textLength="41" x="258.202" y="27.5332">State2</text><ellipse cx="277.702" cy="511" fill="none" filter="url(#f1wxxjyieah60b)" rx="10" ry="10" style="stroke: #000000; stroke-width: 1.0;"/><ellipse cx="278.202" cy="511.5" fill="#000000" rx="6" ry="6" style="stroke: none; stroke-width: 1.0;"/><rect fill="#FEFECE" filter="url(#f1wxxjyieah60b)" height="286.6094" rx="12.5" ry="12.5" style="stroke: #A80036; stroke-width: 1.5;" width="310" x="123.702" y="136"/><rect fill="#FFFFFF" height="253" rx="12.5" ry="12.5" style="stroke: #FFFFFF; stroke-width: 1.0;" width="304" x="126.702" y="166.6094"/><line style="stroke: #A80036; stroke-width: 1.5;" x1="123.702" x2="433.702" y1="163.6094" y2="163.6094"/><text fill="#000000" font-family="sans-serif" font-size="14" lengthAdjust="spacingAndGlyphs" textLength="41" x="258.202" y="155.5332">State3</text><rect fill="#FEFECE" filter="url(#f1wxxjyieah60b)" height="70.3125" rx="12.5" ry="12.5" style="stroke: #A80036; stroke-width: 1.5;" width="180" x="134.702" y="233.6094"/><line style="stroke: #A80036; stroke-width: 1.5;" x1="134.702" x2="314.702" y1="278.8281" y2="278.8281"/><text fill="#000000" font-family="sans-serif" font-size="14" lengthAdjust="spacingAndGlyphs" textLength="160" x="144.702" y="253.1426">Accumulate Enough Data</text><text fill="#000000" font-family="sans-serif" font-size="14" lengthAdjust="spacingAndGlyphs" textLength="109" x="170.202" y="270.752">Long State Name</text><text fill="#000000" font-family="sans-serif" font-size="12" lengthAdjust="spacingAndGlyphs" textLength="56" x="139.702" y="296.2852">Just a test</text><ellipse cx="224.702" cy="186.6094" fill="#000000" filter="url(#f1wxxjyieah60b)" rx="10" ry="10" style="stroke: none; stroke-width: 1.0;"/><rect fill="#FEFECE" filter="url(#f1wxxjyieah60b)" height="50" rx="12.5" ry="12.5" style="stroke: #A80036; stroke-width: 1.5;" width="101" x="174.202" y="357.6094"/><line style="stroke: #A80036; stroke-width: 1.5;" x1="174.202" x2="275.202" y1="385.2188" y2="385.2188"/><text fill="#000000" font-family="sans-serif" font-size="14" lengthAdjust="spacingAndGlyphs" textLength="81" x="184.202" y="377.1426">ProcessData</text><!--MD5=[cbbb8dc237c8185397a1ccf2b0af3080]
link *start*State3 to long1--><path d="M224.702,196.7864 C224.702,204.6874 224.702,216.6584 224.702,228.5224 " fill="none" id="*start*State3-&gt;long1" style="stroke: #A80036; stroke-width: 1.0;"/><polygon fill="#A80036" points="224.702,233.5884,228.702,224.5884,224.702,228.5884,220.702,224.5884,224.702,233.5884" style="stroke: #A80036; stroke-width: 1.0;"/><!--MD5=[cd06514976a2197e7c66cb27013135c0]
link long1 to long1--><path d="M314.904,260.2304 C325.671,261.7544 332.702,264.5464 332.702,268.6094 C332.702,271.9734 327.88,274.4674 320.108,276.0904 " fill="none" id="long1-&gt;long1" style="stroke: #A80036; stroke-width: 1.0;"/><polygon fill="#A80036" points="314.904,276.9884,324.453,279.4001,319.8312,276.1384,323.093,271.5166,314.904,276.9884" style="stroke: #A80036; stroke-width: 1.0;"/><text fill="#000000" font-family="sans-serif" font-size="13" lengthAdjust="spacingAndGlyphs" textLength="56" x="338.702" y="274.1045">New Data</text><!--MD5=[02e543224095a440a3409c6f97e15d1f]
link long1 to ProcessData--><path d="M224.702,303.8214 C224.702,319.2911 224.702,337.3885 224.702,352.233 " fill="none" id="long1-&gt;ProcessData" style="stroke: #A80036; stroke-width: 1.0;"/><polygon fill="#A80036" points="224.702,357.5439,228.702,348.5439,224.702,352.5439,220.702,348.5439,224.702,357.5439" style="stroke: #A80036; stroke-width: 1.0;"/><text fill="#000000" font-family="sans-serif" font-size="13" lengthAdjust="spacingAndGlyphs" textLength="75" x="225.702" y="336.1045">Enough Data</text><!--MD5=[66d395c09c4ecf822e4ea2e5636ede2b]
reverse link State1 to *start--><path d="M540.495,33 C550.467,33 560.439,33 570.411,33 " fill="none" id="State1&lt;-*start" style="stroke: #A80036; stroke-width: 1.0;"/><polygon fill="#A80036" points="535.28,33,544.28,37,540.28,33,544.28,29,535.28,33" style="stroke: #A80036; stroke-width: 1.0;"/><!--MD5=[cf27e604831d7c90976753d62a53172b]
reverse link State2 to State1--><path d="M314.879,33 C358.98,33 432.731,33 474.125,33 " fill="none" id="State2&lt;-State1" style="stroke: #A80036; stroke-width: 1.0;"/><polygon fill="#A80036" points="309.652,33,318.652,37,314.652,33,318.652,29,309.652,33" style="stroke: #A80036; stroke-width: 1.0;"/><text fill="#000000" font-family="sans-serif" font-size="13" lengthAdjust="spacingAndGlyphs" textLength="65" x="359.202" y="26.4951">Succeeded</text><!--MD5=[ca1046a354e184ac9d197a073cc82934]
link State1 to *end--><path d="M514.49,58.23 C539.287,123.916 597.116,308.152 516.702,423 C463.512,498.9666 336.741,508.8432 292.916,509.9404 " fill="none" id="State1-&gt;*end" style="stroke: #A80036; stroke-width: 1.0;"/><polygon fill="#A80036" points="287.76,510.0375,296.8338,513.8671,292.7591,509.9432,296.683,505.8685,287.76,510.0375" style="stroke: #A80036; stroke-width: 1.0;"/><text fill="#000000" font-family="sans-serif" font-size="13" lengthAdjust="spacingAndGlyphs" textLength="45" x="558.702" y="284.9951">Aborted</text><!--MD5=[428d136baf6462f9e03ffacdcb621855]
link State2 to State3--><path d="M278.702,58.337 C278.702,76.361 278.702,102.578 278.702,130.682 " fill="none" id="State2-&gt;State3" style="stroke: #A80036; stroke-width: 1.0;"/><polygon fill="#A80036" points="278.702,135.95,282.702,126.95,278.702,130.95,274.702,126.95,278.702,135.95" style="stroke: #A80036; stroke-width: 1.0;"/><text fill="#000000" font-family="sans-serif" font-size="13" lengthAdjust="spacingAndGlyphs" textLength="65" x="279.702" y="102.4951">Succeeded</text><!--MD5=[37ebb224bae70bf8df0e6bab9d19d55b]
link State2 to *end--><path d="M247.804,37.905 C197.887,46.063 100.848,70.004 58.7019,136 C-9.9518,243.504 -12.9343,317.46 58.7019,423 C106.417,493.2983 220.84,506.7946 262.338,509.385 " fill="none" id="State2-&gt;*end" style="stroke: #A80036; stroke-width: 1.0;"/><polygon fill="#A80036" points="267.474,509.6721,258.7108,505.1769,262.4818,509.3935,258.2651,513.1644,267.474,509.6721" style="stroke: #A80036; stroke-width: 1.0;"/><text fill="#000000" font-family="sans-serif" font-size="13" lengthAdjust="spacingAndGlyphs" textLength="45" x="59.7019" y="284.9951">Aborted</text><!--MD5=[8ec7ebc35d95dc19dc51ed7d52bc84fe]
link State3 to State3--><path d="M433.764,249.226 C454.738,254.301 468.702,264.393 468.702,279.5 C468.702,293.309 457.035,302.927 439.011,308.354 " fill="none" id="State3-&gt;State3" style="stroke: #A80036; stroke-width: 1.0;"/><polygon fill="#A80036" points="433.764,309.774,443.4963,311.2845,438.5904,308.4681,441.4069,303.5622,433.764,309.774" style="stroke: #A80036; stroke-width: 1.0;"/><text fill="#000000" font-family="sans-serif" font-size="13" lengthAdjust="spacingAndGlyphs" textLength="35" x="474.702" y="284.9951">Failed</text><!--MD5=[0ea1e5ee684c4e9667d1229adf70964c]
link State3 to *end--><path d="M227.721,423.1767 C225.334,433.1841 223.281,443.191 221.702,453 C220.431,460.8984 217.999,463.9086 221.702,471 C230.493,487.836 250.235,498.8799 263.764,504.7836 " fill="none" id="State3-&gt;*end" style="stroke: #A80036; stroke-width: 1.0;"/><polygon fill="#A80036" points="268.436,506.7273,261.664,499.5761,263.8199,504.806,258.5899,506.9619,268.436,506.7273" style="stroke: #A80036; stroke-width: 1.0;"/><text fill="#000000" font-family="sans-serif" font-size="13" lengthAdjust="spacingAndGlyphs" textLength="65" x="222.702" y="467.4951">Succeeded</text><!--MD5=[0ea1e5ee684c4e9667d1229adf70964c]
link State3 to *end--><path d="M297.153,423.1957 C296.89,439.3857 295.562,455.5942 292.702,471 C291.023,480.0404 287.33,489.6892 284.028,497.1277 " fill="none" id="State3-&gt;*end-1" style="stroke: #A80036; stroke-width: 1.0;"/><polygon fill="#A80036" points="281.834,501.8898,289.2326,495.389,283.926,497.3485,281.9665,492.0418,281.834,501.8898" style="stroke: #A80036; stroke-width: 1.0;"/><text fill="#000000" font-family="sans-serif" font-size="13" lengthAdjust="spacingAndGlyphs" textLength="45" x="296.702" y="467.4951">Aborted</text><!--MD5=[c4c2655c697a03e5f7be1523dec5907f]
@startuml
[*] -left-> State1
State1 -left-> State2 : Succeeded
State1 - -> [*] : Aborted
State2 - -> State3 : Succeeded
State2 - -> [*] : Aborted
state State3 {
  state "Accumulate Enough Data\nLong State Name" as long1
  long1 : Just a test
  [*] - -> long1
  long1 - -> long1 : New Data
  long1 - -> ProcessData : Enough Data
}
State3 - -> State3 : Failed
State3 - -> [*] : Succeeded
State3 - -> [*] : Aborted
@enduml

PlantUML version 1.2019.12(Sun Nov 03 11:24:54 CET 2019)
(APACHE source distribution)
Java Runtime: Java(TM) SE Runtime Environment
JVM: Java HotSpot(TM) 64-Bit Server VM
Java Version: 1.8.0_221-b11
Operating System: Windows 10
Default Encoding: Cp1252
Language: fr
Country: FR
--></g></svg>