<?xml version="1.0" encoding="UTF-8" standalone="no"?><svg xmlns="http://www.w3.org/2000/svg" xmlns:xlink="http://www.w3.org/1999/xlink" contentScriptType="application/ecmascript" contentStyleType="text/css" height="258px" preserveAspectRatio="none" style="width:440px;height:258px;" version="1.1" viewBox="0 0 440 258" width="440px" zoomAndPan="magnify"><defs/><g><line style="stroke: #000000; stroke-width: 1.7;" x1="10" x2="10" y1="10" y2="226.375"/><line style="stroke: #000000; stroke-width: 1.7;" x1="423" x2="423" y1="10" y2="226.375"/><line style="stroke: #AAAAAA; stroke-width: 0.5; stroke-dasharray: 3.0,5.0;" x1="118" x2="118" y1="10" y2="226.375"/><line style="stroke: #AAAAAA; stroke-width: 0.5; stroke-dasharray: 3.0,5.0;" x1="168" x2="168" y1="10" y2="226.375"/><line style="stroke: #AAAAAA; stroke-width: 0.5; stroke-dasharray: 3.0,5.0;" x1="218" x2="218" y1="10" y2="226.375"/><line style="stroke: #AAAAAA; stroke-width: 0.5; stroke-dasharray: 3.0,5.0;" x1="268" x2="268" y1="10" y2="226.375"/><line style="stroke: #AAAAAA; stroke-width: 0.5; stroke-dasharray: 3.0,5.0;" x1="318" x2="318" y1="10" y2="226.375"/><line style="stroke: #AAAAAA; stroke-width: 0.5; stroke-dasharray: 3.0,5.0;" x1="368" x2="368" y1="10" y2="226.375"/><line style="stroke: #AAAAAA; stroke-width: 0.5; stroke-dasharray: 3.0,5.0;" x1="418" x2="418" y1="10" y2="226.375"/><text fill="#000000" font-family="sans-serif" font-size="12" lengthAdjust="spacingAndGlyphs" textLength="74" x="15" y="22.457">Web Browser</text><line style="stroke: #000000; stroke-width: 1.0;" x1="10" x2="90" y1="26.0938" y2="26.0938"/><line style="stroke: #000000; stroke-width: 1.0;" x1="90" x2="100" y1="26.0938" y2="10"/><line style="stroke: #038048; stroke-width: 1.5;" x1="78" x2="118" y1="100.1875" y2="100.1875"/><line style="stroke: #038048; stroke-width: 1.5;" x1="118" x2="218" y1="80.1875" y2="80.1875"/><line style="stroke: #038048; stroke-width: 1.5;" x1="218" x2="268" y1="60.1875" y2="60.1875"/><line style="stroke: #038048; stroke-width: 1.5;" x1="268" x2="418" y1="40.1875" y2="40.1875"/><line style="stroke: #038048; stroke-width: 1.5;" x1="118" x2="118" y1="80.1875" y2="100.1875"/><line style="stroke: #038048; stroke-width: 1.5;" x1="218" x2="218" y1="60.1875" y2="80.1875"/><line style="stroke: #038048; stroke-width: 1.5;" x1="268" x2="268" y1="40.1875" y2="60.1875"/><line style="stroke: #FF0000; stroke-width: 1.5;" x1="118" x2="143" y1="70.1875" y2="70.1875"/><polygon fill="#FF0000" points="125.5175,67.4513,125.5175,72.9237,118,70.1875" style="stroke: #FF0000; stroke-width: 1.5;"/><polygon fill="#FF0000" points="135.4825,72.9237,135.4825,67.4513,143,70.1875" style="stroke: #FF0000; stroke-width: 1.5;"/><text fill="#000000" font-family="Serif" font-size="14" lengthAdjust="spacingAndGlyphs" textLength="69" x="96" y="62.1113">{50 ms lag}</text><text fill="#000000" font-family="sans-serif" font-size="12" lengthAdjust="spacingAndGlyphs" textLength="54" x="15" y="97.5508">Initializing</text><text fill="#000000" font-family="sans-serif" font-size="12" lengthAdjust="spacingAndGlyphs" textLength="20" x="15" y="77.5508">idle</text><text fill="#000000" font-family="sans-serif" font-size="12" lengthAdjust="spacingAndGlyphs" textLength="63" x="15" y="57.5508">Processing</text><text fill="#000000" font-family="sans-serif" font-size="12" lengthAdjust="spacingAndGlyphs" textLength="41" x="15" y="37.5508">Waiting</text><line style="stroke: #000000; stroke-width: 1.7;" x1="10" x2="423" y1="10" y2="10"/><text fill="#000000" font-family="sans-serif" font-size="12" lengthAdjust="spacingAndGlyphs" textLength="55" x="15" y="142.6445">Web User</text><line style="stroke: #000000; stroke-width: 1.0;" x1="10" x2="71" y1="146.2813" y2="146.2813"/><line style="stroke: #000000; stroke-width: 1.0;" x1="71" x2="81" y1="146.2813" y2="130.1875"/><polygon fill="#FFFFFF" points="56,184.375,106,184.375,118,196.375,106,208.375,56,208.375" style="stroke: #FFFFFF; stroke-width: 1.5;"/><path d="M56,184.375 L106,184.375 L118,196.375 L106,208.375 L56,208.375 " fill="#FFFFFF" style="stroke: #038048; stroke-width: 1.5;"/><polygon fill="#FFFFFF" points="130,184.375,356,184.375,368,196.375,356,208.375,130,208.375,118,196.375" style="stroke: #038048; stroke-width: 1.5;"/><polygon fill="#FFFFFF" points="380,184.375,418,184.375,418,208.375,380,208.375,368,196.375" style="stroke: #FFFFFF; stroke-width: 1.5;"/><path d="M418,184.375 L380,184.375 L368,196.375 L380,208.375 L418,208.375 " fill="#FFFFFF" style="stroke: #038048; stroke-width: 1.5;"/><text fill="#000000" font-family="sans-serif" font-size="12" lengthAdjust="spacingAndGlyphs" textLength="38" x="68" y="201.2852">Absent</text><text fill="#000000" font-family="sans-serif" font-size="12" lengthAdjust="spacingAndGlyphs" textLength="41" x="222.5" y="201.2852">Waiting</text><text fill="#000000" font-family="sans-serif" font-size="12" lengthAdjust="spacingAndGlyphs" textLength="13" x="380" y="201.2852">ok</text><line style="stroke: #FF0000; stroke-width: 1.0;" x1="218" x2="293" y1="175.375" y2="175.375"/><polygon fill="#FF0000" points="225.5175,172.6388,225.5175,178.1112,218,175.375" style="stroke: #FF0000; stroke-width: 1.0;"/><polygon fill="#FF0000" points="285.4825,178.1112,285.4825,172.6388,293,175.375" style="stroke: #FF0000; stroke-width: 1.0;"/><text fill="#000000" font-family="Serif" font-size="14" lengthAdjust="spacingAndGlyphs" textLength="56" x="227.5" y="167.2988">{150 ms}</text><line style="stroke: #000000; stroke-width: 1.7;" x1="10" x2="423" y1="130.1875" y2="130.1875"/><line style="stroke: #000000; stroke-width: 2.0;" x1="118" x2="118" y1="226.375" y2="231.375"/><line style="stroke: #000000; stroke-width: 2.0;" x1="168" x2="168" y1="226.375" y2="231.375"/><line style="stroke: #000000; stroke-width: 2.0;" x1="218" x2="218" y1="226.375" y2="231.375"/><line style="stroke: #000000; stroke-width: 2.0;" x1="268" x2="268" y1="226.375" y2="231.375"/><line style="stroke: #000000; stroke-width: 2.0;" x1="318" x2="318" y1="226.375" y2="231.375"/><line style="stroke: #000000; stroke-width: 2.0;" x1="368" x2="368" y1="226.375" y2="231.375"/><line style="stroke: #000000; stroke-width: 2.0;" x1="418" x2="418" y1="226.375" y2="231.375"/><line style="stroke: #000000; stroke-width: 2.0;" x1="118" x2="418" y1="226.375" y2="226.375"/><text fill="#000000" font-family="sans-serif" font-size="12" lengthAdjust="spacingAndGlyphs" textLength="7" x="114.5" y="244.832">0</text><text fill="#000000" font-family="sans-serif" font-size="12" lengthAdjust="spacingAndGlyphs" textLength="21" x="207.5" y="244.832">200</text><text fill="#000000" font-family="sans-serif" font-size="12" lengthAdjust="spacingAndGlyphs" textLength="21" x="257.5" y="244.832">300</text><text fill="#000000" font-family="sans-serif" font-size="12" lengthAdjust="spacingAndGlyphs" textLength="21" x="357.5" y="244.832">500</text><line style="stroke: #0000FF; stroke-width: 1.0;" x1="118" x2="118" y1="196.375" y2="100.1875"/><polygon fill="#0000FF" points="120.7362,107.705,115.2638,107.705,118,100.1875" style="stroke: #0000FF; stroke-width: 1.0;"/><text fill="#0000FF" font-family="Serif" font-size="14" lengthAdjust="spacingAndGlyphs" textLength="26" x="118" y="122.375">URL</text><!--MD5=[20dd8a4c3fa2667bc27642e09eb5a32d]
@startuml
robust "Web Browser" as WB
concise "Web User" as WU
WB is Initializing
WU is Absent
@WB
0 is idle
+200 is Processing
+100 is Waiting
WB@0 <-> @50 : {50 ms lag}
@WU
WU -> WB : URL
0 is Waiting #white
+500 is ok #white
@200 <-> @+150 : {150 ms}
@enduml

PlantUML version 1.2019.12(Sun Nov 03 11:24:54 CET 2019)
(APACHE source distribution)
Java Runtime: Java(TM) SE Runtime Environment
JVM: Java HotSpot(TM) 64-Bit Server VM
Java Version: 1.8.0_221-b11
Operating System: Windows 10
Default Encoding: Cp1252
Language: fr
Country: FR
--></g></svg>