<?xml version="1.0" encoding="UTF-8" standalone="no"?>
<svg
   xmlns:dc="http://purl.org/dc/elements/1.1/"
   xmlns:cc="http://creativecommons.org/ns#"
   xmlns:rdf="http://www.w3.org/1999/02/22-rdf-syntax-ns#"
   xmlns:svg="http://www.w3.org/2000/svg"
   xmlns="http://www.w3.org/2000/svg"
   xmlns:xlink="http://www.w3.org/1999/xlink"
   xmlns:sodipodi="http://sodipodi.sourceforge.net/DTD/sodipodi-0.dtd"
   xmlns:inkscape="http://www.inkscape.org/namespaces/inkscape"
   inkscape:export-ydpi="100"
   inkscape:export-xdpi="100"
   inkscape:export-filename="E:\work\CYCLUP\site-web_cyclup.xyz\logo\200831_logo-cyclup.png"
   inkscape:version="1.0 (4035a4fb49, 2020-05-01)"
   sodipodi:docname="200831_logo_cyclup.svg"
   id="svg34"
   version="1.1"
   overflow="visible"
   viewBox="0 0 85.086637 28.567832"
   height="28.567831pt"
   width="85.086639pt">
  <metadata
     id="metadata40">
    <rdf:RDF>
      <cc:Work
         rdf:about="">
        <dc:format>image/svg+xml</dc:format>
        <dc:type
           rdf:resource="http://purl.org/dc/dcmitype/StillImage" />
        <dc:title></dc:title>
      </cc:Work>
    </rdf:RDF>
  </metadata>
  <defs
     id="defs38">
    <linearGradient
       id="linearGradient1078"
       inkscape:collect="always">
      <stop
         id="stop1074"
         offset="0"
         style="stop-color:#000000;stop-opacity:1;" />
      <stop
         id="stop1076"
         offset="1"
         style="stop-color:#000000;stop-opacity:0;" />
    </linearGradient>
    <linearGradient
       inkscape:collect="always"
       id="linearGradient980">
      <stop
         style="stop-color:#800000;stop-opacity:1;"
         offset="0"
         id="stop976" />
      <stop
         style="stop-color:#800000;stop-opacity:0;"
         offset="1"
         id="stop978" />
    </linearGradient>
    <linearGradient
       inkscape:collect="always"
       id="linearGradient972-9">
      <stop
         style="stop-color:#800000;stop-opacity:1;"
         offset="0"
         id="stop968" />
      <stop
         style="stop-color:#800000;stop-opacity:0;"
         offset="1"
         id="stop970" />
    </linearGradient>
    <linearGradient
       inkscape:collect="always"
       id="linearGradient917">
      <stop
         style="stop-color:#000000;stop-opacity:1;"
         offset="0"
         id="stop913" />
      <stop
         style="stop-color:#f432ce;stop-opacity:0.81571817"
         offset="1"
         id="stop915" />
    </linearGradient>
    <radialGradient
       inkscape:collect="always"
       xlink:href="#linearGradient917"
       id="radialGradient921"
       cx="300.4021"
       cy="207.14795"
       fx="300.4021"
       fy="207.14795"
       r="6.3779955"
       gradientTransform="matrix(1,0,0,0.22222571,0,161.11435)"
       gradientUnits="userSpaceOnUse" />
    <linearGradient
       gradientTransform="matrix(6.550624,0,0,6.550624,-1667.4191,-1151.2833)"
       inkscape:collect="always"
       xlink:href="#linearGradient980"
       id="linearGradient937"
       x1="296.59079"
       y1="207.14795"
       x2="301.03516"
       y2="207.14795"
       gradientUnits="userSpaceOnUse" />
    <linearGradient
       gradientTransform="matrix(6.550624,0,0,6.550624,-1667.4191,-1151.2833)"
       inkscape:collect="always"
       xlink:href="#linearGradient980"
       id="linearGradient945"
       x1="293.99576"
       y1="206.42371"
       x2="296.24387"
       y2="206.42371"
       gradientUnits="userSpaceOnUse" />
    <linearGradient
       gradientTransform="matrix(6.550624,0,0,6.550624,-1667.4191,-1151.2833)"
       inkscape:collect="always"
       xlink:href="#linearGradient972-9"
       id="linearGradient974"
       x1="297.17059"
       y1="207.14824"
       x2="300.46603"
       y2="207.14824"
       gradientUnits="userSpaceOnUse" />
    <linearGradient
       gradientTransform="matrix(6.550624,0,0,6.550624,-1667.4191,-1151.2833)"
       inkscape:collect="always"
       xlink:href="#linearGradient980"
       id="linearGradient982"
       x1="300.21127"
       y1="207.14671"
       x2="306.65137"
       y2="207.14671"
       gradientUnits="userSpaceOnUse" />
    <filter
       inkscape:menu-tooltip="Adds a colorizable edges glow inside objects and pictures"
       inkscape:menu="Color"
       inkscape:label="Soft Colors"
       inkscape:collect="always"
       style="color-interpolation-filters:sRGB"
       id="filter1047"
       x="-0.0088733584"
       width="1.0177467"
       y="-0.039929487"
       height="1.079859">
      <feGaussianBlur
         result="fbSourceGraphic"
         inkscape:collect="always"
         stdDeviation="0.047161868"
         id="feGaussianBlur1049" />
      <feColorMatrix
         id="feColorMatrix1170"
         values="0 0 0 -1 0 0 0 0 -1 0 0 0 0 -1 0 0 0 0 1 0"
         in="fbSourceGraphic"
         result="fbSourceGraphicAlpha" />
      <feColorMatrix
         in="fbSourceGraphic"
         result="result91"
         values="1"
         type="saturate"
         id="feColorMatrix1172" />
      <feComposite
         k4="0"
         k3="0.3"
         k1="0.3"
         k2="0.4"
         operator="arithmetic"
         result="result15"
         id="feComposite1174"
         in2="result91" />
      <feGaussianBlur
         stdDeviation="5"
         result="result8"
         in="result15"
         id="feGaussianBlur1176" />
      <feColorMatrix
         result="result92"
         values="1 0 0 0 0 0 1 0 0 0 0 0 1 0 0 0 0 0 50 0 "
         id="feColorMatrix1178" />
      <feComposite
         result="result13"
         operator="in"
         id="feComposite1180"
         in2="fbSourceGraphic" />
      <feComposite
         k4="0"
         result="result6"
         in="result15"
         operator="arithmetic"
         k2="0.4"
         k1="0.3"
         k3="0.3"
         id="feComposite1182"
         in2="result13" />
      <feFlood
         result="result10"
         flood-opacity="1"
         flood-color="rgb(128,172,0)"
         id="feFlood1184" />
      <feBlend
         mode="darken"
         in="result6"
         result="result12"
         id="feBlend1186"
         in2="result10" />
      <feBlend
         mode="screen"
         result="result14"
         id="feBlend1188"
         in2="result6" />
      <feComposite
         operator="in"
         in="result14"
         id="feComposite1190"
         in2="fbSourceGraphic" />
    </filter>
    <linearGradient
       gradientUnits="userSpaceOnUse"
       y2="210.40894"
       x2="273.16302"
       y1="210.40894"
       x1="258.43655"
       id="linearGradient1080"
       xlink:href="#linearGradient1078"
       inkscape:collect="always" />
    <filter
       id="filter1102"
       style="color-interpolation-filters:sRGB"
       inkscape:menu-tooltip="Adds a colorizable edges glow inside objects and pictures"
       inkscape:menu="Color"
       inkscape:label="Soft Colors">
      <feColorMatrix
         id="feColorMatrix1082"
         result="result91"
         values="1"
         type="saturate" />
      <feComposite
         k4="0"
         id="feComposite1084"
         k3="0.3"
         k1="0.3"
         k2="0.4"
         operator="arithmetic"
         result="result15"
         in2="result91" />
      <feGaussianBlur
         id="feGaussianBlur1086"
         stdDeviation="5"
         result="result8"
         in="result15" />
      <feColorMatrix
         id="feColorMatrix1088"
         values="1 0 0 0 0 0 1 0 0 0 0 0 1 0 0 0 0 0 50 0 " />
      <feComposite
         id="feComposite1090"
         result="result13"
         operator="in"
         in2="SourceGraphic" />
      <feComposite
         k4="0"
         id="feComposite1092"
         result="result6"
         in="result15"
         operator="arithmetic"
         k2="0.4"
         k1="0.3"
         k3="0.3"
         in2="result13" />
      <feFlood
         id="feFlood1094"
         result="result10"
         flood-opacity="1"
         flood-color="rgb(128,172,0)" />
      <feBlend
         id="feBlend1096"
         mode="darken"
         in="result6"
         result="result12"
         in2="result10" />
      <feBlend
         id="feBlend1098"
         mode="screen"
         result="result14"
         in2="result6" />
      <feComposite
         id="feComposite1100"
         operator="in"
         in="result14"
         in2="SourceGraphic" />
    </filter>
    <filter
       id="filter1124"
       style="color-interpolation-filters:sRGB"
       inkscape:menu-tooltip="Adds a colorizable edges glow inside objects and pictures"
       inkscape:menu="Color"
       inkscape:label="Soft Colors">
      <feColorMatrix
         id="feColorMatrix1104"
         result="result91"
         values="1"
         type="saturate" />
      <feComposite
         k4="0"
         id="feComposite1106"
         k3="0.3"
         k1="0.3"
         k2="0.4"
         operator="arithmetic"
         result="result15"
         in2="result91" />
      <feGaussianBlur
         id="feGaussianBlur1108"
         stdDeviation="5"
         result="result8"
         in="result15" />
      <feColorMatrix
         id="feColorMatrix1110"
         values="1 0 0 0 0 0 1 0 0 0 0 0 1 0 0 0 0 0 50 0 " />
      <feComposite
         id="feComposite1112"
         result="result13"
         operator="in"
         in2="SourceGraphic" />
      <feComposite
         k4="0"
         id="feComposite1114"
         result="result6"
         in="result15"
         operator="arithmetic"
         k2="0.4"
         k1="0.3"
         k3="0.3"
         in2="result13" />
      <feFlood
         id="feFlood1116"
         result="result10"
         flood-opacity="1"
         flood-color="rgb(128,172,0)" />
      <feBlend
         id="feBlend1118"
         mode="darken"
         in="result6"
         result="result12"
         in2="result10" />
      <feBlend
         id="feBlend1120"
         mode="screen"
         result="result14"
         in2="result6" />
      <feComposite
         id="feComposite1122"
         operator="in"
         in="result14"
         in2="SourceGraphic" />
    </filter>
    <filter
       id="filter1146"
       style="color-interpolation-filters:sRGB"
       inkscape:menu-tooltip="Adds a colorizable edges glow inside objects and pictures"
       inkscape:menu="Color"
       inkscape:label="Soft Colors">
      <feColorMatrix
         id="feColorMatrix1126"
         result="result91"
         values="1"
         type="saturate" />
      <feComposite
         k4="0"
         id="feComposite1128"
         k3="0.3"
         k1="0.3"
         k2="0.4"
         operator="arithmetic"
         result="result15"
         in2="result91" />
      <feGaussianBlur
         id="feGaussianBlur1130"
         stdDeviation="5"
         result="result8"
         in="result15" />
      <feColorMatrix
         id="feColorMatrix1132"
         values="1 0 0 0 0 0 1 0 0 0 0 0 1 0 0 0 0 0 50 0 " />
      <feComposite
         id="feComposite1134"
         result="result13"
         operator="in"
         in2="SourceGraphic" />
      <feComposite
         k4="0"
         id="feComposite1136"
         result="result6"
         in="result15"
         operator="arithmetic"
         k2="0.4"
         k1="0.3"
         k3="0.3"
         in2="result13" />
      <feFlood
         id="feFlood1138"
         result="result10"
         flood-opacity="1"
         flood-color="rgb(128,172,0)" />
      <feBlend
         id="feBlend1140"
         mode="darken"
         in="result6"
         result="result12"
         in2="result10" />
      <feBlend
         id="feBlend1142"
         mode="screen"
         result="result14"
         in2="result6" />
      <feComposite
         id="feComposite1144"
         operator="in"
         in="result14"
         in2="SourceGraphic" />
    </filter>
    <filter
       id="filter1168"
       style="color-interpolation-filters:sRGB"
       inkscape:menu-tooltip="Adds a colorizable edges glow inside objects and pictures"
       inkscape:menu="Color"
       inkscape:label="Soft Colors">
      <feColorMatrix
         id="feColorMatrix1148"
         result="result91"
         values="1"
         type="saturate" />
      <feComposite
         k4="0"
         id="feComposite1150"
         k3="0.3"
         k1="0.3"
         k2="0.4"
         operator="arithmetic"
         result="result15"
         in2="result91" />
      <feGaussianBlur
         id="feGaussianBlur1152"
         stdDeviation="5"
         result="result8"
         in="result15" />
      <feColorMatrix
         id="feColorMatrix1154"
         values="1 0 0 0 0 0 1 0 0 0 0 0 1 0 0 0 0 0 50 0 " />
      <feComposite
         id="feComposite1156"
         result="result13"
         operator="in"
         in2="SourceGraphic" />
      <feComposite
         k4="0"
         id="feComposite1158"
         result="result6"
         in="result15"
         operator="arithmetic"
         k2="0.4"
         k1="0.3"
         k3="0.3"
         in2="result13" />
      <feFlood
         id="feFlood1160"
         result="result10"
         flood-opacity="1"
         flood-color="rgb(128,172,0)" />
      <feBlend
         id="feBlend1162"
         mode="darken"
         in="result6"
         result="result12"
         in2="result10" />
      <feBlend
         id="feBlend1164"
         mode="screen"
         result="result14"
         in2="result6" />
      <feComposite
         id="feComposite1166"
         operator="in"
         in="result14"
         in2="SourceGraphic" />
    </filter>
  </defs>
  <sodipodi:namedview
     fit-margin-bottom="0.1"
     fit-margin-left="0.1"
     fit-margin-right="0.1"
     fit-margin-top="0.1"
     inkscape:document-rotation="0"
     pagecolor="#ffffff"
     bordercolor="#666666"
     borderopacity="1"
     objecttolerance="10"
     gridtolerance="10"
     guidetolerance="10"
     inkscape:pageopacity="1"
     inkscape:pageshadow="2"
     inkscape:window-width="2560"
     inkscape:window-height="1377"
     id="namedview36"
     showgrid="false"
     inkscape:zoom="8.170904"
     inkscape:cx="49.745121"
     inkscape:cy="20.210129"
     inkscape:window-x="1912"
     inkscape:window-y="-8"
     inkscape:window-maximized="1"
     inkscape:current-layer="layer4" />
  <g
     transform="translate(-258.47851,-193.23749)"
     style="display:inline;opacity:0.638695"
     inkscape:groupmode="layer"
     id="layer2"
     inkscape:label="fond" />
  <g
     transform="translate(-258.47851,-193.23749)"
     inkscape:groupmode="layer"
     id="layer1"
     inkscape:label="formes"
     style="display:inline;mix-blend-mode:normal" />
  <g
     transform="translate(-258.47851,-193.23749)"
     inkscape:groupmode="layer"
     id="layer3"
     inkscape:label="txt"
     style="display:inline;mix-blend-mode:multiply" />
  <g
     transform="translate(-258.47851,-193.23749)"
     style="display:inline"
     inkscape:label="txt 1"
     id="layer4"
     inkscape:groupmode="layer">
    <g
       transform="matrix(0.96733814,0,0,1.052396,9.8092118,-10.873302)"
       id="g1240">
      <rect
         y="205.73059"
         x="294.02411"
         height="2.8347092"
         width="12.755991"
         id="rect911"
         style="color:#000000;font-variation-settings:normal;display:inline;overflow:visible;opacity:0.638695;vector-effect:none;fill:url(#radialGradient921);fill-opacity:1;stroke:none;stroke-width:0.0375;stroke-linecap:butt;stroke-linejoin:miter;stroke-miterlimit:4;stroke-dasharray:none;stroke-dashoffset:0;stroke-opacity:1;paint-order:fill markers stroke;filter:url(#filter1047);stop-color:#000000"
         transform="matrix(6.550624,0,0,6.550624,-1667.4191,-1151.2833)" />
      <path
         style="display:inline;mix-blend-mode:normal;stroke:#000000;stroke-width:0.371374;stroke-miterlimit:4;stroke-dasharray:none;stroke-opacity:1"
         id="path2"
         fill-opacity="0"
         stroke-width="0.24"
         stroke="#808080"
         d="m 258.62223,205.66471 c 0,-6.47333 7.58758,-9.56785 14.53321,-9.2842 h -14.53256 z" />
      <path
         style="display:inline;mix-blend-mode:normal;stroke:#000000;stroke-width:0.557061;stroke-miterlimit:4;stroke-dasharray:none;stroke-opacity:1"
         id="path4"
         fill-opacity="0"
         stroke-width="0.24"
         stroke="#808080"
         d="m 300.40211,205.66471 c 2.54491,2.26651 4.15964,5.36168 3.82491,9.28485" />
      <path
         style="display:inline;mix-blend-mode:normal;stroke:#000000;stroke-width:0.557061;stroke-miterlimit:4;stroke-dasharray:none;stroke-opacity:1"
         id="path6"
         fill-opacity="0"
         stroke-width="0.24"
         stroke="#808080"
         d="m 275.44423,214.94956 c 8.45882,-0.26006 18.29982,-3.35523 24.95788,-9.28485" />
      <path
         style="display:inline;mix-blend-mode:normal;stroke:#000000;stroke-width:0.557061;stroke-miterlimit:4;stroke-dasharray:none;stroke-opacity:1"
         id="path8"
         fill-opacity="0"
         stroke-width="0.24"
         stroke="#808080"
         d="M 304.22702,214.94956 H 275.44423" />
      <path
         style="display:inline;mix-blend-mode:normal;fill:url(#linearGradient1080);fill-opacity:1;stroke:#999999;stroke-width:0.371374;stroke-miterlimit:4;stroke-dasharray:none;stroke-opacity:1;filter:url(#filter1102)"
         id="path10"
         fill-opacity="0"
         stroke-width="0.24"
         stroke="#808080"
         d="m 258.62223,205.66471 c 0,6.47398 7.58758,9.56849 14.53321,9.28485 h -14.53256 z" />
      <path
         style="display:inline;mix-blend-mode:normal;stroke:#000000;stroke-width:0.557061;stroke-miterlimit:4;stroke-dasharray:none;stroke-opacity:1"
         id="path12"
         fill-opacity="0"
         stroke-width="0.24"
         stroke="#808080"
         d="m 300.40211,205.66471 c -6.96332,6.20737 -20.88994,6.20737 -20.88994,0 0,-6.20148 13.92662,-6.20148 20.88994,0 z" />
      <path
         style="display:inline;opacity:0.655;mix-blend-mode:normal;fill:url(#linearGradient982);fill-opacity:1;stroke:#666666;stroke-width:0.928433;stroke-miterlimit:4;stroke-dasharray:none;stroke-opacity:1;filter:url(#filter1168)"
         id="path14"
         fill-opacity="0"
         stroke-width="0.24"
         stroke="#808080"
         d="m 340.87448,196.39754 -8.32126,-0.0196 c -5.85363,-0.007 -11.80946,1.13849 -17.24058,3.32051 l -14.91053,5.96369 14.91053,5.96434 c 5.43112,2.18201 11.38695,3.32903 17.24058,3.32051 v 0 l 8.32126,-0.0197 c -6.55652,-0.3485 -13.22571,-3.19867 -13.22571,-9.26783 0,-6.06849 6.66919,-8.91867 13.22571,-9.26716 z" />
      <path
         style="display:inline;mix-blend-mode:normal;stroke:#000000;stroke-width:0.557061;stroke-miterlimit:4;stroke-dasharray:none;stroke-opacity:1"
         id="path16"
         fill-opacity="0"
         stroke-width="0.24"
         stroke="#808080"
         d="m 300.40211,205.66471 c 2.54295,-2.26652 4.15702,-5.36104 3.82556,-9.2842" />
      <path
         style="display:inline;mix-blend-mode:normal;stroke:#000000;stroke-width:0.557061;stroke-miterlimit:4;stroke-dasharray:none;stroke-opacity:1"
         id="path18"
         fill-opacity="0"
         stroke-width="0.24"
         stroke="#808080"
         d="m 275.44423,196.38051 c 8.45882,0.26006 18.29982,3.35523 24.95788,9.2842" />
      <path
         style="display:inline;mix-blend-mode:normal;stroke:#000000;stroke-width:0.557061;stroke-miterlimit:4;stroke-dasharray:none;stroke-opacity:1"
         id="path20"
         fill-opacity="0"
         stroke-width="0.24"
         stroke="#808080"
         d="M 304.22767,196.38051 H 275.44423" />
      <path
         style="font-variation-settings:normal;display:inline;mix-blend-mode:normal;vector-effect:none;fill:url(#linearGradient945);fill-opacity:1;stroke:#999999;stroke-width:0.371374;stroke-linecap:butt;stroke-linejoin:miter;stroke-miterlimit:4;stroke-dasharray:none;stroke-dashoffset:0;stroke-opacity:1;filter:url(#filter1124);stop-color:#000000"
         id="path24"
         fill-opacity="0"
         stroke-width="0.24"
         stroke="#7D26CD"
         d="m 273.15544,196.38051 h -14.53321 v 9.2842 c 0,-6.47333 7.58758,-9.56785 14.53321,-9.2842 z" />
      <path
         style="font-variation-settings:normal;display:inline;mix-blend-mode:normal;vector-effect:none;fill:url(#linearGradient937);fill-opacity:1;stroke:#808080;stroke-width:0.557061;stroke-linecap:butt;stroke-linejoin:miter;stroke-miterlimit:4;stroke-dasharray:none;stroke-dashoffset:0;stroke-opacity:1;filter:url(#filter1146);stop-color:#000000"
         id="path28"
         fill-opacity="0"
         stroke-width="0.24"
         stroke="#7D26CD"
         d="m 300.40211,205.66471 c 2.54491,2.26651 4.15964,5.36168 3.82491,9.28485 h -28.78279 c 8.45882,-0.26006 18.29982,-3.35523 24.95788,-9.28485 2.54295,-2.26652 4.15702,-5.36104 3.82556,-9.2842 h -28.78344 c 8.45882,0.26006 18.29982,3.35523 24.95788,9.2842 z" />
      <path
         style="font-variation-settings:normal;display:inline;mix-blend-mode:normal;vector-effect:none;fill:url(#linearGradient974);fill-opacity:1;stroke:#ffff00;stroke-width:0.557061;stroke-linecap:butt;stroke-linejoin:miter;stroke-miterlimit:4;stroke-dasharray:none;stroke-dashoffset:0;stroke-opacity:1;stop-color:#000000"
         id="path22"
         fill-opacity="0"
         stroke-width="0.24"
         stroke="#7D26CD"
         d="m 300.40211,205.66471 c -6.96332,6.20737 -20.88994,6.20737 -20.88994,0 0,-6.20148 13.92662,-6.20148 20.88994,0 z" />
      <path
         style="display:inline;opacity:0.65;mix-blend-mode:normal;stroke:#808080;stroke-width:0.928433;stroke-miterlimit:4;stroke-dasharray:none;stroke-opacity:1"
         id="path30"
         fill-opacity="0"
         stroke-width="0.24"
         stroke="#7D26CD"
         d="m 342.18199,214.94956 c -6.94563,0 -14.53322,-2.81087 -14.53322,-9.28485 0,-6.47333 7.58759,-9.2842 14.53322,-9.2842" />
      <path
         id="path1047"
         style="font-style:normal;font-variant:normal;font-weight:bold;font-stretch:normal;font-size:25.4833px;line-height:125%;font-family:B612;-inkscape-font-specification:'B612, Bold';font-variant-ligatures:normal;font-variant-caps:normal;font-variant-numeric:normal;font-variant-east-asian:normal;letter-spacing:0px;word-spacing:0px;display:inline;opacity:0.606061;mix-blend-mode:multiply;fill:#000000;fill-opacity:1;stroke:#000000;stroke-width:0.437254;stroke-linecap:butt;stroke-linejoin:miter;stroke-miterlimit:4;stroke-dasharray:none;stroke-opacity:1"
         d="m 280.55903,206.70595 1.05173,5.85351 1.02509,-5.85351 2.1434,-5.18279 4.28679,-0.35365 -5.43171,13.6094 q -0.39939,1.01217 -0.90528,2.06093 -0.5059,1.06094 -1.17155,1.92678 -0.66565,0.86582 -1.531,1.41459 -0.85203,0.54876 -1.97032,0.54876 -0.89197,0 -1.77063,-0.34144 -0.86535,-0.34146 -1.63751,-0.9512 l 1.63751,-2.19507 q 0.30619,0.18292 0.65234,0.32926 0.34613,0.15854 0.70559,0.15854 0.57246,0 1.02509,-0.60975 0.46596,-0.60974 0.95854,-1.67068 l -5.55153,-13.90208 4.30011,-0.34146 z" />
      <path
         id="path1049"
         style="font-style:normal;font-variant:normal;font-weight:bold;font-stretch:normal;font-size:25.4833px;line-height:125%;font-family:B612;-inkscape-font-specification:'B612, Bold';font-variant-ligatures:normal;font-variant-caps:normal;font-variant-numeric:normal;font-variant-east-asian:normal;letter-spacing:0px;word-spacing:0px;display:inline;opacity:0.606061;mix-blend-mode:multiply;fill:#000000;fill-opacity:1;stroke:#000000;stroke-width:0.437254;stroke-linecap:butt;stroke-linejoin:miter;stroke-miterlimit:4;stroke-dasharray:none;stroke-opacity:1"
         d="m 299.44437,204.9499 q -0.39939,-0.35365 -0.77215,-0.56096 -0.35946,-0.20732 -0.69228,-0.31706 -0.33283,-0.10976 -0.66565,-0.13415 -0.31951,-0.0366 -0.63903,-0.0366 -0.77214,0 -1.31798,0.34145 -0.53253,0.34146 -0.87866,0.91461 -0.33282,0.56096 -0.49258,1.30484 -0.14645,0.74389 -0.14645,1.54874 0,0.84144 0.14645,1.6463 0.14644,0.79266 0.47927,1.4146 0.34613,0.62194 0.91859,0.99997 0.57246,0.36585 1.4245,0.36585 0.34613,0 0.74552,-0.0854 0.3994,-0.0854 0.79879,-0.2317 0.4127,-0.14634 0.79878,-0.34146 0.39939,-0.19512 0.74553,-0.41463 l 1.49105,2.378 q -0.97185,0.60973 -2.1567,0.97558 -1.18486,0.36584 -2.59604,0.36584 -1.79726,0 -3.14187,-0.59754 -1.34462,-0.60975 -2.2499,-1.60972 -0.90529,-0.99998 -1.35793,-2.30481 -0.45265,-1.30485 -0.45265,-2.70725 0,-1.26826 0.43934,-2.46335 0.43932,-1.19509 1.33129,-2.10971 0.90529,-0.9268 2.26322,-1.47557 1.37124,-0.56095 3.23506,-0.56095 1.43781,0 2.58272,0.43901 1.14493,0.42681 2.17003,1.46337 z" />
      <path
         id="path1051"
         style="font-style:normal;font-variant:normal;font-weight:bold;font-stretch:normal;font-size:25.4833px;line-height:125%;font-family:B612;-inkscape-font-specification:'B612, Bold';font-variant-ligatures:normal;font-variant-caps:normal;font-variant-numeric:normal;font-variant-east-asian:normal;letter-spacing:0px;word-spacing:0px;display:inline;opacity:0.606061;mix-blend-mode:multiply;fill:#000000;fill-opacity:1;stroke:#000000;stroke-width:0.437254;stroke-linecap:butt;stroke-linejoin:miter;stroke-miterlimit:4;stroke-dasharray:none;stroke-opacity:1"
         d="m 303.98412,198.05983 -0.27958,-2.69505 4.63293,-0.37803 v 14.97521 q 0,0.52438 0.0399,0.9634 0.0399,0.439 0.15975,0.75607 0.13314,0.30487 0.37277,0.4756 0.23964,0.17072 0.63903,0.17072 0.18638,0 0.37275,-0.0244 0.19971,-0.0366 0.37277,-0.0854 0.18638,-0.0488 0.33283,-0.0854 0.14644,-0.0488 0.23963,-0.0854 l 0.74553,2.40237 q -0.14645,0.0731 -0.4127,0.18293 -0.26626,0.0975 -0.62572,0.2073 -0.35945,0.0976 -0.81209,0.17074 -0.43933,0.0731 -0.93191,0.0731 -1.47775,0 -2.42297,-0.39024 -0.94522,-0.40243 -1.49106,-1.09753 -0.53251,-0.7073 -0.73221,-1.6585 -0.1997,-0.96339 -0.1997,-2.07311 z" />
      <path
         id="path1053"
         style="font-style:normal;font-variant:normal;font-weight:bold;font-stretch:normal;font-size:25.4833px;line-height:125%;font-family:B612;-inkscape-font-specification:'B612, Bold';font-variant-ligatures:normal;font-variant-caps:normal;font-variant-numeric:normal;font-variant-east-asian:normal;letter-spacing:0px;word-spacing:0px;display:inline;opacity:0.606061;mix-blend-mode:multiply;fill:#000000;fill-opacity:1;stroke:#000000;stroke-width:0.437254;stroke-linecap:butt;stroke-linejoin:miter;stroke-miterlimit:4;stroke-dasharray:none;stroke-opacity:1"
         d="m 321.28063,201.54755 4.34004,-0.40243 v 13.73135 h -4.34004 v -1.98775 l -1.47775,1.85361 q -0.26625,0.10975 -0.78547,0.2195 -0.5192,0.12195 -1.06504,0.12195 -1.25141,0 -2.13007,-0.36584 -0.87866,-0.36585 -1.43781,-1.01217 -0.55915,-0.65852 -0.82541,-1.54874 -0.25294,-0.90242 -0.25294,-1.96336 v -8.64612 l 4.34003,-0.40243 v 9.04855 q 0,1.01216 0.31952,1.6341 0.31951,0.60974 1.06505,0.60974 0.25294,0 0.54582,-0.0731 0.3062,-0.0854 0.59909,-0.21951 0.29288,-0.13414 0.57246,-0.29267 0.29289,-0.17073 0.53252,-0.34146 z" />
      <g
         id="g1067"
         transform="matrix(1.1099664,0,0,1.1099664,-28.645875,-23.681597)">
        <path
           d="m 273.55346,213.25456 q -1.34461,0.98778 -2.84898,1.4146 -1.49106,0.41462 -3.22175,0.41462 -2.06352,0 -3.70102,-0.75607 -1.6375,-0.76828 -2.78241,-2.07312 -1.14493,-1.30485 -1.75733,-3.04871 -0.59909,-1.74385 -0.59909,-3.70722 0,-1.84141 0.54584,-3.4999 0.54584,-1.6585 1.66413,-2.90236 1.13161,-1.25607 2.84898,-1.98776 1.71738,-0.73169 4.06047,-0.73169 1.71739,0 3.27501,0.54877 1.57093,0.53657 2.74248,1.56093 l -1.97033,2.1219 q -0.43933,-0.26829 -0.9186,-0.51218 -0.47927,-0.2439 -0.98516,-0.42682 -0.49258,-0.18292 -0.98516,-0.29268 -0.49258,-0.10975 -0.94523,-0.10975 -1.26474,0 -2.15671,0.49999 -0.87866,0.48779 -1.43781,1.34143 -0.55913,0.84144 -0.8254,1.97555 -0.25295,1.12193 -0.25295,2.37799 0,0.74389 0.1065,1.53654 0.11982,0.78047 0.34615,1.53655 0.23963,0.74388 0.59908,1.4024 0.37277,0.65852 0.86535,1.15851 0.50589,0.49999 1.14492,0.79267 0.63902,0.29267 1.4378,0.29267 0.45264,0 0.89198,-0.061 0.43932,-0.0732 0.91859,-0.21951 0.49258,-0.15853 1.06504,-0.40243 0.57247,-0.25609 1.29136,-0.62194 z"
           style="font-style:normal;font-variant:normal;font-weight:bold;font-stretch:normal;font-size:25.4833px;line-height:125%;font-family:B612;-inkscape-font-specification:'B612, Bold';font-variant-ligatures:normal;font-variant-caps:normal;font-variant-numeric:normal;font-variant-east-asian:normal;letter-spacing:0px;word-spacing:0px;display:inline;opacity:0.606061;mix-blend-mode:multiply;fill:#000000;fill-opacity:1;stroke:#000000;stroke-width:0.437254;stroke-linecap:butt;stroke-linejoin:miter;stroke-miterlimit:4;stroke-dasharray:none;stroke-opacity:1"
           id="path1045" />
        <path
           d="m 273.5585,213.27809 q -1.34461,0.98778 -2.84898,1.41459 -1.49107,0.41463 -3.22175,0.41463 -2.06353,0 -3.70102,-0.75608 -1.6375,-0.76828 -2.78242,-2.07311 -1.14492,-1.30485 -1.75732,-3.04871 -0.59908,-1.74385 -0.59908,-3.70722 0,-1.84142 0.54583,-3.49991 0.54583,-1.65849 1.66413,-2.90236 1.1316,-1.25606 2.84898,-1.98775 1.71737,-0.73169 4.06048,-0.73169 1.71737,0 3.27499,0.54876 1.57094,0.53658 2.74248,1.56094 l -1.97032,2.12189 q -0.43933,-0.26828 -0.9186,-0.51218 -0.47927,-0.24389 -0.98516,-0.42682 -0.49258,-0.18292 -0.98517,-0.29267 -0.49258,-0.10975 -0.94522,-0.10975 -1.26474,0 -2.15671,0.49999 -0.87865,0.48778 -1.4378,1.34142 -0.55915,0.84144 -0.82542,1.97556 -0.25294,1.12192 -0.25294,2.37799 0,0.74388 0.10651,1.53655 0.11981,0.78046 0.34613,1.53653 0.23964,0.74389 0.59909,1.40241 0.37276,0.65852 0.86534,1.15851 0.5059,0.49999 1.14492,0.79266 0.63903,0.29268 1.43781,0.29268 0.45265,0 0.89197,-0.061 0.43934,-0.0731 0.9186,-0.21951 0.49259,-0.15853 1.06505,-0.40243 0.57245,-0.25609 1.29136,-0.62193 z"
           style="font-style:normal;font-variant:normal;font-weight:bold;font-stretch:normal;font-size:25.4833px;line-height:125%;font-family:B612;-inkscape-font-specification:'B612, Bold';font-variant-ligatures:normal;font-variant-caps:normal;font-variant-numeric:normal;font-variant-east-asian:normal;letter-spacing:0px;word-spacing:0px;mix-blend-mode:multiply;fill:none;fill-opacity:1;stroke:#000000;stroke-width:0.491297;stroke-linecap:butt;stroke-linejoin:miter;stroke-miterlimit:4;stroke-dasharray:none;stroke-opacity:1"
           id="path1026" />
      </g>
      <path
         id="path1028"
         style="font-style:normal;font-variant:normal;font-weight:bold;font-stretch:normal;font-size:25.4833px;line-height:125%;font-family:B612;-inkscape-font-specification:'B612, Bold';font-variant-ligatures:normal;font-variant-caps:normal;font-variant-numeric:normal;font-variant-east-asian:normal;letter-spacing:0px;word-spacing:0px;mix-blend-mode:multiply;fill:none;fill-opacity:1;stroke:#000000;stroke-width:0.491297;stroke-linecap:butt;stroke-linejoin:miter;stroke-miterlimit:4;stroke-dasharray:none;stroke-opacity:1"
         d="m 280.56407,206.72948 1.05172,5.85351 1.02511,-5.85351 2.14339,-5.18279 4.28679,-0.35365 -5.43171,13.6094 q -0.39939,1.01217 -0.90528,2.06092 -0.5059,1.06095 -1.17155,1.92678 -0.66565,0.86583 -1.531,1.4146 -0.85203,0.54876 -1.97032,0.54876 -0.89197,0 -1.77063,-0.34145 -0.86535,-0.34146 -1.6375,-0.9512 l 1.6375,-2.19506 q 0.3062,0.18292 0.65233,0.32926 0.34614,0.15853 0.7056,0.15853 0.57245,0 1.02509,-0.60973 0.46596,-0.60975 0.95854,-1.6707 l -5.55153,-13.90207 4.30011,-0.34146 z" />
      <path
         id="path1030"
         style="font-style:normal;font-variant:normal;font-weight:bold;font-stretch:normal;font-size:25.4833px;line-height:125%;font-family:B612;-inkscape-font-specification:'B612, Bold';font-variant-ligatures:normal;font-variant-caps:normal;font-variant-numeric:normal;font-variant-east-asian:normal;letter-spacing:0px;word-spacing:0px;mix-blend-mode:multiply;fill:none;fill-opacity:1;stroke:#000000;stroke-width:0.491297;stroke-linecap:butt;stroke-linejoin:miter;stroke-miterlimit:4;stroke-dasharray:none;stroke-opacity:1"
         d="m 299.44942,204.97343 q -0.3994,-0.35365 -0.77216,-0.56097 -0.35945,-0.20731 -0.69229,-0.31706 -0.33282,-0.10975 -0.66564,-0.13414 -0.31952,-0.0366 -0.63903,-0.0366 -0.77215,0 -1.31798,0.34144 -0.53253,0.34146 -0.87866,0.91462 -0.33283,0.56096 -0.49259,1.30484 -0.14644,0.74388 -0.14644,1.54874 0,0.84145 0.14644,1.6463 0.14645,0.79266 0.47927,1.4146 0.34614,0.62193 0.9186,0.99997 0.57246,0.36584 1.42449,0.36584 0.34614,0 0.74553,-0.0854 0.39939,-0.0854 0.79878,-0.2317 0.41271,-0.14634 0.79879,-0.34146 0.39939,-0.19511 0.74552,-0.41461 l 1.49107,2.37798 q -0.97185,0.60974 -2.15672,0.97558 -1.18486,0.36585 -2.59603,0.36585 -1.79727,0 -3.14188,-0.59755 -1.34461,-0.60973 -2.2499,-1.60971 -0.90528,-0.99997 -1.35793,-2.30482 -0.45263,-1.30485 -0.45263,-2.70725 0,-1.26826 0.43932,-2.46335 0.43933,-1.19509 1.3313,-2.1097 0.90529,-0.9268 2.26321,-1.47557 1.37124,-0.56096 3.23507,-0.56096 1.4378,0 2.58273,0.43901 1.14492,0.42682 2.17001,1.46338 z" />
      <path
         id="path1032"
         style="font-style:normal;font-variant:normal;font-weight:bold;font-stretch:normal;font-size:25.4833px;line-height:125%;font-family:B612;-inkscape-font-specification:'B612, Bold';font-variant-ligatures:normal;font-variant-caps:normal;font-variant-numeric:normal;font-variant-east-asian:normal;letter-spacing:0px;word-spacing:0px;mix-blend-mode:multiply;fill:none;fill-opacity:1;stroke:#000000;stroke-width:0.491297;stroke-linecap:butt;stroke-linejoin:miter;stroke-miterlimit:4;stroke-dasharray:none;stroke-opacity:1"
         d="m 303.98915,198.08336 -0.27958,-2.69505 4.63294,-0.37804 v 14.97522 q 0,0.52438 0.0399,0.96339 0.0399,0.43902 0.15976,0.75608 0.13313,0.30487 0.37277,0.47559 0.23963,0.17074 0.63902,0.17074 0.18638,0 0.37276,-0.0244 0.1997,-0.0366 0.37277,-0.0854 0.18638,-0.0488 0.33282,-0.0854 0.14645,-0.0488 0.23964,-0.0854 l 0.74552,2.40238 q -0.14643,0.0731 -0.4127,0.18292 -0.26626,0.0976 -0.62571,0.20732 -0.35945,0.0975 -0.8121,0.17072 -0.43932,0.0732 -0.9319,0.0732 -1.47774,0 -2.42297,-0.39023 -0.94523,-0.40244 -1.49106,-1.09754 -0.53252,-0.7073 -0.73222,-1.6585 -0.19969,-0.96338 -0.19969,-2.07311 z" />
      <path
         id="path1034"
         style="font-style:normal;font-variant:normal;font-weight:bold;font-stretch:normal;font-size:25.4833px;line-height:125%;font-family:B612;-inkscape-font-specification:'B612, Bold';font-variant-ligatures:normal;font-variant-caps:normal;font-variant-numeric:normal;font-variant-east-asian:normal;letter-spacing:0px;word-spacing:0px;mix-blend-mode:multiply;fill:none;fill-opacity:1;stroke:#000000;stroke-width:0.491297;stroke-linecap:butt;stroke-linejoin:miter;stroke-miterlimit:4;stroke-dasharray:none;stroke-opacity:1"
         d="m 321.28567,201.57108 4.34004,-0.40244 V 214.9 h -4.34004 v -1.98776 l -1.47775,1.85361 q -0.26626,0.10976 -0.78546,0.21951 -0.51921,0.12195 -1.06505,0.12195 -1.25142,0 -2.13008,-0.36585 -0.87866,-0.36584 -1.43781,-1.01217 -0.55914,-0.65852 -0.8254,-1.54874 -0.25295,-0.90241 -0.25295,-1.96336 v -8.64611 l 4.34005,-0.40244 v 9.04855 q 0,1.01218 0.31951,1.63411 0.31952,0.60973 1.06504,0.60973 0.25295,0 0.54584,-0.0731 0.30619,-0.0854 0.59908,-0.2195 0.29289,-0.13415 0.57246,-0.29268 0.29289,-0.17072 0.53252,-0.34145 z" />
      <g
         id="g1072"
         transform="matrix(1.1067451,0,0,1.1067451,-36.591694,-22.96574)">
        <path
           d="m 333.8111,214.87647 h -4.67287 v -15.38984 l -0.50589,-2.63408 q 0.59908,-0.0854 1.3446,-0.15853 0.74554,-0.0854 1.50438,-0.13415 0.75884,-0.0488 1.45112,-0.0731 0.70559,-0.0366 1.22479,-0.0366 1.65082,0 3.1685,0.26828 1.51769,0.2561 2.67592,0.86583 1.15823,0.59755 1.8505,1.59753 0.69229,0.98777 0.69229,2.45115 0,1.6463 -0.62572,2.76822 -0.6257,1.12192 -1.78394,1.82922 -1.14492,0.6951 -2.7558,1.02437 -1.61087,0.32925 -3.56788,0.39023 z m 0,-13.78012 v 3.97549 q 1.0251,-0.0488 1.82388,-0.2317 0.79878,-0.19511 1.34461,-0.57315 0.55915,-0.39024 0.83873,-0.99997 0.29288,-0.62193 0.29288,-1.53655 0,-0.74388 -0.3062,-1.26826 -0.30619,-0.52437 -0.79878,-0.85364 -0.47926,-0.34145 -1.07835,-0.48779 -0.59909,-0.15853 -1.19818,-0.15853 -0.22632,0 -0.53251,0.0122 -0.29289,0.0121 -0.59909,0.0488 z"
           style="font-style:normal;font-variant:normal;font-weight:bold;font-stretch:normal;font-size:25.4833px;line-height:125%;font-family:B612;-inkscape-font-specification:'B612, Bold';font-variant-ligatures:normal;font-variant-caps:normal;font-variant-numeric:normal;font-variant-east-asian:normal;letter-spacing:0px;word-spacing:0px;display:inline;opacity:0.606061;mix-blend-mode:multiply;fill:#000000;fill-opacity:1;stroke:#000000;stroke-width:0.437254;stroke-linecap:butt;stroke-linejoin:miter;stroke-miterlimit:4;stroke-dasharray:none;stroke-opacity:1"
           id="path1055" />
        <path
           d="m 333.81613,214.9 h -4.67287 v -15.38985 l -0.50589,-2.63408 q 0.59908,-0.0854 1.34462,-0.15853 0.74553,-0.0854 1.50437,-0.13414 0.75884,-0.0488 1.45111,-0.0731 0.7056,-0.0366 1.2248,-0.0366 1.65082,0 3.16851,0.26828 1.51767,0.25609 2.67591,0.86583 1.15823,0.59754 1.85051,1.59752 0.69227,0.98778 0.69227,2.45116 0,1.64629 -0.6257,2.76821 -0.62572,1.12193 -1.78396,1.82923 -1.14491,0.69511 -2.75579,1.02436 -1.61087,0.32927 -3.56789,0.39023 z m 0,-13.78013 v 3.97551 q 1.02511,-0.0488 1.82389,-0.23171 0.79878,-0.19511 1.34461,-0.57315 0.55915,-0.39024 0.83873,-0.99998 0.29288,-0.62193 0.29288,-1.53655 0,-0.74388 -0.30619,-1.26825 -0.30621,-0.52438 -0.79879,-0.85363 -0.47927,-0.34146 -1.07836,-0.4878 -0.59908,-0.15853 -1.19817,-0.15853 -0.22631,0 -0.53252,0.0121 -0.29289,0.0122 -0.59909,0.0488 z"
           style="font-style:normal;font-variant:normal;font-weight:bold;font-stretch:normal;font-size:25.4833px;line-height:125%;font-family:B612;-inkscape-font-specification:'B612, Bold';font-variant-ligatures:normal;font-variant-caps:normal;font-variant-numeric:normal;font-variant-east-asian:normal;letter-spacing:0px;word-spacing:0px;mix-blend-mode:multiply;fill:none;fill-opacity:1;stroke:#000000;stroke-width:0.491297;stroke-linecap:butt;stroke-linejoin:miter;stroke-miterlimit:4;stroke-dasharray:none;stroke-opacity:1"
           id="path1036" />
      </g>
    </g>
  </g>
</svg>
