<svg xmlns="http://www.w3.org/2000/svg" xmlns:xlink="http://www.w3.org/1999/xlink" xml:space="preserve" viewBox="0 0 226 312" y="0" x="0" id="svg2" version="1.1" enable-background="new 0 0 226 312"><defs id="defs3893"><linearGradient id="linearGradient1149"><stop id="stop1145" offset="0" stop-color="#008dff" stop-opacity="1"/><stop id="stop1147" offset="1" stop-color="#008dff" stop-opacity="0"/></linearGradient><linearGradient id="linearGradient1141"><stop id="stop1137" offset="0" stop-color="#0ff" stop-opacity="1"/><stop id="stop1139" offset="1" stop-color="#0ff" stop-opacity="0"/></linearGradient><linearGradient id="linearGradient1135"><stop offset="0" id="stop1131" stop-color="red" stop-opacity="1"/><stop offset="1" id="stop1133" stop-color="#efa" stop-opacity="1"/></linearGradient><linearGradient id="linearGradient975"><stop id="stop971" offset="0" stop-color="#b3b3b3" stop-opacity="1"/><stop id="stop973" offset="1" stop-color="#b3b3b3" stop-opacity="0"/></linearGradient><linearGradient id="linearGradient967"><stop id="stop963" offset="0" stop-color="#000" stop-opacity="1"/><stop id="stop965" offset="1" stop-color="#000" stop-opacity="0"/></linearGradient><linearGradient id="linearGradient951"><stop id="stop947" offset="0" stop-color="#00f" stop-opacity="1"/><stop id="stop949" offset="1" stop-color="#00f" stop-opacity="0"/></linearGradient><linearGradient gradientUnits="userSpaceOnUse" y2="111.804" x2="471.171" y1="118.438" x1="340.504" id="linearGradient953" xlink:href="#linearGradient951"/><linearGradient y2="164.849" x2="479.18" y1="97.852" x1="330.58" gradientUnits="userSpaceOnUse" id="linearGradient955" xlink:href="#linearGradient951"/><linearGradient y2="164.849" x2="479.18" y1="97.852" x1="330.58" gradientUnits="userSpaceOnUse" id="linearGradient957" xlink:href="#linearGradient951"/><linearGradient y2="164.849" x2="479.18" y1="97.852" x1="330.58" gradientUnits="userSpaceOnUse" id="linearGradient959" xlink:href="#linearGradient951"/><linearGradient y2="164.849" x2="479.18" y1="97.852" x1="330.58" gradientUnits="userSpaceOnUse" id="linearGradient961" xlink:href="#linearGradient951"/><linearGradient gradientUnits="userSpaceOnUse" y2="116.112" x2="290.803" y1="52.873" x1="523.591" id="linearGradient969" xlink:href="#linearGradient967"/><linearGradient gradientUnits="userSpaceOnUse" y2="27.471" x2="551.52" y1="111.576" x1="287.286" id="linearGradient977" xlink:href="#linearGradient975"/><linearGradient y2="114.344" x2="443.354" y1="18.954" x1="312.624" gradientUnits="userSpaceOnUse" id="linearGradient1121" xlink:href="#linearGradient1135"/><linearGradient gradientUnits="userSpaceOnUse" y2="66.288" x2="507.522" y1="66.288" x1="358.826" id="linearGradient1143" xlink:href="#linearGradient1141"/><linearGradient gradientUnits="userSpaceOnUse" y2="111.804" x2="471.171" y1="136.22" x1="345.921" id="linearGradient1151" xlink:href="#linearGradient1149"/><filter height="1.04" y="-.02" width="1.019" x="-.009" id="filter1099" color-interpolation-filters="sRGB"><feGaussianBlur id="feGaussianBlur1101" stdDeviation=".563"/></filter><path id="rect885" d="M259.124 19.419h307.672v291.894H259.124z"/></defs><style id="style3825" type="text/css"/><g id="layer3" display="inline"><rect ry="13.415" y="29.343" x="356.257" height="75.889" width="153.759" id="rect937" color="#000" overflow="visible" opacity="1" fill="url(#linearGradient1121)" fill-opacity="1" stroke="url(#linearGradient977)" stroke-width="1.244" stroke-linecap="round" stroke-linejoin="round" stroke-miterlimit="4" stroke-dasharray="none" stroke-opacity="1" paint-order="fill markers stroke" stop-color="#000"/></g><g id="layer2" display="inline"><g id="g924" fill="url(#linearGradient1143)" stroke="url(#linearGradient969)" stroke-width="1.4" stroke-miterlimit="4" stroke-dasharray="none" filter="url(#filter1099)" fill-opacity="1" font-style="normal" font-weight="400" font-size="90" font-family="sans-serif" letter-spacing="0" word-spacing="0" stroke-linecap="butt" stroke-linejoin="miter" stroke-opacity="1"><path style="line-height:125%;white-space:pre" id="path889" d="M413.087 38.492v9.36q-4.483-4.174-9.58-6.24-5.054-2.065-10.767-2.065-11.25 0-17.226 6.9-5.977 6.855-5.977 19.863 0 12.963 5.977 19.863 5.976 6.855 17.226 6.855 5.713 0 10.767-2.065 5.097-2.066 9.58-6.24v9.272q-4.658 3.164-9.888 4.746-5.185 1.582-10.986 1.582-14.898 0-23.467-9.096-8.57-9.141-8.57-24.917 0-15.82 8.57-24.917 8.57-9.141 23.467-9.141 5.889 0 11.074 1.582 5.23 1.538 9.8 4.658z"/><path style="line-height:125%;white-space:pre" id="path899" d="M472.685 40.733v24.654h11.162q6.196 0 9.58-3.208 3.384-3.208 3.384-9.14 0-5.89-3.384-9.098-3.384-3.208-9.58-3.208zm-8.877-7.295h20.039q11.03 0 16.655 5.01 5.669 4.966 5.669 14.59 0 9.712-5.67 14.678-5.624 4.966-16.654 4.966h-11.162v26.367h-8.877z"/></g></g><g style="mix-blend-mode:normal" id="layer1" display="inline"><g transform="matrix(.74876 -.01235 .01138 .8127 120.394 -42.793)" id="g918" opacity=".683" fill="url(#linearGradient953)" fill-opacity="1" stroke="url(#linearGradient1151)" stroke-opacity="1" font-style="normal" font-weight="400" font-size="90" font-family="sans-serif" letter-spacing="0" word-spacing="0" stroke-width=".75" stroke-linecap="butt" stroke-linejoin="miter"><path style="line-height:125%;white-space:pre" id="path891" d="M366.19 158.27q-2.57 6.591-5.01 8.602-2.438 2.01-6.525 2.01h-4.845v-5.076h3.56q2.504 0 3.888-1.186 1.385-1.187 3.066-5.603l1.087-2.769-14.93-36.32h6.427l11.535 28.872 11.536-28.873h6.427z" fill="url(#linearGradient955)"/><path style="line-height:125%;white-space:pre" id="path893" d="M417.343 119.345v5.669q-2.571-1.418-5.175-2.11-2.57-.725-5.207-.725-5.9 0-9.163 3.758-3.263 3.724-3.263 10.48 0 6.757 3.263 10.514 3.263 3.725 9.163 3.725 2.636 0 5.207-.692 2.604-.725 5.175-2.143v5.603q-2.538 1.187-5.274 1.78-2.702.593-5.768.593-8.338 0-13.25-5.24-4.91-5.24-4.91-14.14 0-9.03 4.944-14.205 4.977-5.174 13.612-5.174 2.801 0 5.471.593 2.67.56 5.175 1.714z" fill="url(#linearGradient957)"/><path style="line-height:125%;white-space:pre" id="path895" d="M427.955 103.557h6.065v51.285h-6.065z" fill="url(#linearGradient959)"/><path style="line-height:125%;white-space:pre" id="path897" d="M446.05 140.274v-22.347h6.064v22.116q0 5.24 2.044 7.877 2.043 2.604 6.13 2.604 4.911 0 7.746-3.131 2.867-3.131 2.867-8.537v-20.929h6.064v36.915h-6.064v-5.67q-2.208 3.362-5.142 5.01-2.9 1.615-6.756 1.615-6.361 0-9.657-3.955-3.296-3.955-3.296-11.568z" fill="url(#linearGradient961)"/></g></g></svg>