<svg xmlns="http://www.w3.org/2000/svg" xmlns:xlink="http://www.w3.org/1999/xlink" viewBox="0 0 263.062 96.558" height="364.944" width="994.251"><defs><linearGradient xlink:href="#a" id="c" gradientUnits="userSpaceOnUse" x1="-390.019" y1="-32.434" x2="-163.683" y2="-67.406"/><linearGradient id="a"><stop offset="0" stop-color="#00461f"/><stop offset="1" stop-color="#6aab29"/></linearGradient><path id="b" d="M-385.659-79.583h265.556v62.142h-265.556z"/></defs><text style="line-height:125%;-inkscape-font-specification:'Bahnschrift, @wght=700,wdth=100.0';font-variation-settings:'wdth' 100,'wght' 700;white-space:pre;shape-inside:url(#b);mix-blend-mode:normal" transform="translate(402.436 98.118)" font-size="50.8" font-family="Bahnschrift" letter-spacing="9.26" word-spacing="0" fill="url(#c)" stroke-width=".265"><tspan x="-385.658" y="-32.9"><tspan style="-inkscape-font-specification:'Myriad Pro Bold';font-variant-ligatures:normal;font-variant-caps:normal;font-variant-numeric:normal;font-variant-east-asian:normal" font-weight="700" font-family="Myriad Pro">CYCLUP</tspan></tspan></text><path style="font-variation-settings:normal" d="M168.108 3l10.45 10.17-10.137 10.416M74.86 82.852l-62.05-.168C7.373 82.67 3 78.31 3 72.876V22.751a9.787 9.787 0 019.808-9.809l164.232-.02" fill="none" stroke="#00461f" stroke-width="6" stroke-linecap="round" stroke-linejoin="round" paint-order="fill markers stroke"/><path style="font-variation-settings:normal" d="M104.33 93.558l-9.683-10.904 10.868-9.65m95.969-60.062h48.77a9.787 9.787 0 019.808 9.809v50.125a9.787 9.787 0 01-9.808 9.808l-150.983.106" fill="none" stroke="#6aab29" stroke-width="6" stroke-linecap="round" stroke-linejoin="round" paint-order="fill markers stroke"/></svg>