<svg xmlns="http://www.w3.org/2000/svg" viewBox="0 0 103.551 21.472" height="81.153" width="391.375"><defs><path id="a" d="M32.192 94.645h142.289v66.316H32.192z"/><path id="c" d="M32.192 94.645h142.289v66.316H32.192z"/><filter height="1.17" y="-.085" width="1.033" x="-.016" id="b" color-interpolation-filters="sRGB"><feGaussianBlur stdDeviation=".652"/></filter></defs><g transform="translate(2.078 1.346)"><path style="font-variation-settings:normal;isolation:auto;solid-color:#000;solid-opacity:1" color="#000" overflow="visible" opacity=".3" fill="#e6e6e6" paint-order="fill markers stroke" enable-background="accumulate" d="M-2.078-1.346h103.551V19.89H-2.078z"/><path style="font-variation-settings:normal;isolation:auto;solid-color:#000;solid-opacity:1" d="M6.974 18.575c-2.29-.267-4.469-.907-6-3.475-1.353-2.267-1.355-8.622.182-11.42C2.731.813 5.038.355 7.77.19c.502-.03 2.38.027 3.35.316 14.825 4.402 38.927 8.848 38.927 8.848s-26.775 6.615-38.435 8.95c-1.415.283-3.069.454-4.637.27z" color="#000" overflow="visible" opacity=".6" fill="none" stroke="#c8b7b7" stroke-width="1.467" stroke-linecap="round" stroke-linejoin="round" paint-order="fill markers stroke" enable-background="accumulate"/><path d="M92.265.797c2.292.243 4.474.842 6.021 3.29 1.366 2.162 1.407 8.24-.114 10.927-1.558 2.75-3.862 3.201-6.592 3.375-.502.032-2.38-.012-3.352-.282-14.851-4.127-38.182-8.753-38.182-8.753s25.938-5.97 37.583-8.27c1.414-.28 3.067-.453 4.636-.287z" style="isolation:auto;solid-color:#000;solid-opacity:1" color="#000" overflow="visible" opacity=".6" fill="none" stroke="#c8b7b7" stroke-width="1.467" stroke-linecap="round" stroke-linejoin="round" paint-order="fill markers stroke" enable-background="accumulate"/><ellipse style="isolation:auto;solid-color:#000;solid-opacity:1" cx="49.684" cy="9.499" rx="5.199" ry="5.402" color="#000" overflow="visible" opacity=".6" fill="none" stroke="#c8b7b7" stroke-width=".967" stroke-linecap="round" stroke-linejoin="round" paint-order="fill markers stroke" enable-background="accumulate"/><ellipse ry="8.782" rx="8.451" cy="9.533" cx="8.751" style="isolation:auto;solid-color:#000;solid-opacity:1" color="#000" overflow="visible" opacity=".6" fill="none" stroke="#c8b7b7" stroke-width="1.572" stroke-linecap="round" stroke-linejoin="round" paint-order="fill markers stroke" enable-background="accumulate"/><ellipse style="isolation:auto;solid-color:#000;solid-opacity:1" cx="90.772" cy="9.533" rx="8.451" ry="8.782" color="#000" overflow="visible" opacity=".6" fill="none" stroke="#c8b7b7" stroke-width="1.572" stroke-linecap="round" stroke-linejoin="round" paint-order="fill markers stroke" enable-background="accumulate"/><text style="line-height:100%;-inkscape-font-specification:'Bahnschrift Bold';white-space:pre;shape-inside:url(#a)" transform="matrix(1.04323 0 0 .99448 -34.97 -95.262)" font-weight="700" font-size="23.813" font-family="Bahnschrift" letter-spacing="0" word-spacing="0" fill="#483737" stroke="#483737" stroke-width=".265" filter="url(#b)"><tspan x="32.191" y="114.166"><tspan style="-inkscape-font-specification:'Alef, Bold';font-variant-ligatures:normal;font-variant-caps:normal;font-variant-numeric:normal;font-variant-east-asian:normal" font-size="25.4" font-family="Alef">CYCLUP</tspan></tspan></text><text transform="matrix(1.04323 0 0 .99448 -34.97 -95.262)" style="line-height:100%;-inkscape-font-specification:'Bahnschrift Bold';white-space:pre;shape-inside:url(#c)" font-weight="700" font-size="23.813" font-family="Bahnschrift" letter-spacing="0" word-spacing="0" fill="none" stroke="#000" stroke-width=".529" stroke-linecap="round" stroke-linejoin="round" paint-order="fill markers stroke"><tspan x="32.191" y="114.166"><tspan style="-inkscape-font-specification:'Alef, Bold';font-variant-ligatures:normal;font-variant-caps:normal;font-variant-numeric:normal;font-variant-east-asian:normal" font-size="25.4" font-family="Alef">CYCLUP</tspan></tspan></text></g></svg>