<?xml version="1.0" standalone="no"?>
<svg id="SvgjsSvg1001" width="600" height="600" xmlns="http://www.w3.org/2000/svg" version="1.1" xmlns:xlink="http://www.w3.org/1999/xlink" xmlns:svgjs="http://svgjs.com/svgjs" class="svg-paper" viewBox="0 0 600 600"><title id="SvgjsTitle1917">x=cos((y/y+y/y))|y=y|dTest=0.0|sd=0.31|sm=0.2|ts=0.05 | generated with FlowLines</title><g id="SvgjsG1918"><polyline id="SvgjsPolyline1919" points="599.69,300 218.69,300.01 149.69,300.3 122.7,301.04 104.75,302.36 89.93,304.62 78.37,307.8 70.09,311.32 64.88,314.29 57.68,319.67 51.3,326.01 45.74,333.09 39.45,343.3 34.19,354.08 29.72,365.21 24.98,379.44 20.95,393.89 16.79,411.4 13.21,429.04 9.58,449.72 5.97,473.45 0,521.08" fill="none" stroke="#000000" stroke-width="1"/><polyline id="SvgjsPolyline1920" points="599.69,318.6 592.86,324.45 586.83,331.13 581.57,338.43 575.59,348.82 570.56,359.72 566.27,370.92 561.69,385.2 557.77,399.68 553.73,417.22 550.22,434.87 546.66,455.57 543.11,479.3 540,503.1 536.26,535.89 530.38,598.61" fill="none" stroke="#000000" stroke-width="1"/><polyline id="SvgjsPolyline1921" points="599.69,281.4 592.86,275.55 586.83,268.87 581.57,261.57 575.59,251.18 570.56,240.28 566.27,229.08 561.69,214.8 557.77,200.32 553.73,182.78 550.22,165.13 546.66,144.43 543.11,120.7 540,96.9 536.26,64.11 530.38,1.39" fill="none" stroke="#000000" stroke-width="1"/><polyline id="SvgjsPolyline1922" points="599.45,305.6 593.68,307.26 588.06,309.36 580.04,313.42 575.05,316.75 570.33,320.45 565.86,324.45 561.75,328.82 558,333.5 554.57,338.43 548.59,348.82 542.43,362.49 537.35,376.6 532.27,393.87 527.36,414.29 522.68,437.82 518.72,461.49 514.9,488.22 510.89,520.98 507.14,556.78 503.38,598.61" fill="none" stroke="#000000" stroke-width="1"/><polyline id="SvgjsPolyline1923" points="599.45,294.4 593.68,292.74 588.06,290.64 580.04,286.58 575.05,283.25 570.33,279.55 565.86,275.55 561.75,271.18 558,266.5 554.57,261.57 548.59,251.18 542.43,237.51 537.35,223.4 532.27,206.13 527.36,185.71 522.68,162.18 518.72,138.51 514.9,111.78 510.89,79.02 507.14,43.22 503.38,1.39" fill="none" stroke="#000000" stroke-width="1"/><polyline id="SvgjsPolyline1924" points="599.13,301.66 590.16,302.5 581.25,303.75 569.55,306.38 563.85,308.26 558.33,310.59 550.5,315.02 543.33,320.45 538.86,324.45 534.75,328.82 531,333.5 527.57,338.43 522.99,346.17 516.56,359.72 510.35,376.6 504.51,396.77 498.5,423.09 493.63,449.65 488.7,482.28 484.23,518 480.14,556.78 476.38,598.61" fill="none" stroke="#000000" stroke-width="1"/><polyline id="SvgjsPolyline1925" points="599.13,298.34 590.16,297.5 581.25,296.25 569.55,293.62 563.85,291.74 558.33,289.41 550.5,284.98 543.33,279.55 538.86,275.55 534.75,271.18 531,266.5 527.57,261.57 522.99,253.83 516.56,240.28 510.35,223.4 504.51,203.23 498.5,176.91 493.63,150.35 488.7,117.72 484.23,82 480.14,43.22 476.38,1.39" fill="none" stroke="#000000" stroke-width="1"/><polyline id="SvgjsPolyline1926" points="599.1,300.49 575.12,301.45 557.22,303.28 548.36,304.9 542.55,306.38 536.85,308.26 531.33,310.59 526.04,313.42 521.05,316.75 514.05,322.4 509.76,326.59 505.83,331.13 502.25,335.94 498.98,340.96 494.59,348.82 490.75,356.96 487.34,365.29 484.29,373.76 480.69,385.2 474.67,408.43 468.68,437.82 463.38,470.39 458.28,509.06 453.73,550.81 449.38,598.61" fill="none" stroke="#000000" stroke-width="1"/><polyline id="SvgjsPolyline1927" points="599.1,299.51 575.12,298.55 557.22,296.72 548.36,295.1 542.55,293.62 536.85,291.74 531.33,289.41 526.04,286.58 521.05,283.25 514.05,277.6 509.76,273.41 505.83,268.87 502.25,264.06 498.98,259.04 494.59,251.18 490.75,243.04 487.34,234.71 484.29,226.24 480.69,214.8 474.67,191.57 468.68,162.18 463.38,129.61 458.28,90.94 453.73,49.19 449.38,1.39" fill="none" stroke="#000000" stroke-width="1"/><polyline id="SvgjsPolyline1928" points="599.09,300.14 566.1,300.64 545.13,301.66 536.16,302.5 527.25,303.75 518.45,305.6 512.68,307.26 507.06,309.36 501.65,311.94 496.5,315.02 489.33,320.45 484.86,324.45 480.75,328.82 477,333.5 471.98,340.96 467.59,348.82 462.56,359.72 458.27,370.92 455.43,379.46 449.05,402.59 442.77,431.92 436.82,467.43 432,503.1 427.33,544.84 422.38,598.61" fill="none" stroke="#000000" stroke-width="1"/><polyline id="SvgjsPolyline1929" points="599.09,299.86 566.1,299.36 545.13,298.34 536.16,297.5 527.25,296.25 518.45,294.4 512.68,292.74 507.06,290.64 501.65,288.06 496.5,284.98 489.33,279.55 484.86,275.55 480.75,271.18 477,266.5 471.98,259.04 467.59,251.18 462.56,240.28 458.27,229.08 455.43,220.54 449.05,197.41 442.77,168.08 436.82,132.57 432,96.9 427.33,55.16 422.38,1.39" fill="none" stroke="#000000" stroke-width="1"/><polyline id="SvgjsPolyline1930" points="596.09,300.05 554.09,300.32 527.11,301.11 515.13,301.91 506.19,302.87 497.3,304.29 491.45,305.6 482.85,308.26 477.33,310.59 472.04,313.42 467.05,316.75 460.05,322.4 455.76,326.59 451.83,331.13 446.57,338.43 441.99,346.17 437.97,354.22 434.43,362.49 430.29,373.76 426.69,385.2 423.51,396.77 420.67,408.43 416.91,426.03 410.72,461.49 405.74,497.15 400.33,544.84 395.38,598.61" fill="none" stroke="#000000" stroke-width="1"/><polyline id="SvgjsPolyline1931" points="590.09,299.94 551.1,299.63 524.11,298.73 506.19,297.13 497.3,295.71 491.45,294.4 482.85,291.74 477.33,289.41 472.04,286.58 467.05,283.25 460.05,277.6 455.76,273.41 451.83,268.87 446.57,261.57 441.99,253.83 437.97,245.78 434.43,237.51 430.29,226.24 426.69,214.8 423.51,203.23 420.67,191.57 416.91,173.97 410.72,138.51 405.74,102.85 400.33,55.16 395.38,1.39" fill="none" stroke="#000000" stroke-width="1"/><polyline id="SvgjsPolyline1932" points="569.09,300.05 527.09,300.32 500.11,301.11 488.13,301.91 479.19,302.87 470.3,304.29 464.45,305.6 455.85,308.26 450.33,310.59 445.04,313.42 440.05,316.75 433.05,322.4 428.76,326.59 424.83,331.13 419.57,338.43 414.99,346.17 410.97,354.22 407.43,362.49 403.29,373.76 399.69,385.2 396.51,396.77 393.67,408.43 389.91,426.03 383.72,461.49 378.74,497.15 373.33,544.84 368.38,598.61" fill="none" stroke="#000000" stroke-width="1"/><polyline id="SvgjsPolyline1933" points="563.09,299.94 524.1,299.63 497.11,298.73 479.19,297.13 470.3,295.71 464.45,294.4 455.85,291.74 450.33,289.41 445.04,286.58 440.05,283.25 433.05,277.6 428.76,273.41 424.83,268.87 419.57,261.57 414.99,253.83 410.97,245.78 407.43,237.51 403.29,226.24 399.69,214.8 396.51,203.23 393.67,191.57 389.91,173.97 383.72,138.51 378.74,102.85 373.33,55.16 368.38,1.39" fill="none" stroke="#000000" stroke-width="1"/><polyline id="SvgjsPolyline1934" points="542.09,300.05 500.09,300.32 473.11,301.11 461.13,301.91 452.19,302.87 443.3,304.29 437.45,305.6 428.85,308.26 423.33,310.59 418.04,313.42 413.05,316.75 406.05,322.4 401.76,326.59 397.83,331.13 392.57,338.43 387.99,346.17 383.97,354.22 380.43,362.49 376.29,373.76 372.69,385.2 369.51,396.77 366.67,408.43 362.91,426.03 356.72,461.49 351.74,497.15 346.33,544.84 341.38,598.61" fill="none" stroke="#000000" stroke-width="1"/><polyline id="SvgjsPolyline1935" points="536.09,299.94 497.1,299.63 470.11,298.73 452.19,297.13 443.3,295.71 437.45,294.4 428.85,291.74 423.33,289.41 418.04,286.58 413.05,283.25 406.05,277.6 401.76,273.41 397.83,268.87 392.57,261.57 387.99,253.83 383.97,245.78 380.43,237.51 376.29,226.24 372.69,214.8 369.51,203.23 366.67,191.57 362.91,173.97 356.72,138.51 351.74,102.85 346.33,55.16 341.38,1.39" fill="none" stroke="#000000" stroke-width="1"/><polyline id="SvgjsPolyline1936" points="515.09,300.05 473.09,300.32 446.11,301.11 434.13,301.91 425.19,302.87 416.3,304.29 410.45,305.6 401.85,308.26 396.33,310.59 391.04,313.42 386.05,316.75 379.05,322.4 374.76,326.59 370.83,331.13 365.57,338.43 360.99,346.17 356.97,354.22 353.43,362.49 349.29,373.76 345.69,385.2 342.51,396.77 339.67,408.43 335.91,426.03 329.72,461.49 324.74,497.15 319.33,544.84 314.38,598.61" fill="none" stroke="#000000" stroke-width="1"/><polyline id="SvgjsPolyline1937" points="509.09,299.94 470.1,299.63 443.11,298.73 425.19,297.13 416.3,295.71 410.45,294.4 401.85,291.74 396.33,289.41 391.04,286.58 386.05,283.25 379.05,277.6 374.76,273.41 370.83,268.87 365.57,261.57 360.99,253.83 356.97,245.78 353.43,237.51 349.29,226.24 345.69,214.8 342.51,203.23 339.67,191.57 335.91,173.97 329.72,138.51 324.74,102.85 319.33,55.16 314.38,1.39" fill="none" stroke="#000000" stroke-width="1"/><polyline id="SvgjsPolyline1938" points="488.09,300.05 446.09,300.32 419.11,301.11 407.13,301.91 398.19,302.87 389.3,304.29 383.45,305.6 374.85,308.26 369.33,310.59 364.04,313.42 359.05,316.75 352.05,322.4 347.76,326.59 343.83,331.13 338.57,338.43 333.99,346.17 329.97,354.22 326.43,362.49 322.29,373.76 318.69,385.2 315.51,396.77 312.67,408.43 308.91,426.03 302.72,461.49 297.74,497.15 292.33,544.84 287.38,598.61" fill="none" stroke="#000000" stroke-width="1"/><polyline id="SvgjsPolyline1939" points="482.09,299.94 443.1,299.63 416.11,298.73 398.19,297.13 389.3,295.71 383.45,294.4 374.85,291.74 369.33,289.41 364.04,286.58 359.05,283.25 352.05,277.6 347.76,273.41 343.83,268.87 338.57,261.57 333.99,253.83 329.97,245.78 326.43,237.51 322.29,226.24 318.69,214.8 315.51,203.23 312.67,191.57 308.91,173.97 302.72,138.51 297.74,102.85 292.33,55.16 287.38,1.39" fill="none" stroke="#000000" stroke-width="1"/><polyline id="SvgjsPolyline1940" points="461.09,300.05 419.09,300.32 392.11,301.11 380.13,301.91 371.19,302.87 362.3,304.29 356.45,305.6 347.85,308.26 342.33,310.59 337.04,313.42 332.05,316.75 325.05,322.4 320.76,326.59 316.83,331.13 311.57,338.43 306.99,346.17 302.97,354.22 299.43,362.49 295.29,373.76 291.69,385.2 288.51,396.77 285.67,408.43 281.91,426.03 275.72,461.5 270.74,497.15 265.33,544.84 260.38,598.61" fill="none" stroke="#000000" stroke-width="1"/><polyline id="SvgjsPolyline1941" points="455.09,299.94 416.1,299.63 389.11,298.73 371.19,297.13 362.3,295.71 356.45,294.4 347.85,291.74 342.33,289.41 337.04,286.58 332.05,283.25 325.05,277.6 320.76,273.41 316.83,268.87 311.57,261.57 306.99,253.83 302.97,245.78 299.43,237.51 295.29,226.24 291.69,214.8 288.51,203.23 285.67,191.57 281.91,173.97 275.72,138.51 270.74,102.85 265.33,55.16 260.38,1.39" fill="none" stroke="#000000" stroke-width="1"/><polyline id="SvgjsPolyline1942" points="434.09,300.05 392.09,300.32 365.11,301.11 353.14,301.91 344.19,302.87 335.3,304.29 329.45,305.6 320.85,308.26 315.33,310.59 310.04,313.42 305.05,316.75 298.05,322.4 293.76,326.6 289.83,331.13 284.57,338.43 279.99,346.17 275.98,354.22 272.43,362.49 268.29,373.76 264.69,385.2 261.51,396.77 258.67,408.43 254.91,426.03 248.72,461.5 243.74,497.15 238.33,544.84 233.38,598.61" fill="none" stroke="#000000" stroke-width="1"/><polyline id="SvgjsPolyline1943" points="428.09,299.94 389.1,299.63 362.11,298.73 344.19,297.13 335.3,295.71 329.45,294.4 320.85,291.74 315.33,289.41 310.04,286.58 305.05,283.25 298.05,277.6 293.76,273.41 289.83,268.87 284.57,261.57 279.99,253.83 275.97,245.78 272.43,237.51 268.29,226.24 264.69,214.8 261.51,203.23 258.67,191.57 254.91,173.97 248.72,138.51 243.74,102.85 238.33,55.16 233.38,1.39" fill="none" stroke="#000000" stroke-width="1"/><polyline id="SvgjsPolyline1944" points="407.09,300.05 365.1,300.32 338.11,301.11 326.14,301.91 317.19,302.87 308.3,304.29 302.45,305.6 293.85,308.26 288.33,310.59 283.04,313.42 278.05,316.75 271.05,322.4 266.76,326.6 262.83,331.13 257.57,338.43 252.99,346.17 248.98,354.22 245.43,362.49 241.29,373.76 237.69,385.2 233.77,399.68 227.34,428.98 221.27,464.46 216,503.1 211.03,547.83 206.38,598.61" fill="none" stroke="#000000" stroke-width="1"/><polyline id="SvgjsPolyline1945" points="401.09,299.94 362.09,299.63 335.11,298.73 317.19,297.14 308.3,295.71 302.45,294.4 293.85,291.74 288.33,289.41 283.04,286.58 278.05,283.25 271.05,277.6 266.76,273.41 262.83,268.87 257.57,261.58 252.99,253.83 248.97,245.78 245.43,237.51 241.29,226.25 237.69,214.8 234.51,203.23 231,188.65 227.91,173.97 222.18,141.47 216.74,102.85 211.33,55.16 206.37,1.39" fill="none" stroke="#000000" stroke-width="1"/><polyline id="SvgjsPolyline1946" points="380.09,300.05 338.1,300.32 311.11,301.11 299.14,301.91 290.19,302.87 281.3,304.29 275.45,305.6 269.69,307.27 264.07,309.36 258.65,311.94 253.51,315.03 246.33,320.45 241.86,324.46 237.76,328.83 232.25,335.94 227.45,343.55 223.26,351.51 219.57,359.72 215.28,370.93 211.55,382.33 208.28,393.88 204.68,408.44 201.51,423.1 195.66,455.57 189.75,497.15 184.34,544.85 179.38,598.62" fill="none" stroke="#000000" stroke-width="1"/><polyline id="SvgjsPolyline1947" points="374.09,299.94 335.09,299.63 308.11,298.73 290.19,297.14 281.3,295.71 275.44,294.41 266.85,291.75 261.33,289.41 256.04,286.58 251.05,283.25 244.05,277.6 239.76,273.41 235.83,268.88 230.57,261.58 225.99,253.84 221.97,245.78 218.42,237.51 214.29,226.25 209.85,211.92 206.77,200.33 203.35,185.72 200.33,171.03 194.26,135.55 188.99,96.9 184.02,52.18 179.37,1.39" fill="none" stroke="#000000" stroke-width="1"/><polyline id="SvgjsPolyline1948" points="353.1,300.05 311.1,300.32 284.11,301.11 272.14,301.91 263.19,302.87 254.31,304.29 248.45,305.6 242.69,307.27 237.07,309.37 231.66,311.95 226.51,315.03 219.33,320.46 214.87,324.46 210.76,328.84 205.26,335.95 200.46,343.56 196.27,351.53 192.58,359.73 188.29,370.94 184.57,382.35 181.29,393.89 177.69,408.45 174.52,423.11 168.68,455.59 162.76,497.17 157.05,547.84 152.4,598.63" fill="none" stroke="#000000" stroke-width="1"/><polyline id="SvgjsPolyline1949" points="347.09,299.94 311.09,299.68 284.1,298.9 263.18,297.14 254.3,295.71 248.44,294.41 239.85,291.75 234.32,289.42 229.03,286.59 224.05,283.26 217.04,277.61 212.75,273.42 208.82,268.89 203.56,261.59 198.97,253.85 194.96,245.8 191.41,237.52 187.27,226.26 183.67,214.82 180.49,203.25 177.65,191.59 173.89,173.99 167.7,138.52 162.72,102.87 157.31,55.18 152.35,1.41" fill="none" stroke="#000000" stroke-width="1"/><polyline id="SvgjsPolyline1950" points="326.11,300.05 284.11,300.32 257.12,301.11 245.15,301.91 236.2,302.87 227.32,304.3 221.46,305.61 215.7,307.28 210.08,309.39 204.67,311.97 199.53,315.06 192.36,320.49 187.9,324.5 183.79,328.87 178.29,335.99 173.5,343.6 169.31,351.57 165.62,359.78 161.33,370.98 157.61,382.39 154.34,393.93 150.74,408.49 147.57,423.16 141.26,458.6 135.44,500.19 130.41,544.91 125.45,598.68" fill="none" stroke="#000000" stroke-width="1"/><polyline id="SvgjsPolyline1951" points="320.08,299.94 278.08,299.58 254.1,298.74 236.17,297.14 227.29,295.72 221.43,294.42 212.83,291.77 207.31,289.44 202.02,286.61 197.03,283.28 190.02,277.64 185.72,273.45 181.79,268.92 176.53,261.63 171.94,253.89 167.92,245.84 164.37,237.57 160.23,226.31 156.63,214.86 152.71,200.38 149.29,185.78 146.27,171.09 140.65,138.57 134.56,93.99 129.36,46.27 125.3,1.45" fill="none" stroke="#000000" stroke-width="1"/><polyline id="SvgjsPolyline1952" points="299.15,300.05 254.15,300.37 227.16,301.28 209.24,302.89 200.36,304.33 194.5,305.65 188.75,307.33 183.13,309.44 177.73,312.04 172.59,315.14 165.43,320.59 160.98,324.61 156.89,328.99 151.4,336.12 146.62,343.74 142.44,351.71 138.76,359.92 134.48,371.13 130.76,382.54 127.49,394.09 123.9,408.65 120.74,423.31 114.43,458.75 108.99,497.37 103.59,545.06 98.64,598.83" fill="none" stroke="#000000" stroke-width="1"/><polyline id="SvgjsPolyline1953" points="299.04,299.95 257.04,299.68 230.06,298.9 218.08,298.11 209.13,297.16 200.25,295.75 194.39,294.46 188.62,292.8 183,290.72 177.57,288.16 172.42,285.09 165.22,279.7 160.74,275.71 156.62,271.35 151.09,264.25 146.28,256.65 142.07,248.69 138.37,240.49 134.07,229.29 130.33,217.89 127.05,206.35 123.44,191.79 120.27,177.13 114.41,144.65 108.49,103.08 103.38,58.37 98.11,1.61" fill="none" stroke="#000000" stroke-width="1"/><polyline id="SvgjsPolyline1954" points="598.92,300 286.92,299.98 241.92,299.82 214.92,299.38 190.96,298.16 182.01,297.23 173.11,295.85 164.35,293.82 158.63,292 153.08,289.72 147.76,286.95 142.74,283.68 137.96,280.04 133.45,276.09 127.36,269.48 120.42,259.7 114.63,249.19 109.75,238.23 104.62,224.14 100.29,209.78 95.88,192.33 91.52,171.79 87.79,151.12 83.67,124.44 79.76,94.69 77.02,70.85 73.39,35.04 70.47,2.17" fill="none" stroke="#000000" stroke-width="1"/><polyline id="SvgjsPolyline1955" points="599.3,300 272.3,300.04 212.3,300.66 191.33,301.73 182.38,302.6 173.47,303.89 164.68,305.8 158.93,307.52 153.34,309.68 147.95,312.33 140.42,317.24 131.33,325.06 125.38,331.81 118.61,341.71 112.97,352.29 108.2,363.3 103.17,377.43 98.91,391.81 94.56,409.27 90.26,429.83 86.08,453.46 82.49,477.19 78.98,503.96 75.26,536.75 69.39,599.47" fill="none" stroke="#000000" stroke-width="1"/><polyline id="SvgjsPolyline1956" points="598.51,300 256.51,299.98 187.52,299.43 163.54,298.3 154.59,297.45 145.68,296.18 136.88,294.3 131.12,292.61 125.52,290.48 120.12,287.87 114.99,284.75 110.11,281.26 103.3,275.38 97.3,268.69 92.06,261.38 86.1,250.97 81.09,240.07 75.83,226.02 70.6,208.8 66.23,191.34 62.48,173.73 58.2,150.12 54.53,126.4 50.95,99.64 47.49,69.84 44.16,37.01 40.97,1.15" fill="none" stroke="#000000" stroke-width="1"/><polyline id="SvgjsPolyline1957" points="599.93,300 257.93,300.02 188.93,300.56 164.96,301.67 156,302.51 147.09,303.76 138.28,305.61 132.52,307.28 126.9,309.38 121.49,311.97 113.9,316.78 104.81,324.61 98.81,331.31 91.97,341.16 86.27,351.72 81.46,362.71 76.39,376.82 72.11,391.2 67.07,411.58 63.41,429.2 59.22,452.83 55.61,476.56 52.09,503.33 48.67,533.14 42.47,598.84" fill="none" stroke="#000000" stroke-width="1"/><polyline id="SvgjsPolyline1958" points="597.53,300 225.53,299.98 162.53,299.57 135.56,298.52 117.66,296.65 108.81,294.99 103.01,293.48 97.32,291.57 91.81,289.2 81.42,283.22 74.32,277.7 68.01,271.29 62.49,264.18 56.22,253.96 50.97,243.17 45.48,229.22 40.06,212.05 35.55,194.63 31.11,174.11 27.82,156.41 23.57,129.75 19.55,100.02 16.08,70.22 12.75,37.39 9.55,1.53" fill="none" stroke="#000000" stroke-width="1"/><polyline id="SvgjsPolyline1959" points="598.13,300 226.13,300.03 166.13,300.52 142.15,301.56 124.27,303.53 115.44,305.27 109.65,306.84 103.99,308.84 98.52,311.3 90.82,315.94 83.88,321.66 75.83,330.55 68.9,340.33 63.12,350.84 58.24,361.8 53.11,375.9 48.78,390.26 44.37,407.71 40.01,428.25 36.28,448.91 32.59,472.63 28.62,502.36 25.19,532.17 18.97,597.87" fill="none" stroke="#000000" stroke-width="1"/><polyline id="SvgjsPolyline1960" points="278.06,300 155.06,299.92 110.06,299.36 95.07,298.73 80.13,297.49 68.27,295.69 59.49,293.69 48.07,290.03 39.94,286.19 32.39,281.31 27.76,277.5 23.48,273.29 17.73,266.38 11.19,256.32 5.73,245.64 0.05,231.76" fill="none" stroke="#000000" stroke-width="1"/><polyline id="SvgjsPolyline1961" points="597.32,300 144.32,300.09 102.32,300.62 78.36,301.86 63.47,303.66 51.75,306.22 46.04,308.06 40.5,310.34 35.05,312.86 29.85,315.85 22.61,321.18 18.21,325.26 14.17,329.69 7.11,339.39 1.24,349.84" fill="none" stroke="#000000" stroke-width="1"/><polyline id="SvgjsPolyline1962" points="598.35,300 142.35,300.17 115.35,300.59 100.36,301.18 88.39,302.03 76.49,303.49 67.65,305.21 61.86,306.77 56.2,308.74 50.72,311.19 45.5,314.13 40.59,317.58 36.03,321.48 29.91,328.07 26.27,332.84 21.42,340.42 18.54,345.68 14.67,353.8 11.24,362.12 7.16,373.41 3.55,384.85 0.36,396.42" fill="none" stroke="#000000" stroke-width="1"/><polyline id="SvgjsPolyline1963" points="599.91,344.62 595.79,352.62 592.16,360.85 588.93,369.25 585.13,380.63 578.83,403.79 572.61,433.13 567.15,465.67 561.92,504.32 556.38,555.02 552.34,599.84" fill="none" stroke="#000000" stroke-width="1"/><polyline id="SvgjsPolyline1964" points="599.91,255.38 595.79,247.38 592.16,239.15 588.93,230.75 585.13,219.37 578.83,196.21 572.61,166.87 567.15,134.33 561.92,95.68 556.38,44.98 552.34,0.16" fill="none" stroke="#000000" stroke-width="1"/><polyline id="SvgjsPolyline1965" points="195.63,299.97 150.63,299.75 126.63,299.25 108.66,298.29 93.76,296.63 82,294.26 76.25,292.55 70.65,290.41 65.25,287.79 60.14,284.65 53.1,279.05 48.88,274.8 43.22,267.8 35.18,255.15 28.62,241.66 22.29,224.82 16.36,204.68 10.28,178.38 4.85,148.87 0.38,119.21" fill="none" stroke="#000000" stroke-width="1"/><polyline id="SvgjsPolyline1966" points="114.58,298.6 99.64,297.24 87.81,295.28 76.26,292.04 68.01,288.46 60.35,283.76 55.66,280.02 51.34,275.85 45.56,268.96 39.02,258.91 33.56,248.23 27.9,234.34 22.33,217.23 17.71,199.83 13.18,179.33 8.82,155.73 4.66,129.05 0.36,96.33" fill="none" stroke="#000000" stroke-width="1"/><polyline id="SvgjsPolyline1967" points="187.15,300.08 148.15,300.46 124.17,301.38 106.26,303.12 97.39,304.67 91.56,306.08 83.04,308.94 77.58,311.43 72.38,314.42 67.5,317.9 62.98,321.85 58.83,326.18 55.06,330.84 50.02,338.29 45.63,346.15 41.78,354.29 38.38,362.62 34.4,373.94 30.92,385.42 27.84,397.02 24.43,411.62 21.42,426.32 15.36,461.8 10.1,500.44 5.13,545.17 0.18,598.94" fill="none" stroke="#000000" stroke-width="1"/><polyline id="SvgjsPolyline1968" points="597.08,300 144.08,299.99 75.08,299.67 48.09,298.88 30.15,297.46 12.39,294.58 0.83,291.39" fill="none" stroke="#000000" stroke-width="1"/><polyline id="SvgjsPolyline1969" points="135.37,300.03 72.37,300.57 57.38,301.13 42.42,302.23 30.53,303.84 18.84,306.52 10.38,309.56 2.31,313.55" fill="none" stroke="#000000" stroke-width="1"/><polyline id="SvgjsPolyline1970" points="599.75,397.02 595.61,414.54 591.48,435.13 587.92,455.82 584.38,479.56 580.55,509.31 577.54,536.15 571.66,598.87" fill="none" stroke="#000000" stroke-width="1"/><polyline id="SvgjsPolyline1971" points="599.75,202.98 595.61,185.46 591.48,164.87 587.92,144.18 584.38,120.44 580.55,90.69 577.54,63.85 571.66,1.13" fill="none" stroke="#000000" stroke-width="1"/><polyline id="SvgjsPolyline1972" points="599.73,505.62 594.52,553.34 590.46,598.16" fill="none" stroke="#000000" stroke-width="1"/><polyline id="SvgjsPolyline1973" points="599.73,94.38 594.52,46.66 590.46,1.84" fill="none" stroke="#000000" stroke-width="1"/></g></svg>