<?xml version="1.0" encoding="UTF-8" standalone="no"?>
<svg
   xmlns:dc="http://purl.org/dc/elements/1.1/"
   xmlns:cc="http://creativecommons.org/ns#"
   xmlns:rdf="http://www.w3.org/1999/02/22-rdf-syntax-ns#"
   xmlns:svg="http://www.w3.org/2000/svg"
   xmlns="http://www.w3.org/2000/svg"
   xmlns:xlink="http://www.w3.org/1999/xlink"
   xmlns:sodipodi="http://sodipodi.sourceforge.net/DTD/sodipodi-0.dtd"
   xmlns:inkscape="http://www.inkscape.org/namespaces/inkscape"
   inkscape:export-ydpi="100"
   inkscape:export-xdpi="100"
   inkscape:export-filename="E:\work\CYCLUP\site-web_cyclup.xyz\logo\200901_logo-short.png"
   height="319.5256"
   width="382.59769"
   inkscape:version="1.0 (4035a4fb49, 2020-05-01)"
   sodipodi:docname="200901_logo-short.svg"
   xml:space="preserve"
   viewBox="0 0 382.59768 319.52561"
   y="0px"
   x="0px"
   id="svg2"
   version="1.1"><metadata
     id="metadata3895"><rdf:RDF><cc:Work
         rdf:about=""><dc:format>image/svg+xml</dc:format><dc:type
           rdf:resource="http://purl.org/dc/dcmitype/StillImage" /><dc:title></dc:title></cc:Work></rdf:RDF></metadata><defs
     id="defs3893"><linearGradient
       id="linearGradient1210"
       inkscape:collect="always"><stop
         id="stop1206"
         offset="0"
         style="stop-color:#0000ff;stop-opacity:1;" /><stop
         id="stop1208"
         offset="1"
         style="stop-color:#0000ff;stop-opacity:0;" /></linearGradient><linearGradient
       inkscape:collect="always"
       id="linearGradient1135"><stop
         style="stop-color:#ff0000;stop-opacity:1"
         offset="0"
         id="stop1131" /><stop
         style="stop-color:#eeffaa;stop-opacity:1"
         offset="1"
         id="stop1133" /></linearGradient><linearGradient
       id="linearGradient975"
       inkscape:collect="always"><stop
         id="stop971"
         offset="0"
         style="stop-color:#b3b3b3;stop-opacity:1;" /><stop
         id="stop973"
         offset="1"
         style="stop-color:#b3b3b3;stop-opacity:0;" /></linearGradient><linearGradient
       gradientUnits="userSpaceOnUse"
       y2="27.471169"
       x2="551.5199"
       y1="111.57639"
       x1="287.28644"
       id="linearGradient977"
       xlink:href="#linearGradient975"
       inkscape:collect="always" /><filter
       height="1.0084851"
       y="-0.0042425701"
       width="1.0039563"
       x="-0.0019781424"
       id="filter1099"
       style="color-interpolation-filters:sRGB"
       inkscape:collect="always"><feGaussianBlur
         id="feGaussianBlur1101"
         stdDeviation="0.12033217"
         inkscape:collect="always" /></filter><linearGradient
       y2="114.34441"
       x2="443.35425"
       y1="18.954185"
       x1="312.62445"
       gradientUnits="userSpaceOnUse"
       id="linearGradient1121"
       xlink:href="#linearGradient1135"
       inkscape:collect="always" /><linearGradient
       gradientUnits="userSpaceOnUse"
       y2="52.873348"
       x2="523.59106"
       y1="66.287598"
       x1="359.88797"
       id="linearGradient1212"
       xlink:href="#linearGradient1210"
       inkscape:collect="always" /><linearGradient
       y2="52.873348"
       x2="523.59106"
       y1="66.287598"
       x1="359.88797"
       gradientUnits="userSpaceOnUse"
       id="linearGradient1214"
       xlink:href="#linearGradient1210"
       inkscape:collect="always" /><linearGradient
       y2="52.873348"
       x2="523.59106"
       y1="66.287598"
       x1="359.88797"
       gradientUnits="userSpaceOnUse"
       id="linearGradient1216"
       xlink:href="#linearGradient1210"
       inkscape:collect="always" /></defs><style
     id="style3825"
     type="text/css">
	.st0{fill-rule:evenodd;clip-rule:evenodd;fill:#D33833;}
	.st1{fill:#EF3D3A;}
	.st2{fill:#231F20;}
	.st3{fill-rule:evenodd;clip-rule:evenodd;fill:#F0D6B7;}
	.st4{fill-rule:evenodd;clip-rule:evenodd;fill:#6D6B6D;}
	.st5{fill-rule:evenodd;clip-rule:evenodd;fill:#DCD9D8;}
	.st6{fill-rule:evenodd;clip-rule:evenodd;fill:#F7E4CD;}
	.st7{fill:#F7E4CD;}
	.st8{fill-rule:evenodd;clip-rule:evenodd;fill:#F0D6B7;stroke:#231F20;stroke-width:4;stroke-miterlimit:10;}
	.st9{fill-rule:evenodd;clip-rule:evenodd;fill:#5C398E;}
	.st10{fill-rule:evenodd;clip-rule:evenodd;fill:#FFFFFF;stroke:#231F20;stroke-width:5;stroke-miterlimit:10;}
	.st11{fill:#33CCCC;stroke:#231F20;stroke-width:5;stroke-miterlimit:10;}
	.st12{fill:#D33833;stroke:#231F20;stroke-width:5;stroke-miterlimit:10;}
	.st13{fill-rule:evenodd;clip-rule:evenodd;fill:#FFFFFF;}
	.st14{fill-rule:evenodd;clip-rule:evenodd;fill:#7959AC;}
	.st15{fill-rule:evenodd;clip-rule:evenodd;fill:#231F20;}
	.st16{fill:#FFFFFF;}
	.st17{font-family:'Knockout-28JuniorFeathrwt';}
	.st18{font-size:14.7449px;}
	.st19{letter-spacing:0.6;}
</style><sodipodi:namedview
     fit-margin-right="0.2"
     fit-margin-left="0.2"
     fit-margin-top="0.2"
     fit-margin-bottom="0.2"
     inkscape:document-rotation="0"
     showgrid="false"
     pagecolor="#ffffff"
     objecttolerance="10"
     inkscape:zoom="1.6604628"
     inkscape:window-y="-8"
     inkscape:window-x="1912"
     inkscape:window-width="2560"
     inkscape:window-maximized="1"
     inkscape:window-height="1377"
     inkscape:pageshadow="2"
     inkscape:pageopacity="1"
     inkscape:cy="24.625777"
     inkscape:cx="245.27291"
     inkscape:current-layer="layer1"
     id="namedview4"
     guidetolerance="10"
     gridtolerance="10"
     borderopacity="1"
     bordercolor="#666666" /><g
     transform="translate(-245.87113,7.1964854)"
     style="display:inline;mix-blend-mode:normal"
     inkscape:label="yclu"
     id="layer1"
     inkscape:groupmode="layer"><rect
       ry="0"
       y="-6.2964854"
       x="246.77113"
       height="317.72562"
       width="380.7977"
       id="rect1235"
       style="color:#000000;overflow:visible;opacity:1;fill:#ffffff;fill-opacity:1;stroke:#ffffff;stroke-width:1.4;stroke-linecap:round;stroke-linejoin:round;stroke-miterlimit:4;stroke-dasharray:none;stroke-opacity:1;paint-order:fill markers stroke;stop-color:#000000" /><g
       id="g1233"><g
         id="g924"
         style="display:inline;mix-blend-mode:normal;fill:url(#linearGradient1212);fill-opacity:1;stroke:#000000;stroke-width:1.4;stroke-miterlimit:4;stroke-dasharray:none;stroke-opacity:1;filter:url(#filter1099)"
         transform="matrix(2.4250089,0,0,4.0727375,-614.21256,-123.64923)"><path
           d="m 413.08691,38.492187 v 9.360352 q -4.48242,-4.174805 -9.58007,-6.240234 -5.05372,-2.06543 -10.76661,-2.06543 -11.25,0 -17.22656,6.899414 -5.97656,6.855469 -5.97656,19.863281 0,12.963867 5.97656,19.863282 5.97656,6.855468 17.22656,6.855468 5.71289,0 10.76661,-2.065429 5.09765,-2.06543 9.58007,-6.240235 v 9.272461 q -4.6582,3.164063 -9.88769,4.746094 -5.18555,1.582029 -10.98633,1.582029 -14.89746,0 -23.4668,-9.096678 -8.56933,-9.140625 -8.56933,-24.916992 0,-15.820312 8.56933,-24.916992 8.56934,-9.140625 23.4668,-9.140625 5.88867,0 11.07422,1.582031 5.22949,1.538086 9.7998,4.658203 z"
           id="path889"
           style="font-style:normal;font-weight:normal;font-size:90px;line-height:125%;font-family:sans-serif;letter-spacing:0px;word-spacing:0px;white-space:pre;fill:url(#linearGradient1214);fill-opacity:1;stroke:#000000;stroke-width:1.4;stroke-linecap:butt;stroke-linejoin:miter;stroke-miterlimit:4;stroke-dasharray:none;stroke-opacity:1" /><path
           d="m 472.68457,40.733398 v 24.653321 h 11.16211 q 6.19629,0 9.58008,-3.208008 3.38379,-3.208008 3.38379,-9.140625 0,-5.888672 -3.38379,-9.09668 -3.38379,-3.208008 -9.58008,-3.208008 z m -8.87695,-7.294921 h 20.03906 q 11.03027,0 16.65527,5.009765 5.66895,4.96582 5.66895,14.589844 0,9.711914 -5.66895,14.677734 -5.625,4.965821 -16.65527,4.965821 h -11.16211 v 26.367187 h -8.87695 z"
           id="path899"
           style="font-style:normal;font-weight:normal;font-size:90px;line-height:125%;font-family:sans-serif;letter-spacing:0px;word-spacing:0px;white-space:pre;fill:url(#linearGradient1216);fill-opacity:1;stroke:#000000;stroke-width:1.4;stroke-linecap:butt;stroke-linejoin:miter;stroke-miterlimit:4;stroke-dasharray:none;stroke-opacity:1" /></g><g
         id="g918"
         transform="matrix(1.8337472,-0.05031448,0.02787502,3.3099216,-328.52456,-297.93434)"
         style="display:inline;opacity:1;mix-blend-mode:normal;fill:#b3b3b3;fill-opacity:1;stroke:#000000;stroke-opacity:1"><path
           d="m 366.19031,158.26928 q -2.57081,6.5918 -5.00976,8.60231 -2.43897,2.01049 -6.52589,2.01049 h -4.84497 v -5.07568 h 3.55958 q 2.50488,0 3.88915,-1.18653 1.38428,-1.18652 3.06519,-5.60303 l 1.08764,-2.76855 -14.93042,-36.3208 h 6.42701 l 11.53564,28.87207 11.53565,-28.87207 h 6.427 z"
           id="path891"
           style="font-style:normal;font-weight:normal;font-size:90px;line-height:125%;font-family:sans-serif;letter-spacing:0px;word-spacing:0px;white-space:pre;fill:#b3b3b3;fill-opacity:1;stroke:#000000;stroke-width:0.75px;stroke-linecap:butt;stroke-linejoin:miter;stroke-opacity:1" /><path
           d="m 417.34265,119.34473 v 5.66894 q -2.57079,-1.41723 -5.17455,-2.10938 -2.57081,-0.7251 -5.20752,-0.7251 -5.89967,0 -9.1626,3.75734 -3.26295,3.72436 -3.26295,10.48095 0,6.7566 3.26295,10.51392 3.26293,3.72436 9.1626,3.72436 2.63671,0 5.20752,-0.69214 2.60376,-0.7251 5.17455,-2.14233 v 5.60302 q -2.53784,1.18653 -5.27343,1.7798 -2.70264,0.59325 -5.76783,0.59325 -8.33862,0 -13.24952,-5.24048 -4.91088,-5.24047 -4.91088,-14.1394 0,-9.03077 4.94385,-14.20532 4.97681,-5.17456 13.61205,-5.17456 2.80152,0 5.47121,0.59326 2.66967,0.5603 5.17455,1.71387 z"
           id="path893"
           style="font-style:normal;font-weight:normal;font-size:90px;line-height:125%;font-family:sans-serif;letter-spacing:0px;word-spacing:0px;white-space:pre;fill:#b3b3b3;fill-opacity:1;stroke:#000000;stroke-width:0.75px;stroke-linecap:butt;stroke-linejoin:miter;stroke-opacity:1" /><path
           d="m 427.95545,103.55737 h 6.06445 v 51.28419 h -6.06445 z"
           id="path895"
           style="font-style:normal;font-weight:normal;font-size:90px;line-height:125%;font-family:sans-serif;letter-spacing:0px;word-spacing:0px;white-space:pre;fill:#b3b3b3;fill-opacity:1;stroke:#000000;stroke-width:0.75px;stroke-linecap:butt;stroke-linejoin:miter;stroke-opacity:1" /><path
           d="m 446.04993,140.27368 v -22.34619 h 6.06444 v 22.11547 q 0,5.24049 2.04347,7.87721 2.04345,2.60376 6.13036,2.60376 4.9109,0 7.74537,-3.1311 2.86743,-3.13112 2.86743,-8.53638 v -20.92896 h 6.06446 v 36.91407 H 470.901 v -5.66895 q -2.20825,3.36181 -5.14161,5.00976 -2.90038,1.61499 -6.75658,1.61499 -6.36108,0 -9.65699,-3.95507 -3.29589,-3.95508 -3.29589,-11.56861 z"
           id="path897"
           style="font-style:normal;font-weight:normal;font-size:90px;line-height:125%;font-family:sans-serif;letter-spacing:0px;word-spacing:0px;white-space:pre;fill:#b3b3b3;fill-opacity:1;stroke:#000000;stroke-width:0.75px;stroke-linecap:butt;stroke-linejoin:miter;stroke-opacity:1" /></g></g></g></svg>
