<?xml version="1.0" standalone="no"?>
<svg id="SvgjsSvg1001" width="600" height="600" xmlns="http://www.w3.org/2000/svg" version="1.1" xmlns:xlink="http://www.w3.org/1999/xlink" xmlns:svgjs="http://svgjs.com/svgjs" class="svg-paper" viewBox="0 0 600 600"><title id="SvgjsTitle1372">x=cos((y/y+y/y))|y=y|dTest=0.0|sd=0.2|sm=0.2|ts=0.05 | generated with FlowLines</title><g id="SvgjsG1373"><polyline id="SvgjsPolyline1374" points="599.69,300 218.69,300.01 149.69,300.3 122.7,301.04 104.75,302.36 89.93,304.62 78.37,307.8 70.09,311.32 64.88,314.29 57.68,319.67 51.3,326.01 45.74,333.09 39.45,343.3 34.19,354.08 29.72,365.21 24.98,379.44 20.95,393.89 16.79,411.4 13.21,429.04 9.58,449.72 5.97,473.45 0,521.08" fill="none" stroke="#000000" stroke-width="1"/><polyline id="SvgjsPolyline1375" points="599.69,312 591.86,316.42 584.7,321.87 578.34,328.22 574.54,332.86 571.07,337.76 565.02,348.11 559.93,358.98 554.61,373 549.32,390.2 544.91,407.65 540.55,428.19 536.32,451.82 533.12,472.57 529.53,499.33 525.72,532.11 519.5,597.82" fill="none" stroke="#000000" stroke-width="1"/><polyline id="SvgjsPolyline1376" points="599.69,288 591.86,283.58 584.7,278.13 578.34,271.78 574.54,267.14 571.07,262.24 565.02,251.89 559.93,241.02 554.61,227 549.32,209.8 544.91,192.35 540.55,171.81 536.32,148.18 533.12,127.43 529.53,100.67 525.72,67.89 519.5,2.18" fill="none" stroke="#000000" stroke-width="1"/><polyline id="SvgjsPolyline1377" points="598.33,304.31 586.72,307.3 578.36,310.64 567.86,316.42 563,319.94 558.49,323.9 554.34,328.22 550.54,332.86 543.91,342.86 539.66,350.79 537.13,356.23 531.6,370.17 526.14,387.32 520.91,407.65 515.98,431.14 511.37,457.74 507.06,487.43 503.04,520.18 498.99,558.97 495.5,597.82" fill="none" stroke="#000000" stroke-width="1"/><polyline id="SvgjsPolyline1378" points="598.33,295.69 586.72,292.7 578.36,289.36 567.86,283.58 563,280.06 558.49,276.1 554.34,271.78 550.54,267.14 543.91,257.14 539.66,249.21 537.13,243.77 531.6,229.83 526.14,212.68 520.91,192.35 515.98,168.86 511.37,142.26 507.06,112.57 503.04,79.82 498.99,41.03 495.5,2.18" fill="none" stroke="#000000" stroke-width="1"/><polyline id="SvgjsPolyline1379" points="598.14,301.46 580.24,303.3 571.39,304.93 565.58,306.42 559.89,308.3 554.36,310.64 543.86,316.42 539,319.94 534.49,323.9 530.34,328.22 526.54,332.86 523.07,337.76 518.43,345.47 511.93,358.98 505.65,375.84 499.77,396 494.33,419.37 489.32,445.9 484.28,478.51 479.38,517.2 475.57,553 471.5,597.82" fill="none" stroke="#000000" stroke-width="1"/><polyline id="SvgjsPolyline1380" points="598.14,298.54 580.24,296.7 571.39,295.07 565.58,293.58 559.89,291.7 554.36,289.36 543.86,283.58 539,280.06 534.49,276.1 530.34,271.78 526.54,267.14 523.07,262.24 518.43,254.53 511.93,241.02 505.65,224.16 499.77,204 494.33,180.63 489.32,154.1 484.28,121.49 479.38,82.8 475.57,47 471.5,2.18" fill="none" stroke="#000000" stroke-width="1"/><polyline id="SvgjsPolyline1381" points="598.12,300.49 574.14,301.46 556.24,303.3 547.39,304.93 541.58,306.42 535.89,308.3 530.36,310.64 522.4,314.83 517.39,318.13 512.7,321.87 508.37,326.02 504.39,330.51 499.07,337.76 495.91,342.86 491.66,350.79 487.93,358.98 484.62,367.35 480.73,378.7 477.32,390.2 471.59,413.51 466.35,439.99 461.12,472.57 456.43,508.26 451.57,553 447.5,597.82" fill="none" stroke="#000000" stroke-width="1"/><polyline id="SvgjsPolyline1382" points="598.12,299.51 574.14,298.54 556.24,296.7 547.39,295.07 541.58,293.58 535.89,291.7 530.36,289.36 522.4,285.17 517.39,281.87 512.7,278.13 508.37,273.98 504.39,269.49 499.07,262.24 495.91,257.14 491.66,249.21 487.93,241.02 484.62,232.65 480.73,221.3 477.32,209.8 471.59,186.49 466.35,160.01 461.12,127.43 456.43,91.74 451.57,47 447.5,2.18" fill="none" stroke="#000000" stroke-width="1"/><polyline id="SvgjsPolyline1383" points="598.12,300.16 568.12,300.64 544.16,301.92 529.28,303.77 520.48,305.63 514.72,307.3 509.1,309.41 501.01,313.36 495.86,316.42 491,319.94 486.49,323.9 480.39,330.51 476.76,335.28 471.91,342.86 467.66,350.79 463.93,358.98 460.62,367.35 456.73,378.7 453.32,390.2 449.59,404.73 443.98,431.14 438,466.64 432.79,505.29 427.57,553 423.5,597.82" fill="none" stroke="#000000" stroke-width="1"/><polyline id="SvgjsPolyline1384" points="598.12,299.84 568.12,299.36 544.16,298.08 529.28,296.23 520.48,294.37 514.72,292.7 509.1,290.59 501.01,286.64 495.86,283.58 491,280.06 486.49,276.1 480.39,269.49 476.76,264.72 471.91,257.14 467.66,249.21 463.93,241.02 460.62,232.65 456.73,221.3 453.32,209.8 449.59,195.27 443.98,168.86 438,133.36 432.79,94.71 427.57,47 423.5,2.18" fill="none" stroke="#000000" stroke-width="1"/><polyline id="SvgjsPolyline1385" points="574.12,300.16 544.12,300.64 520.16,301.92 505.28,303.77 496.48,305.63 490.72,307.3 485.1,309.41 477.01,313.36 471.86,316.42 467,319.94 462.49,323.9 456.39,330.51 452.76,335.28 447.91,342.86 443.66,350.79 439.93,358.98 436.62,367.35 432.73,378.7 429.32,390.2 425.59,404.73 419.98,431.14 414,466.64 408.79,505.29 403.57,553 399.5,597.82" fill="none" stroke="#000000" stroke-width="1"/><polyline id="SvgjsPolyline1386" points="574.12,299.84 544.12,299.36 520.16,298.08 505.28,296.23 496.48,294.37 490.72,292.7 485.1,290.59 477.01,286.64 471.86,283.58 467,280.06 462.49,276.1 456.39,269.49 452.76,264.72 447.91,257.14 443.66,249.21 439.93,241.02 436.62,232.65 432.73,221.3 429.32,209.8 425.59,195.27 419.98,168.86 414,133.36 408.79,94.71 403.57,47 399.5,2.18" fill="none" stroke="#000000" stroke-width="1"/><polyline id="SvgjsPolyline1387" points="550.12,300.16 520.12,300.64 496.16,301.92 481.28,303.77 472.48,305.63 466.72,307.3 461.1,309.41 453.01,313.36 447.86,316.42 443,319.94 438.49,323.9 432.39,330.51 428.76,335.28 423.91,342.86 419.66,350.79 415.93,358.98 412.62,367.35 408.73,378.7 405.32,390.2 401.59,404.73 395.98,431.14 390,466.64 384.79,505.29 379.57,553 375.5,597.82" fill="none" stroke="#000000" stroke-width="1"/><polyline id="SvgjsPolyline1388" points="550.12,299.84 520.12,299.36 496.16,298.08 481.28,296.23 472.48,294.37 466.72,292.7 461.1,290.59 453.01,286.64 447.86,283.58 443,280.06 438.49,276.1 432.39,269.49 428.76,264.72 423.91,257.14 419.66,249.21 415.93,241.02 412.62,232.65 408.73,221.3 405.32,209.8 401.59,195.27 395.98,168.86 390,133.36 384.79,94.71 379.57,47 375.5,2.18" fill="none" stroke="#000000" stroke-width="1"/><polyline id="SvgjsPolyline1389" points="526.12,300.16 496.12,300.64 472.16,301.92 457.28,303.77 448.48,305.63 442.72,307.3 437.1,309.41 429.01,313.36 423.86,316.42 419,319.94 414.49,323.9 408.39,330.51 404.76,335.28 399.91,342.86 395.66,350.79 391.93,358.98 388.62,367.35 384.73,378.7 381.32,390.2 377.59,404.73 371.98,431.14 366,466.64 360.79,505.29 355.57,553 351.5,597.82" fill="none" stroke="#000000" stroke-width="1"/><polyline id="SvgjsPolyline1390" points="526.12,299.84 496.12,299.36 472.16,298.08 457.28,296.23 448.48,294.37 442.72,292.7 437.1,290.59 429.01,286.64 423.86,283.58 419,280.06 414.49,276.1 408.39,269.49 404.76,264.72 399.91,257.14 395.66,249.21 391.93,241.02 388.62,232.65 384.73,221.3 381.32,209.8 377.59,195.27 371.98,168.86 366,133.36 360.79,94.71 355.57,47 351.5,2.18" fill="none" stroke="#000000" stroke-width="1"/><polyline id="SvgjsPolyline1391" points="502.12,300.16 472.12,300.64 448.16,301.92 433.28,303.77 424.48,305.63 418.72,307.3 413.1,309.41 405.01,313.36 399.86,316.42 395,319.94 390.49,323.9 384.39,330.51 380.76,335.28 375.91,342.86 371.66,350.79 367.93,358.98 364.62,367.35 360.73,378.7 357.32,390.2 353.59,404.73 347.98,431.14 342,466.64 336.79,505.29 331.57,553 327.5,597.82" fill="none" stroke="#000000" stroke-width="1"/><polyline id="SvgjsPolyline1392" points="502.12,299.84 472.12,299.36 448.16,298.08 433.28,296.23 424.48,294.37 418.72,292.7 413.1,290.59 405.01,286.64 399.86,283.58 395,280.06 390.49,276.1 384.39,269.49 380.76,264.72 375.91,257.14 371.66,249.21 367.93,241.02 364.62,232.65 360.73,221.3 357.32,209.8 353.59,195.27 347.98,168.86 342,133.36 336.79,94.71 331.57,47 327.5,2.18" fill="none" stroke="#000000" stroke-width="1"/><polyline id="SvgjsPolyline1393" points="478.12,300.16 448.12,300.64 424.16,301.92 409.28,303.77 400.48,305.63 394.72,307.3 389.1,309.41 381.01,313.36 375.86,316.42 371,319.94 366.49,323.9 360.39,330.51 356.76,335.28 351.91,342.86 347.66,350.79 343.93,358.98 340.62,367.35 336.73,378.7 333.32,390.2 329.59,404.73 323.98,431.14 318,466.64 312.79,505.29 307.57,553 303.5,597.82" fill="none" stroke="#000000" stroke-width="1"/><polyline id="SvgjsPolyline1394" points="478.12,299.84 448.12,299.36 424.16,298.08 409.28,296.23 400.48,294.37 394.72,292.7 389.1,290.59 381.01,286.64 375.86,283.58 371,280.06 366.49,276.1 360.39,269.49 356.76,264.72 351.91,257.14 347.66,249.21 343.93,241.02 340.62,232.65 336.73,221.3 333.32,209.8 329.59,195.27 323.98,168.86 318,133.36 312.79,94.71 307.57,47 303.5,2.18" fill="none" stroke="#000000" stroke-width="1"/><polyline id="SvgjsPolyline1395" points="454.12,300.16 424.12,300.64 400.16,301.92 385.28,303.77 376.48,305.63 370.72,307.3 365.1,309.41 357.01,313.36 351.86,316.42 347,319.94 342.49,323.9 336.39,330.51 332.76,335.28 327.91,342.86 323.66,350.79 319.93,358.98 316.62,367.35 312.73,378.7 309.32,390.2 305.59,404.73 299.98,431.14 294,466.64 288.79,505.29 283.57,553 279.5,597.82" fill="none" stroke="#000000" stroke-width="1"/><polyline id="SvgjsPolyline1396" points="454.12,299.84 424.12,299.36 400.16,298.08 385.28,296.23 376.48,294.37 370.72,292.7 365.1,290.59 357.01,286.64 351.86,283.58 347,280.06 342.49,276.1 336.39,269.49 332.76,264.72 327.91,257.14 323.66,249.21 319.93,241.02 316.62,232.65 312.73,221.3 309.32,209.8 305.59,195.27 299.98,168.86 294,133.36 288.79,94.71 283.57,47 279.5,2.18" fill="none" stroke="#000000" stroke-width="1"/><polyline id="SvgjsPolyline1397" points="430.12,300.16 400.12,300.64 376.16,301.92 361.28,303.77 352.48,305.63 346.72,307.3 341.1,309.41 333.01,313.36 327.86,316.42 323,319.94 318.49,323.9 312.39,330.51 308.76,335.28 303.91,342.86 299.66,350.79 295.93,358.98 292.62,367.35 288.73,378.7 285.32,390.2 281.59,404.73 275.98,431.14 270,466.64 264.79,505.29 259.57,553 255.5,597.82" fill="none" stroke="#000000" stroke-width="1"/><polyline id="SvgjsPolyline1398" points="430.12,299.84 400.12,299.36 376.16,298.08 361.28,296.23 352.48,294.37 346.72,292.7 341.1,290.59 333.01,286.64 327.86,283.58 323,280.06 318.49,276.1 312.39,269.49 308.76,264.72 303.91,257.14 299.66,249.21 295.93,241.02 292.62,232.65 288.73,221.3 285.32,209.8 281.59,195.27 275.98,168.86 270,133.36 264.79,94.71 259.57,47 255.5,2.18" fill="none" stroke="#000000" stroke-width="1"/><polyline id="SvgjsPolyline1399" points="406.12,300.16 376.12,300.64 352.16,301.92 337.28,303.77 328.48,305.63 322.72,307.3 317.1,309.41 309.01,313.36 303.86,316.42 299,319.94 294.49,323.9 288.39,330.51 284.76,335.28 279.91,342.86 275.66,350.79 271.93,358.98 268.62,367.35 264.73,378.7 261.32,390.2 257.59,404.73 251.98,431.14 246,466.64 240.79,505.29 235.57,553 231.5,597.82" fill="none" stroke="#000000" stroke-width="1"/><polyline id="SvgjsPolyline1400" points="406.12,299.84 376.12,299.36 352.16,298.08 337.28,296.23 328.48,294.37 322.72,292.7 317.1,290.59 309.01,286.64 303.86,283.58 299,280.06 294.49,276.1 288.39,269.49 284.76,264.72 279.91,257.14 275.66,249.21 271.93,241.02 267.59,229.83 264.73,221.3 261.32,209.8 257.59,195.27 251.98,168.86 246.9,139.29 241.15,97.69 236.47,55.95 231.5,2.18" fill="none" stroke="#000000" stroke-width="1"/><polyline id="SvgjsPolyline1401" points="382.12,300.16 352.12,300.64 328.16,301.92 313.28,303.77 304.48,305.63 298.72,307.3 293.1,309.41 285.01,313.36 279.86,316.42 275,319.95 270.49,323.9 264.39,330.51 260.76,335.28 255.91,342.86 251.66,350.79 247.93,358.98 244.62,367.35 240.73,378.7 237.32,390.21 234.3,401.82 227.98,431.14 222,466.64 216.79,505.29 211.57,553 207.5,597.82" fill="none" stroke="#000000" stroke-width="1"/><polyline id="SvgjsPolyline1402" points="382.12,299.84 352.12,299.36 328.16,298.08 313.28,296.23 304.48,294.37 298.72,292.7 293.1,290.59 285.01,286.64 279.86,283.58 275,280.06 270.49,276.11 264.39,269.49 260.76,264.72 255.9,257.15 251.66,249.21 247.93,241.02 243.59,229.83 240.73,221.3 237.32,209.8 233.59,195.27 227.98,168.86 222.9,139.3 217.15,97.69 212.47,55.96 207.5,2.19" fill="none" stroke="#000000" stroke-width="1"/><polyline id="SvgjsPolyline1403" points="358.12,300.16 328.12,300.64 304.16,301.92 289.28,303.77 280.48,305.63 274.72,307.3 269.1,309.41 261.02,313.36 255.86,316.42 251.01,319.95 246.49,323.9 240.39,330.51 236.76,335.28 231.91,342.86 227.67,350.79 223.93,358.98 220.62,367.35 216.73,378.7 210.3,401.82 203.98,431.14 198,466.64 192.79,505.29 188.17,547.03 183.5,597.82" fill="none" stroke="#000000" stroke-width="1"/><polyline id="SvgjsPolyline1404" points="358.12,299.84 328.12,299.36 304.16,298.08 289.28,296.23 280.48,294.37 274.72,292.7 269.1,290.59 261.01,286.64 255.86,283.58 251,280.06 246.49,276.11 240.39,269.5 236.76,264.72 231.9,257.15 227.66,249.21 222.78,238.25 219.59,229.84 215.83,218.44 212.53,206.91 208.9,192.35 203.42,165.92 197.99,133.37 193.15,97.7 188.16,52.97 183.5,2.19" fill="none" stroke="#000000" stroke-width="1"/><polyline id="SvgjsPolyline1405" points="334.12,300.16 304.12,300.64 280.16,301.92 271.21,302.88 262.33,304.32 250.72,307.31 245.1,309.41 237.02,313.36 231.86,316.43 227.01,319.95 220.37,326.02 216.4,330.52 212.77,335.29 207.91,342.87 203.67,350.8 199.94,358.99 195.6,370.18 192.74,378.71 189.33,390.22 185.6,404.74 179.99,431.15 174.01,466.65 168.8,505.3 163.58,553.01 159.51,597.83" fill="none" stroke="#000000" stroke-width="1"/><polyline id="SvgjsPolyline1406" points="334.12,299.84 304.12,299.36 280.16,298.08 265.28,296.23 256.47,294.38 250.71,292.7 245.1,290.59 237.01,286.65 231.85,283.59 227,280.06 222.49,276.11 216.39,269.5 212.76,264.73 207.9,257.15 203.66,249.22 199.92,241.03 196.61,232.66 192.72,221.31 189.31,209.81 185.58,195.28 179.97,168.87 174.89,139.31 169.14,97.7 164.46,55.97 159.49,2.2" fill="none" stroke="#000000" stroke-width="1"/><polyline id="SvgjsPolyline1407" points="310.12,300.16 277.13,300.74 256.16,301.92 247.22,302.89 238.33,304.32 226.72,307.31 221.11,309.42 213.02,313.37 207.87,316.44 203.02,319.97 198.5,323.92 192.41,330.53 188.78,335.31 183.93,342.89 179.69,350.82 175.96,359.01 171.62,370.2 168.76,378.73 165.35,390.24 162.33,401.85 156.01,431.17 150.03,466.67 144.82,505.32 139.9,550.05 135.54,597.85" fill="none" stroke="#000000" stroke-width="1"/><polyline id="SvgjsPolyline1408" points="310.12,299.84 280.12,299.36 256.16,298.08 241.28,296.23 232.47,294.38 226.71,292.71 221.09,290.6 213.01,286.66 207.85,283.6 202.99,280.08 198.48,276.13 192.38,269.52 188.74,264.75 183.88,257.17 179.64,249.24 175.91,241.05 172.59,232.69 168.7,221.33 165.29,209.83 161.56,195.3 155.39,165.95 150.41,136.36 145.12,97.73 140.13,53 135.46,2.22" fill="none" stroke="#000000" stroke-width="1"/><polyline id="SvgjsPolyline1409" points="286.13,300.17 253.14,300.74 232.17,301.93 223.22,302.89 214.34,304.33 202.73,307.33 197.12,309.45 189.04,313.41 183.89,316.48 179.04,320.01 174.53,323.97 168.44,330.59 164.82,335.37 159.97,342.95 155.73,350.88 152.01,359.08 148.7,367.44 144.81,378.8 141.41,390.3 137.69,404.83 131.52,434.19 126.1,466.74 120.89,505.39 115.97,550.12 111.61,597.92" fill="none" stroke="#000000" stroke-width="1"/><polyline id="SvgjsPolyline1410" points="286.11,299.84 256.11,299.36 232.15,298.09 217.27,296.24 208.46,294.4 202.7,292.73 197.08,290.63 188.99,286.69 183.83,283.64 178.97,280.12 174.45,276.18 168.34,269.57 164.71,264.8 159.84,257.23 155.59,249.3 151.86,241.12 148.54,232.75 144.65,221.4 141.24,209.9 137.5,195.37 131.88,168.96 126.8,139.4 121.05,97.79 116.06,53.07 111.39,2.29" fill="none" stroke="#000000" stroke-width="1"/><polyline id="SvgjsPolyline1411" points="262.15,300.17 232.15,300.65 208.19,301.94 193.32,303.82 184.52,305.7 178.76,307.39 173.15,309.52 165.09,313.5 159.94,316.59 155.11,320.14 150.61,324.11 144.54,330.75 140.93,335.53 136.09,343.12 131.87,351.07 128.15,359.26 124.85,367.64 120.98,378.99 117.58,390.5 114.57,402.12 108.26,431.44 102.74,463.98 97.46,502.61 92.78,544.35 87.82,598.12" fill="none" stroke="#000000" stroke-width="1"/><polyline id="SvgjsPolyline1412" points="262.09,299.84 229.09,299.27 208.13,298.11 199.18,297.16 190.29,295.74 178.67,292.79 173.05,290.7 164.94,286.79 159.77,283.75 154.9,280.25 150.37,276.32 144.24,269.73 138.89,262.5 135.72,257.41 131.46,249.49 127.71,241.31 124.38,232.94 120.48,221.6 117.06,210.1 114.03,198.49 107.69,169.17 101.7,133.67 96.48,95.02 91.85,53.28 87.18,2.49" fill="none" stroke="#000000" stroke-width="1"/><polyline id="SvgjsPolyline1413" points="238.21,300.17 205.22,300.77 184.26,301.99 169.39,303.92 160.59,305.84 154.85,307.57 149.26,309.74 141.23,313.79 136.11,316.93 131.31,320.52 124.75,326.67 120.83,331.21 117.25,336.03 112.46,343.64 108.28,351.61 104.59,359.82 100.3,371.02 97.47,379.56 91.09,402.7 84.82,432.03 78.87,467.54 74.05,503.21 69.39,544.95 64.43,598.72" fill="none" stroke="#000000" stroke-width="1"/><polyline id="SvgjsPolyline1414" points="238.03,299.84 205.03,299.29 184.07,298.16 175.12,297.23 166.22,295.85 154.58,292.96 148.94,290.92 140.81,287.08 135.61,284.09 130.7,280.64 126.13,276.75 119.95,270.22 116.27,265.48 111.34,257.95 107.04,250.05 103.26,241.89 98.87,230.72 95.07,219.34 88.77,196.18 82.56,166.84 76.65,131.33 71.86,95.65 66.62,47.94 62.29,0.13" fill="none" stroke="#000000" stroke-width="1"/><polyline id="SvgjsPolyline1415" points="220.4,300.14 184.4,300.72 163.44,301.87 148.55,303.67 139.74,305.48 133.97,307.12 128.33,309.18 122.9,311.72 115.1,316.21 110.23,319.71 105.7,323.63 99.56,330.21 95.91,334.97 91.03,342.53 86.76,350.45 83.01,358.63 79.68,366.99 75.77,378.34 72.35,389.84 68.61,404.36 62.98,430.77 57.43,463.3 52.13,501.93 47.44,543.67 42.46,597.44" fill="none" stroke="#000000" stroke-width="1"/><polyline id="SvgjsPolyline1416" points="219.85,299.89 183.86,299.43 162.88,298.52 144.98,296.65 136.14,294.99 130.33,293.49 124.64,291.58 116.4,287.96 108.58,283.53 103.73,280 99.22,276.04 95.07,271.71 91.28,267.06 86.2,259.64 81.77,251.8 77.89,243.69 74.45,235.37 70.42,224.07 66.91,212.6 63.8,201.01 60.36,186.41 57.33,171.72 51.23,136.24 45.94,97.6 41.26,55.86 36.29,2.09" fill="none" stroke="#000000" stroke-width="1"/><polyline id="SvgjsPolyline1417" points="597.46,300 219.46,299.97 159.46,299.48 135.49,298.44 117.6,296.48 108.77,294.74 102.98,293.17 94.51,290.13 89.03,287.7 81.24,283.2 74.15,277.68 67.84,271.27 64.08,266.59 60.65,261.67 54.66,251.28 48.48,237.62 43.39,223.51 39.09,209.14 34.71,191.69 30.37,171.14 26.16,147.51 22.55,123.78 19.02,97.02 15.92,70.2 12.59,37.36 9.39,1.51" fill="none" stroke="#000000" stroke-width="1"/><polyline id="SvgjsPolyline1418" points="599.11,300 230.11,300.03 170.12,300.52 146.14,301.56 128.25,303.51 119.42,305.24 113.63,306.82 107.97,308.8 102.5,311.26 97.29,314.22 92.3,317.56 85.32,323.22 79.13,329.75 75.44,334.48 72.08,339.45 66.21,349.91 61.27,360.84 56.07,374.91 51.7,389.26 47.24,406.7 42.27,430.18 38.59,450.85 34.95,474.57 31.76,498.36 28.26,528.15 24.62,563.97 21.44,599.83" fill="none" stroke="#000000" stroke-width="1"/><polyline id="SvgjsPolyline1419" points="155.64,299.91 110.64,299.29 95.66,298.59 83.71,297.56 71.83,295.89 63,294.14 54.34,291.71 45.97,288.41 40.64,285.66 33.17,280.65 26.45,274.68 20.53,267.9 15.37,260.53 9.5,250.07 4.55,239.14 0.33,227.91" fill="none" stroke="#000000" stroke-width="1"/><polyline id="SvgjsPolyline1420" points="205.54,300.01 133.54,300.17 97.55,300.88 82.58,301.75 70.65,303 61.77,304.5 53.02,306.58 44.44,309.28 36.21,312.91 31,315.9 23.77,321.24 17.32,327.51 11.66,334.5 6.73,342.03 1.12,352.63" fill="none" stroke="#000000" stroke-width="1"/><polyline id="SvgjsPolyline1421" points="183.47,300.13 147.47,300.69 126.5,301.8 117.55,302.71 108.65,304.06 99.88,306.05 94.15,307.84 88.59,310.07 83.24,312.8 78.19,316.03 73.48,319.75 69.14,323.89 65.18,328.39 59.71,335.54 54.88,343.13 50.66,351.07 46.94,359.27 43.64,367.64 39.77,379 36.37,390.51 32.65,405.04 27.05,431.45 21.53,463.98 16.25,502.62 11.57,544.36 6.61,598.13" fill="none" stroke="#000000" stroke-width="1"/><polyline id="SvgjsPolyline1422" points="200.39,300.02 128.39,300.41 110.4,300.93 95.43,301.83 83.5,303.16 71.72,305.39 65.94,307 60.29,309.03 52.21,312.98 44.79,318.06 40.29,322.02 36.16,326.37 28.71,335.77 22.43,345.99 15.99,359.53 10.71,373.57 5.46,390.78 0.4,411.16" fill="none" stroke="#000000" stroke-width="1"/><polyline id="SvgjsPolyline1423" points="199.84,300.02 127.84,300.47 109.85,301.07 94.89,302.12 82.99,303.63 71.27,306.19 65.55,308.01 60,310.29 52.13,314.63 47.27,318.15 42.78,322.12 38.66,326.48 34.9,331.16 28.38,341.22 21.71,354.65 15.3,371.47 10.1,388.69 5.08,409.08 0.28,432.6" fill="none" stroke="#000000" stroke-width="1"/><polyline id="SvgjsPolyline1424" points="598.45,326.45 592.67,333.34 587.63,340.79 583.24,348.64 578.19,359.53 573.89,370.73 570.16,382.13 566.11,396.58 562.6,411.16 559.5,425.83 555.71,446.49 549.48,488.02 543.52,538.67 537.94,598.41" fill="none" stroke="#000000" stroke-width="1"/><polyline id="SvgjsPolyline1425" points="598.45,273.55 592.67,266.66 587.63,259.21 583.24,251.36 578.19,240.47 573.89,229.27 570.16,217.87 566.11,203.42 562.6,188.84 559.5,174.17 555.71,153.51 549.48,111.98 543.52,61.33 537.94,1.59" fill="none" stroke="#000000" stroke-width="1"/><polyline id="SvgjsPolyline1426" points="598.89,306.05 593.17,307.83 587.6,310.07 579.69,314.35 572.49,319.74 568.15,323.88 564.19,328.38 560.57,333.17 557.29,338.18 551.55,348.72 545.63,362.5 540.73,376.67 535.81,393.98 531.03,414.43 526.99,435.04 522.14,464.64 518.44,491.39 514.55,524.16 511.18,556.98 507.46,598.82" fill="none" stroke="#000000" stroke-width="1"/><polyline id="SvgjsPolyline1427" points="598.89,293.95 593.17,292.17 587.6,289.93 579.69,285.65 572.49,280.26 568.15,276.12 564.19,271.62 560.57,266.83 557.29,261.82 551.55,251.28 545.63,237.5 540.73,223.33 535.81,206.02 531.03,185.57 526.99,164.96 522.14,135.36 518.44,108.61 514.55,75.84 511.18,43.02 507.46,1.18" fill="none" stroke="#000000" stroke-width="1"/><polyline id="SvgjsPolyline1428" points="598.53,302.07 583.67,304.06 572.01,306.89 566.36,308.89 560.9,311.37 555.69,314.35 550.8,317.82 546.28,321.76 542.12,326.09 538.34,330.74 534.89,335.65 531.76,340.76 527.55,348.72 521.63,362.5 515.85,379.54 510.36,399.8 505.22,423.25 499.97,452.78 495.22,485.44 490.88,521.18 487.18,556.98 483.46,598.82" fill="none" stroke="#000000" stroke-width="1"/><polyline id="SvgjsPolyline1429" points="598.53,297.93 583.67,295.94 572.01,293.11 566.36,291.11 560.9,288.63 555.69,285.65 550.8,282.18 546.28,278.24 542.12,273.91 538.34,269.26 534.89,264.35 531.76,259.24 527.55,251.28 521.63,237.5 515.85,220.46 510.36,200.2 505.22,176.75 499.97,147.22 495.22,114.56 490.88,78.82 487.18,43.02 483.46,1.18" fill="none" stroke="#000000" stroke-width="1"/><polyline id="SvgjsPolyline1430" points="598.49,300.69 577.52,301.8 568.57,302.71 559.67,304.06 548.01,306.89 542.36,308.89 536.9,311.37 531.69,314.35 526.8,317.82 522.28,321.76 518.12,326.09 514.34,330.74 509.29,338.18 506.29,343.38 502.27,351.43 498.72,359.7 495.57,368.13 489.35,388.19 483.66,411.5 477.95,440.95 472.43,476.52 467.9,512.23 463.76,551.01 459.46,598.82" fill="none" stroke="#000000" stroke-width="1"/><polyline id="SvgjsPolyline1431" points="598.49,299.31 577.52,298.2 568.57,297.29 559.67,295.94 548.01,293.11 542.36,291.11 536.9,288.63 531.69,285.65 526.8,282.18 522.28,278.24 518.12,273.91 514.34,269.26 509.29,261.82 506.29,256.62 502.27,248.57 498.72,240.3 495.57,231.87 489.35,211.81 483.66,188.5 477.95,159.05 472.43,123.48 467.9,87.77 463.76,48.99 459.46,1.18" fill="none" stroke="#000000" stroke-width="1"/><polyline id="SvgjsPolyline1432" points="598.48,300.23 568.49,300.91 550.53,302.07 535.67,304.06 526.89,306.05 521.17,307.83 512.9,311.37 507.69,314.35 502.8,317.82 498.28,321.76 494.12,326.09 490.34,330.74 486.89,335.65 482.29,343.38 478.27,351.43 474.72,359.7 471.57,368.13 467.85,379.54 461.66,402.72 455.53,432.09 449.7,467.61 444.6,506.27 439.76,551.01 435.46,598.82" fill="none" stroke="#000000" stroke-width="1"/><polyline id="SvgjsPolyline1433" points="598.48,299.77 568.49,299.09 550.53,297.93 535.67,295.94 526.89,293.95 521.17,292.17 512.9,288.63 507.69,285.65 502.8,282.18 498.28,278.24 494.12,273.91 490.34,269.26 486.89,264.35 482.29,256.62 478.27,248.57 474.72,240.3 471.57,231.87 467.85,220.46 461.66,197.28 455.53,167.91 449.7,132.39 444.6,93.73 439.76,48.99 435.46,1.18" fill="none" stroke="#000000" stroke-width="1"/><polyline id="SvgjsPolyline1434" points="583.48,300.15 550.49,300.69 529.52,301.8 514.62,303.55 505.8,305.3 500.01,306.89 491.6,310.07 486.26,312.79 481.2,316.03 476.49,319.74 472.15,323.88 468.19,328.38 464.57,333.17 459.76,340.76 455.55,348.72 451.86,356.93 448.58,365.31 444.73,376.67 441.35,388.19 437.66,402.72 431.53,432.09 425.7,467.61 420.6,506.27 415.76,551.01 411.46,598.82" fill="none" stroke="#000000" stroke-width="1"/><polyline id="SvgjsPolyline1435" points="583.48,299.85 550.49,299.31 529.52,298.2 514.62,296.45 505.8,294.7 500.01,293.11 491.6,289.93 486.26,287.21 481.2,283.97 476.49,280.26 472.15,276.12 468.19,271.62 464.57,266.83 459.76,259.24 455.55,251.28 451.86,243.07 448.58,234.69 444.73,223.33 441.35,211.81 437.66,197.28 431.53,167.91 425.7,132.39 420.6,93.73 415.76,48.99 411.46,1.18" fill="none" stroke="#000000" stroke-width="1"/><polyline id="SvgjsPolyline1436" points="559.48,300.15 526.49,300.69 505.52,301.8 490.62,303.55 481.8,305.3 476.01,306.89 467.6,310.07 462.26,312.79 457.2,316.03 452.49,319.74 448.15,323.88 444.19,328.38 440.57,333.17 435.76,340.76 431.55,348.72 427.86,356.93 424.58,365.31 420.73,376.67 417.35,388.19 413.66,402.72 407.53,432.09 401.7,467.61 396.6,506.27 391.76,551.01 387.46,598.82" fill="none" stroke="#000000" stroke-width="1"/><polyline id="SvgjsPolyline1437" points="559.48,299.85 526.49,299.31 505.52,298.2 490.62,296.45 481.8,294.7 476.01,293.11 467.6,289.93 462.26,287.21 457.2,283.97 452.49,280.26 448.15,276.12 444.19,271.62 440.57,266.83 435.76,259.24 431.55,251.28 427.86,243.07 424.58,234.69 420.73,223.33 417.35,211.81 413.66,197.28 407.53,167.91 401.7,132.39 396.6,93.73 391.76,48.99 387.46,1.18" fill="none" stroke="#000000" stroke-width="1"/><polyline id="SvgjsPolyline1438" points="535.48,300.15 502.49,300.69 481.52,301.8 466.62,303.55 457.8,305.3 452.01,306.89 443.6,310.07 438.26,312.79 433.2,316.03 428.49,319.74 424.15,323.88 420.19,328.38 416.57,333.17 411.76,340.76 407.55,348.72 403.86,356.93 400.58,365.31 396.73,376.67 393.35,388.19 389.66,402.72 383.53,432.09 377.7,467.61 372.6,506.27 367.76,551.01 363.46,598.82" fill="none" stroke="#000000" stroke-width="1"/><polyline id="SvgjsPolyline1439" points="535.48,299.85 502.49,299.31 481.52,298.2 466.62,296.45 457.8,294.7 452.01,293.11 443.6,289.93 438.26,287.21 433.2,283.97 428.49,280.26 424.15,276.12 420.19,271.62 416.57,266.83 411.76,259.24 407.55,251.28 403.86,243.07 400.58,234.69 396.73,223.33 393.35,211.81 389.66,197.28 383.53,167.91 377.7,132.39 372.6,93.73 367.76,48.99 363.46,1.18" fill="none" stroke="#000000" stroke-width="1"/><polyline id="SvgjsPolyline1440" points="511.48,300.15 478.49,300.69 457.52,301.8 442.62,303.55 433.8,305.3 428.01,306.89 419.6,310.07 414.26,312.79 409.2,316.03 404.49,319.74 400.15,323.88 396.19,328.38 392.57,333.17 387.76,340.76 383.55,348.72 379.86,356.93 376.58,365.31 372.73,376.67 369.35,388.19 365.66,402.72 359.53,432.09 353.7,467.61 348.6,506.27 343.76,551.01 339.46,598.82" fill="none" stroke="#000000" stroke-width="1"/><polyline id="SvgjsPolyline1441" points="511.48,299.85 478.49,299.31 457.52,298.2 442.62,296.45 433.8,294.7 428.01,293.11 419.6,289.93 414.26,287.21 409.2,283.97 404.49,280.26 400.15,276.12 396.19,271.62 392.57,266.83 387.76,259.24 383.55,251.28 379.86,243.07 376.58,234.69 372.73,223.33 369.35,211.81 365.66,197.28 359.53,167.91 353.7,132.39 348.6,93.73 343.76,48.99 339.46,1.18" fill="none" stroke="#000000" stroke-width="1"/><polyline id="SvgjsPolyline1442" points="487.48,300.15 454.49,300.69 433.52,301.8 418.62,303.55 409.8,305.3 404.01,306.89 395.6,310.07 390.26,312.79 385.2,316.03 380.49,319.74 376.15,323.88 372.19,328.38 368.57,333.17 363.76,340.76 359.55,348.72 355.86,356.93 352.58,365.31 348.73,376.67 345.35,388.19 341.66,402.72 335.53,432.09 329.7,467.61 324.6,506.27 319.76,551.01 315.46,598.82" fill="none" stroke="#000000" stroke-width="1"/><polyline id="SvgjsPolyline1443" points="487.48,299.85 454.49,299.31 433.52,298.2 418.62,296.45 409.8,294.7 404.01,293.11 395.6,289.93 390.26,287.21 385.2,283.97 380.49,280.26 376.15,276.12 372.19,271.62 368.57,266.83 363.76,259.24 359.55,251.28 355.86,243.07 352.58,234.69 348.73,223.33 345.35,211.81 341.66,197.28 335.53,167.91 329.7,132.39 324.6,93.73 319.76,48.99 315.46,1.18" fill="none" stroke="#000000" stroke-width="1"/><polyline id="SvgjsPolyline1444" points="463.48,300.15 430.49,300.69 409.52,301.8 394.62,303.55 385.8,305.3 380.01,306.89 371.6,310.07 366.26,312.79 361.2,316.03 356.49,319.74 352.15,323.88 348.19,328.38 344.57,333.17 339.76,340.76 335.55,348.72 331.86,356.93 328.58,365.31 324.73,376.67 321.35,388.19 317.66,402.72 311.53,432.09 305.7,467.61 300.6,506.27 295.76,551.01 291.46,598.82" fill="none" stroke="#000000" stroke-width="1"/><polyline id="SvgjsPolyline1445" points="463.48,299.85 430.49,299.31 409.52,298.2 394.62,296.45 385.8,294.7 380.01,293.11 371.6,289.93 366.26,287.21 361.2,283.97 356.49,280.26 352.15,276.12 348.19,271.62 344.57,266.83 339.76,259.24 335.55,251.28 331.86,243.07 328.58,234.69 324.73,223.33 321.35,211.81 317.66,197.28 311.53,167.91 305.7,132.39 300.6,93.73 295.76,48.99 291.46,1.18" fill="none" stroke="#000000" stroke-width="1"/><polyline id="SvgjsPolyline1446" points="439.48,300.15 406.49,300.69 385.52,301.8 370.62,303.55 361.8,305.3 356.01,306.89 347.6,310.07 342.26,312.79 337.2,316.03 332.49,319.74 328.15,323.88 324.19,328.38 320.57,333.17 315.76,340.76 311.55,348.72 307.86,356.93 304.58,365.31 300.73,376.67 297.35,388.19 293.66,402.72 287.53,432.09 281.7,467.61 276.6,506.27 271.76,551.01 267.46,598.82" fill="none" stroke="#000000" stroke-width="1"/><polyline id="SvgjsPolyline1447" points="439.48,299.85 406.49,299.31 385.52,298.2 370.62,296.45 361.8,294.7 356.01,293.11 347.6,289.93 342.26,287.21 337.2,283.97 332.49,280.26 328.15,276.12 324.19,271.62 320.57,266.83 315.76,259.24 311.55,251.28 307.86,243.07 304.58,234.69 300.73,223.33 294.36,200.2 288.08,170.86 282.14,135.36 277.32,99.68 271.76,48.99 267.46,1.18" fill="none" stroke="#000000" stroke-width="1"/><polyline id="SvgjsPolyline1448" points="415.48,300.15 382.49,300.69 361.52,301.8 346.62,303.55 337.8,305.3 332.01,306.89 323.6,310.07 318.26,312.79 313.21,316.03 308.49,319.74 304.15,323.88 300.19,328.38 296.57,333.17 291.76,340.76 287.55,348.72 283.86,356.93 280.58,365.31 276.73,376.67 273.35,388.19 269.66,402.72 263.53,432.09 257.7,467.61 252.6,506.27 247.76,551.01 243.46,598.82" fill="none" stroke="#000000" stroke-width="1"/><polyline id="SvgjsPolyline1449" points="415.48,299.85 382.49,299.31 361.52,298.2 346.62,296.45 337.8,294.7 332.01,293.11 323.6,289.93 318.26,287.21 313.2,283.97 308.49,280.26 304.15,276.12 300.19,271.62 296.57,266.83 291.76,259.24 287.55,251.28 283.86,243.07 280.58,234.69 276.73,223.33 270.36,200.2 264.08,170.86 258.14,135.36 253.32,99.68 247.76,48.99 243.46,1.18" fill="none" stroke="#000000" stroke-width="1"/><polyline id="SvgjsPolyline1450" points="391.48,300.15 358.49,300.69 337.52,301.8 322.62,303.55 313.8,305.3 308.01,306.89 299.6,310.07 294.26,312.8 289.21,316.03 284.49,319.74 280.15,323.88 276.19,328.38 272.57,333.17 267.76,340.76 263.55,348.72 259.86,356.93 256.58,365.31 252.73,376.67 248.57,391.08 245.66,402.72 239.53,432.09 233.7,467.61 228.6,506.28 223.47,554 219.46,598.82" fill="none" stroke="#000000" stroke-width="1"/><polyline id="SvgjsPolyline1451" points="391.48,299.85 358.49,299.31 337.52,298.2 322.62,296.45 313.8,294.7 308.01,293.11 299.6,289.93 294.26,287.21 289.2,283.98 284.49,280.26 280.15,276.12 276.19,271.62 272.57,266.84 267.75,259.24 263.55,251.28 259.86,243.08 256.58,234.69 252.73,223.33 249.35,211.82 246.36,200.2 240.08,170.86 234.14,135.36 229.32,99.68 223.76,48.99 219.46,1.18" fill="none" stroke="#000000" stroke-width="1"/><polyline id="SvgjsPolyline1452" points="367.48,300.15 334.49,300.69 313.52,301.8 298.62,303.55 289.8,305.3 284.01,306.89 275.6,310.07 270.26,312.8 265.21,316.03 260.5,319.74 256.16,323.88 252.19,328.38 246.89,335.65 243.76,340.77 239.56,348.72 235.86,356.93 232.58,365.31 228.73,376.67 222.36,399.81 216.09,429.14 210.59,461.68 204.96,503.3 200.06,548.03 195.46,598.82" fill="none" stroke="#000000" stroke-width="1"/><polyline id="SvgjsPolyline1453" points="367.48,299.85 334.49,299.31 313.52,298.2 298.62,296.45 289.8,294.7 284.01,293.11 275.6,289.93 270.26,287.21 265.2,283.98 260.49,280.26 256.15,276.13 252.18,271.63 248.57,266.84 243.75,259.24 239.55,251.28 235.86,243.08 232.58,234.7 228.73,223.33 222.35,200.2 216.08,170.87 210.58,138.33 205.32,99.69 200.35,54.96 195.45,1.19" fill="none" stroke="#000000" stroke-width="1"/><polyline id="SvgjsPolyline1454" points="343.48,300.15 310.49,300.69 289.52,301.8 280.57,302.71 271.67,304.06 260.02,306.89 251.6,310.07 246.26,312.8 241.21,316.03 236.5,319.75 232.16,323.89 228.19,328.39 224.58,333.18 219.76,340.77 215.56,348.73 210.73,359.71 207.58,368.14 203.85,379.55 197.67,402.73 191.54,432.1 185.71,467.62 180.61,506.29 175.48,554.01 171.47,598.83" fill="none" stroke="#000000" stroke-width="1"/><polyline id="SvgjsPolyline1455" points="343.48,299.85 310.49,299.31 289.52,298.2 274.62,296.45 265.8,294.7 260.01,293.12 251.6,289.94 246.25,287.21 241.2,283.98 236.49,280.27 232.15,276.13 228.18,271.63 224.57,266.84 219.75,259.25 215.55,251.29 211.85,243.08 208.57,234.7 204.72,223.34 201.34,211.83 198.35,200.21 192.07,170.87 186.13,135.37 181.31,99.69 175.75,49 171.45,1.19" fill="none" stroke="#000000" stroke-width="1"/><polyline id="SvgjsPolyline1456" points="319.49,300.15 286.49,300.7 265.52,301.81 256.57,302.71 247.67,304.07 236.02,306.9 227.61,310.08 222.27,312.81 217.22,316.05 212.51,319.76 208.17,323.9 204.2,328.4 200.59,333.19 195.78,340.79 191.58,348.75 187.88,356.96 183.59,368.16 180.76,376.7 177.38,388.22 174.39,399.84 168.12,429.17 162.17,464.68 156.99,503.33 152.09,548.06 147.49,598.85" fill="none" stroke="#000000" stroke-width="1"/><polyline id="SvgjsPolyline1457" points="279.55,299.68 249.57,298.76 231.64,297.19 222.75,295.79 216.89,294.5 211.12,292.86 205.49,290.79 200.06,288.25 194.89,285.2 190.05,281.66 185.58,277.66 181.48,273.29 177.74,268.59 174.34,263.65 169.8,255.89 165.82,247.81 162.32,239.52 159.19,231.09 155.5,219.67 152.26,208.11 148.69,193.55 143.28,167.1 137.48,131.57 132.4,92.9 127.58,48.16 123.26,0.36" fill="none" stroke="#000000" stroke-width="1"/><polyline id="SvgjsPolyline1458" points="319.48,299.85 286.48,299.31 265.51,298.2 250.62,296.46 241.79,294.71 236.01,293.12 227.59,289.95 222.25,287.22 217.19,283.99 212.48,280.28 208.14,276.15 204.17,271.65 200.56,266.86 195.73,259.27 191.53,251.31 187.83,243.11 184.55,234.73 180.7,223.36 177.32,211.85 174.33,200.23 168.05,170.9 162.55,138.36 157.29,99.72 152.02,52.01 147.42,1.22" fill="none" stroke="#000000" stroke-width="1"/><polyline id="SvgjsPolyline1459" points="295.49,300.16 262.5,300.7 241.53,301.81 232.58,302.72 223.68,304.08 212.03,306.92 203.62,310.11 198.28,312.85 193.24,316.09 188.53,319.81 184.2,323.95 180.24,328.46 176.63,333.25 171.82,340.85 167.62,348.81 163.93,357.02 160.66,365.4 156.81,376.77 150.45,399.91 144.18,429.24 138.24,464.74 133.06,503.4 128.16,548.13 123.56,598.92" fill="none" stroke="#000000" stroke-width="1"/><polyline id="SvgjsPolyline1460" points="229.13,298.94 211.18,297.61 196.37,295.31 190.54,293.89 184.82,292.08 179.26,289.83 173.93,287.08 168.89,283.83 164.19,280.09 159.87,275.94 155.92,271.42 150.64,264.14 147.52,259.01 140.83,245.6 134.4,228.79 128.4,208.67 122.87,185.32 117.79,158.8 112.7,126.2 108.05,90.5 103.81,51.73 99.17,0.94" fill="none" stroke="#000000" stroke-width="1"/><polyline id="SvgjsPolyline1461" points="242.33,299.81 212.34,299.24 191.38,298.04 176.5,296.14 167.7,294.24 161.96,292.53 153.63,289.13 148.37,286.24 143.42,282.86 138.82,279 134.6,274.74 130.75,270.15 127.24,265.28 122.56,257.59 118.48,249.58 114.88,241.33 111.67,232.92 107.91,221.53 104.6,209.99 100.94,195.45 95.32,169.04 89.78,136.51 84.48,97.87 79.49,53.15 74.82,2.37" fill="none" stroke="#000000" stroke-width="1"/><polyline id="SvgjsPolyline1462" points="183.86,299.11 162.91,297.68 148.09,295.45 136.51,292.32 130.93,290.12 125.57,287.43 120.49,284.23 115.75,280.56 111.39,276.45 107.39,271.97 103.75,267.2 98.9,259.63 96.02,254.37 92.14,246.24 85.49,229.52 79.24,209.48 73.52,186.17 67.78,156.73 63.08,127.1 58.04,88.43 53.84,49.66 49.48,1.86" fill="none" stroke="#000000" stroke-width="1"/><polyline id="SvgjsPolyline1463" points="202.12,299.88 169.12,299.47 145.15,298.43 127.26,296.45 118.43,294.7 112.65,293.11 107,291.1 101.53,288.62 96.33,285.64 91.44,282.17 86.92,278.23 82.77,273.9 78.98,269.25 73.93,261.8 69.54,253.95 65.63,245.84 62.08,237.57 57.94,226.31 54.34,214.86 50.42,200.39 47,185.78 43.98,171.09 37.91,135.61 32.27,93.99 27.07,46.27 23.01,1.46" fill="none" stroke="#000000" stroke-width="1"/><polyline id="SvgjsPolyline1464" points="159.34,299.78 132.35,299.25 111.38,298.05 96.51,296.17 84.82,293.49 79.13,291.59 73.62,289.22 68.35,286.35 63.39,282.98 54.35,275.09 50.29,270.68 46.57,265.98 41.59,258.48 38.64,253.26 32.27,239.68 29.02,231.29 25.19,219.92 19.57,199.69 14.33,176.27 8.99,146.75 4.57,117.08 0.12,81.36" fill="none" stroke="#000000" stroke-width="1"/><polyline id="SvgjsPolyline1465" points="600,300 222,299.99 150,299.63 126.01,298.89 114.04,298.08 105.09,297.11 96.21,295.68 90.36,294.37 84.6,292.69 78.98,290.58 70.97,286.5 63.63,281.3 57.11,275.11 51.42,268.14 44.98,258.02 39.6,247.3 35.05,236.2 30.23,222 26.13,207.57 21.92,190.07 17.74,169.49 14.14,148.8 10.15,122.1 6.7,95.32 0.08,32.67" fill="none" stroke="#000000" stroke-width="1"/><polyline id="SvgjsPolyline1466" points="127.71,299.96 76.71,299.62 46.73,298.51 31.79,297.15 19.92,295.41 11.14,293.47 2.55,290.79" fill="none" stroke="#000000" stroke-width="1"/><polyline id="SvgjsPolyline1467" points="119.6,299.83 89.61,299.32 68.64,298.23 53.74,296.52 44.91,294.81 39.11,293.25 33.45,291.28 27.97,288.84 20.24,284.24 13.18,278.67 8.79,274.57 4.77,270.13 1.09,265.39" fill="none" stroke="#000000" stroke-width="1"/><polyline id="SvgjsPolyline1468" points="158.19,299.88 113.2,299.1 95.24,297.95 83.33,296.48 71.6,294 63.06,291.17 54.95,287.29 47.48,282.28 40.81,276.25 36.83,271.76 33.21,266.98 26.91,256.77 20.24,243.34 14.74,229.39 9.31,212.23 4.79,194.81 0.34,174.29" fill="none" stroke="#000000" stroke-width="1"/><polyline id="SvgjsPolyline1469" points="116.67,300.11 89.68,300.39 68.69,301.02 50.73,302.31 38.85,303.97 27.18,306.74 15.98,311.02 8,315.17 0.66,320.36" fill="none" stroke="#000000" stroke-width="1"/><polyline id="SvgjsPolyline1470" points="147.53,300.37 123.55,301.1 105.6,302.48 90.8,304.86 84.98,306.33 79.28,308.19 73.75,310.51 68.45,313.32 61.08,318.48 56.62,322.48 52.53,326.87 48.81,331.57 45.42,336.52 42.33,341.67 38.19,349.66 34.55,357.89 31.32,366.29 25.79,383.41 19.83,406.66 14.98,430.16 9.52,462.7 4.65,498.37 0.26,537.12" fill="none" stroke="#000000" stroke-width="1"/><polyline id="SvgjsPolyline1471" points="119.27,300.33 89.29,301.28 77.33,302.21 68.4,303.32 59.55,304.96 53.74,306.46 45.26,309.47 39.86,312.08 34.73,315.18 27.67,320.75 23.42,324.99 17.74,331.96 12.81,339.49 8.52,347.4 4.75,355.57 0.37,366.74" fill="none" stroke="#000000" stroke-width="1"/><polyline id="SvgjsPolyline1472" points="599.28,344.81 595.18,352.82 591.56,361.06 588.34,369.46 584.55,380.85 578.26,404.01 572.61,430.41 567.05,462.93 561.37,504.55 557.04,543.3 552.06,597.07" fill="none" stroke="#000000" stroke-width="1"/><polyline id="SvgjsPolyline1473" points="599.28,255.19 595.18,247.18 591.56,238.94 588.34,230.54 584.55,219.15 578.26,195.99 572.61,169.59 567.05,137.07 561.37,95.45 557.04,56.7 552.06,2.93" fill="none" stroke="#000000" stroke-width="1"/><polyline id="SvgjsPolyline1474" points="91.51,300.05 34.52,300.71 16.54,301.61 1.63,303.18" fill="none" stroke="#000000" stroke-width="1"/><polyline id="SvgjsPolyline1475" points="599.63,373.52 594.38,390.74 589.32,411.12 584.53,434.63 580.02,461.25 576.19,487.98 572.18,520.73 568.14,559.52 564.66,598.37" fill="none" stroke="#000000" stroke-width="1"/><polyline id="SvgjsPolyline1476" points="599.63,226.48 594.38,209.26 589.32,188.88 584.53,165.37 580.02,138.75 576.19,112.02 572.18,79.27 568.14,40.48 564.66,1.63" fill="none" stroke="#000000" stroke-width="1"/><polyline id="SvgjsPolyline1477" points="599.77,419.48 593.77,451.93 587.74,493.49 581.93,544.16 576.96,597.93" fill="none" stroke="#000000" stroke-width="1"/><polyline id="SvgjsPolyline1478" points="599.77,180.52 593.77,148.07 587.74,106.51 581.93,55.84 576.96,2.07" fill="none" stroke="#000000" stroke-width="1"/><polyline id="SvgjsPolyline1479" points="599.64,495.03 593.87,545.7 588.93,599.47" fill="none" stroke="#000000" stroke-width="1"/><polyline id="SvgjsPolyline1480" points="599.64,104.97 593.87,54.3 588.93,0.53" fill="none" stroke="#000000" stroke-width="1"/></g></svg>