<?xml version="1.0" encoding="UTF-8" standalone="no"?><svg xmlns="http://www.w3.org/2000/svg" xmlns:xlink="http://www.w3.org/1999/xlink" contentScriptType="application/ecmascript" contentStyleType="text/css" height="366px" preserveAspectRatio="none" style="width:226px;height:366px;" version="1.1" viewBox="0 0 226 366" width="226px" zoomAndPan="magnify"><defs><filter height="300%" id="f62094jpk707s" width="300%" x="-1" y="-1"><feGaussianBlur result="blurOut" stdDeviation="2.0"/><feColorMatrix in="blurOut" result="blurOut2" type="matrix" values="0 0 0 0 0 0 0 0 0 0 0 0 0 0 0 0 0 0 .4 0"/><feOffset dx="4.0" dy="4.0" in="blurOut2" result="blurOut3"/><feBlend in="SourceGraphic" in2="blurOut3" mode="normal"/></filter></defs><g><ellipse cx="95" cy="18" fill="#000000" filter="url(#f62094jpk707s)" rx="10" ry="10" style="stroke: none; stroke-width: 1.0;"/><rect fill="#FEFECE" filter="url(#f62094jpk707s)" height="35.0938" rx="12.5" ry="12.5" style="stroke: #A80036; stroke-width: 1.5;" width="84" x="53" y="69"/><text fill="#000000" font-family="sans-serif" font-size="12" lengthAdjust="spacingAndGlyphs" textLength="64" x="63" y="91.457">Initialization</text><polygon fill="#FEFECE" filter="url(#f62094jpk707s)" points="95,145,107,157,95,169,83,157,95,145" style="stroke: #A80036; stroke-width: 1.5;"/><rect fill="#FEFECE" filter="url(#f62094jpk707s)" height="35.0938" rx="12.5" ry="12.5" style="stroke: #A80036; stroke-width: 1.5;" width="91" x="8.5" y="244"/><text fill="#000000" font-family="sans-serif" font-size="12" lengthAdjust="spacingAndGlyphs" textLength="71" x="18.5" y="266.457">Some Activity</text><rect fill="#FEFECE" filter="url(#f62094jpk707s)" height="35.0938" rx="12.5" ry="12.5" style="stroke: #A80036; stroke-width: 1.5;" width="100" x="6" y="320"/><text fill="#000000" font-family="sans-serif" font-size="12" lengthAdjust="spacingAndGlyphs" textLength="80" x="16" y="342.457">Another activity</text><ellipse cx="137" cy="337.5" fill="none" filter="url(#f62094jpk707s)" rx="10" ry="10" style="stroke: #000000; stroke-width: 1.0;"/><ellipse cx="137.5" cy="338" fill="#000000" rx="6" ry="6" style="stroke: none; stroke-width: 1.0;"/><rect fill="#FEFECE" filter="url(#f62094jpk707s)" height="35.0938" rx="12.5" ry="12.5" style="stroke: #A80036; stroke-width: 1.5;" width="107" x="84.5" y="189"/><text fill="#000000" font-family="sans-serif" font-size="12" lengthAdjust="spacingAndGlyphs" textLength="87" x="94.5" y="211.457">Something else</text><!--MD5=[0f23ef6eb4b1b6c14a21cac5fe254886]
link start to Initialization--><path d="M95,28.247 C95,37.427 95,51.836 95,63.901 " fill="none" id="start-&gt;Initialization" style="stroke: #A80036; stroke-width: 1.0;"/><polygon fill="#A80036" points="95,68.907,99,59.907,95,63.907,91,59.907,95,68.907" style="stroke: #A80036; stroke-width: 1.0;"/><!--MD5=[51b97f31d7f7a5d2193ea0cbb2692acd]
link Initialization to #33--><path d="M95,104.082 C95,114.872 95,128.883 95,139.63 " fill="none" id="Initialization-&gt;#33" style="stroke: #A80036; stroke-width: 1.0;"/><polygon fill="#A80036" points="95,144.918,99,135.918,95,139.918,91,135.918,95,144.918" style="stroke: #A80036; stroke-width: 1.0;"/><text fill="#000000" font-family="sans-serif" font-size="11" lengthAdjust="spacingAndGlyphs" textLength="51" x="31.5688" y="134.482">Some Test</text><!--MD5=[0e1fe32345c834326d3265a5472e0d7d]
link #33 to Some Activity--><path d="M87.0203,161.171 C76.9554,165.661 60.1062,174.923 53,189 C45.2771,204.299 46.1741,223.889 48.6402,238.694 " fill="none" id="#33-&gt;Some Activity" style="stroke: #A80036; stroke-width: 1.0;"/><polygon fill="#A80036" points="49.6067,243.915,51.9019,234.3373,48.6967,238.9985,44.0355,235.7933,49.6067,243.915" style="stroke: #A80036; stroke-width: 1.0;"/><text fill="#000000" font-family="sans-serif" font-size="11" lengthAdjust="spacingAndGlyphs" textLength="19" x="54" y="211.4189">true</text><!--MD5=[97e0d588043c3fbfd2b2e59d052c508a]
link Some Activity to Another activity--><path d="M54.4538,279.2917 C54.7377,289.7939 55.1062,303.4293 55.4123,314.7538 " fill="none" id="Some Activity-&gt;Another activity" style="stroke: #A80036; stroke-width: 1.0;"/><polygon fill="#A80036" points="55.548,319.7747,59.3033,310.6699,55.4129,314.7765,51.3062,310.8861,55.548,319.7747" style="stroke: #A80036; stroke-width: 1.0;"/><!--MD5=[14518ea1a79a02d11bb86953a1b562de]
link Another activity to end--><path d="M106.309,337.5 C111.464,337.5 116.619,337.5 121.774,337.5 " fill="none" id="Another activity-&gt;end" style="stroke: #A80036; stroke-width: 1.0;"/><polygon fill="#A80036" points="126.929,337.5,117.929,333.5,121.929,337.5,117.929,341.5,126.929,337.5" style="stroke: #A80036; stroke-width: 1.0;"/><!--MD5=[e74c7e968013c42fa0d7fb9e9e6b8494]
link #33 to Something else--><path d="M100.2726,163.824 C105.0522,169.104 112.39,177.21 119.328,184.874 " fill="none" id="#33-&gt;Something else" style="stroke: #A80036; stroke-width: 1.0;"/><polygon fill="#A80036" points="122.688,188.586,119.6137,179.2293,119.3325,184.8791,113.6827,184.598,122.688,188.586" style="stroke: #A80036; stroke-width: 1.0;"/><text fill="#000000" font-family="sans-serif" font-size="11" lengthAdjust="spacingAndGlyphs" textLength="24" x="112.191" y="173.3039">false</text><!--MD5=[6008a548d6e19d71c4fdb729e150d919]
link Something else to end--><path d="M137.871,224.1 C137.673,249.659 137.297,298.2059 137.11,322.2594 " fill="none" id="Something else-&gt;end" style="stroke: #A80036; stroke-width: 1.0;"/><polygon fill="#A80036" points="137.072,327.276,141.1418,318.3074,137.1109,322.2762,133.1421,318.2452,137.072,327.276" style="stroke: #A80036; stroke-width: 1.0;"/><text fill="#000000" font-family="sans-serif" font-size="11" lengthAdjust="spacingAndGlyphs" textLength="75" x="139" y="266.4189">Ending process</text><!--MD5=[aba816264b3997645c62e253b1541e85]
@startuml
(*) - -> "Initialization"

if "Some Test" then
  - ->[true] "Some Activity"
  - -> "Another activity"
  -right-> (*)
else
  ->[false] "Something else"
  - ->[Ending process] (*)
endif
@enduml

PlantUML version 1.2019.12(Sun Nov 03 11:24:54 CET 2019)
(APACHE source distribution)
Java Runtime: Java(TM) SE Runtime Environment
JVM: Java HotSpot(TM) 64-Bit Server VM
Java Version: 1.8.0_221-b11
Operating System: Windows 10
Default Encoding: Cp1252
Language: fr
Country: FR
--></g></svg>