<?xml version="1.0" encoding="UTF-8" standalone="no"?><svg xmlns="http://www.w3.org/2000/svg" xmlns:xlink="http://www.w3.org/1999/xlink" contentScriptType="application/ecmascript" contentStyleType="text/css" height="437px" preserveAspectRatio="none" style="width:618px;height:437px;" version="1.1" viewBox="0 0 618 437" width="618px" zoomAndPan="magnify"><defs><filter height="300%" id="fr8k0wtucxsbs" width="300%" x="-1" y="-1"><feGaussianBlur result="blurOut" stdDeviation="2.0"/><feColorMatrix in="blurOut" result="blurOut2" type="matrix" values="0 0 0 0 0 0 0 0 0 0 0 0 0 0 0 0 0 0 .4 0"/><feOffset dx="4.0" dy="4.0" in="blurOut2" result="blurOut3"/><feBlend in="SourceGraphic" in2="blurOut3" mode="normal"/></filter></defs><g><!--MD5=[262aabfe314dcb38308ea550cce12173]
cluster Some Group--><polygon fill="#FFFFFF" filter="url(#fr8k0wtucxsbs)" points="22,24,115,24,122,47.6094,416,47.6094,416,114,22,114,22,24" style="stroke: #000000; stroke-width: 1.5;"/><line style="stroke: #000000; stroke-width: 1.5;" x1="22" x2="122" y1="47.6094" y2="47.6094"/><text fill="#000000" font-family="sans-serif" font-size="14" font-weight="bold" lengthAdjust="spacingAndGlyphs" textLength="87" x="26" y="40.5332">Some Group</text><!--MD5=[a809f7b457cbc4d947186a4bb863b06b]
cluster Other Groups--><rect fill="#FFFFFF" filter="url(#fr8k0wtucxsbs)" height="90" style="stroke: #000000; stroke-width: 1.5;" width="231" x="31" y="197"/><text fill="#000000" font-family="sans-serif" font-size="14" font-weight="bold" lengthAdjust="spacingAndGlyphs" textLength="96" x="98.5" y="213.5332">Other Groups</text><path d="M294.5473,226.733 C297.7503,218.5888 302.1921,217.8055 308.7105,223.287 C311.1264,217.7361 315.0102,216.1402 319.5295,221.1275 C322.9801,213.9417 328.6841,213.5451 333.3002,219.9463 C335.5054,213.1223 339.664,212.4413 345.0125,216.5917 C350.4702,212.0613 355.5557,212.6413 358.2012,219.7722 C362.107,214.1733 367.8791,214.131 370.8893,220.7056 C376.6567,216.0583 380.8895,216.8363 383.7849,223.8749 C389.2137,218.2658 395.2613,219.7194 397.6018,227.1479 C405.1933,230.1413 404.458,235.0723 399.7591,240.111 C406.831,242.8515 407.5939,249.0082 401.7716,253.6634 C407.3828,258.8622 405.007,264.718 397.9274,265.9442 C404.4119,270.7028 404.2099,275.5844 398.0076,280.4134 C394.8833,287.6214 388.6141,287.6901 384.4075,281.513 C381.4177,287.9509 376.7035,290.2629 371.1489,284.2425 C368.1825,289.8935 363.7766,291.0515 359.4413,285.699 C355.6183,293.2654 351.1257,293.9224 345.2903,287.7757 C340.7938,291.658 336.1939,291.687 334.0932,285.1909 C329.38,292.5007 323.265,291.2794 319.6273,284.116 C315.2647,288.811 311.0786,288.8661 308.5216,282.3304 C303.3886,288.0332 298.1167,285.6926 296.0872,279.1731 C289.3292,278.0322 286.8893,272.4495 291.2777,266.93 C283.7805,264.9277 281.7529,258.4208 287.0837,252.6507 C282.2954,247.0644 283.5155,240.8249 291.1742,238.9565 C286.2518,233.8563 288.2822,228.7461 294.5473,226.733 " fill="#FFFFFF" style="stroke: #000000; stroke-width: 1.5;"/><!--MD5=[a8e31809c94bd3920922c17a126bb0b3]
cluster MySql--><path d="M428,148 C428,138 517,138 517,138 C517,138 606,138 606,148 L606,415 C606,425 517,425 517,425 C517,425 428,425 428,415 L428,148 " fill="#FFFFFF" filter="url(#fr8k0wtucxsbs)" style="stroke: #000000; stroke-width: 1.5;"/><path d="M428,148 C428,158 517,158 517,158 C517,158 606,158 606,148 " fill="none" style="stroke: #000000; stroke-width: 1.5;"/><text fill="#000000" font-family="sans-serif" font-size="14" font-weight="bold" lengthAdjust="spacingAndGlyphs" textLength="42" x="496" y="174.5332">MySql</text><!--MD5=[57a7dd60b0970f41fd8892a58576fbc8]
cluster This is my folder--><polygon fill="#FFFFFF" filter="url(#fr8k0wtucxsbs)" points="452,197,572,197,579,220.6094,582,220.6094,582,287,452,287,452,197" style="stroke: #000000; stroke-width: 1.5;"/><line style="stroke: #000000; stroke-width: 1.5;" x1="452" x2="579" y1="220.6094" y2="220.6094"/><text fill="#000000" font-family="sans-serif" font-size="14" font-weight="bold" lengthAdjust="spacingAndGlyphs" textLength="114" x="456" y="213.5332">This is my folder</text><!--MD5=[b098bf3b49ab5940c6091a421f0675e2]
cluster Foo--><rect fill="#FFFFFF" filter="url(#fr8k0wtucxsbs)" height="90" style="stroke: #000000; stroke-width: 1.5;" width="106" x="452" y="311"/><path d="M489,312 L489,321.6094 L479,331.6094 L452,331.6094 " fill="none" style="stroke: #000000; stroke-width: 1.5;"/><text fill="#000000" font-family="sans-serif" font-size="14" font-weight="bold" lengthAdjust="spacingAndGlyphs" textLength="27" x="455" y="326.5332">Foo</text><!--MD5=[96f7e1299d4a43069e6ed32352fcac20]
entity HTTP--><ellipse cx="208" cy="79" fill="#FEFECE" filter="url(#fr8k0wtucxsbs)" rx="8" ry="8" style="stroke: #A80036; stroke-width: 2.0;"/><text fill="#000000" font-family="sans-serif" font-size="14" lengthAdjust="spacingAndGlyphs" textLength="36" x="190" y="110.5332">HTTP</text><!--MD5=[cbd7cda55f2530e2efe43ec72c097853]
entity First Component--><rect fill="#FEFECE" filter="url(#fr8k0wtucxsbs)" height="37.6094" style="stroke: #A80036; stroke-width: 1.5;" width="125" x="38.5" y="60"/><rect fill="#FEFECE" height="5" style="stroke: #A80036; stroke-width: 1.5;" width="10" x="33.5" y="65"/><rect fill="#FEFECE" height="5" style="stroke: #A80036; stroke-width: 1.5;" width="10" x="33.5" y="87.6094"/><text fill="#000000" font-family="sans-serif" font-size="14" lengthAdjust="spacingAndGlyphs" textLength="105" x="48.5" y="84.5332">First Component</text><!--MD5=[b9d11f23832c1491231c5b33e55ab8c6]
entity Another Component--><rect fill="#FEFECE" filter="url(#fr8k0wtucxsbs)" height="37.6094" style="stroke: #A80036; stroke-width: 1.5;" width="147" x="252.5" y="60"/><rect fill="#FEFECE" height="5" style="stroke: #A80036; stroke-width: 1.5;" width="10" x="247.5" y="65"/><rect fill="#FEFECE" height="5" style="stroke: #A80036; stroke-width: 1.5;" width="10" x="247.5" y="87.6094"/><text fill="#000000" font-family="sans-serif" font-size="14" lengthAdjust="spacingAndGlyphs" textLength="127" x="262.5" y="84.5332">Another Component</text><!--MD5=[76af18d92d7d7c0f7ebd8f4f605ac5aa]
entity FTP--><ellipse cx="56" cy="252" fill="#FEFECE" filter="url(#fr8k0wtucxsbs)" rx="8" ry="8" style="stroke: #A80036; stroke-width: 2.0;"/><text fill="#000000" font-family="sans-serif" font-size="14" lengthAdjust="spacingAndGlyphs" textLength="27" x="42.5" y="283.5332">FTP</text><!--MD5=[0e2cc1aee2c7f52697e111b4fb84546c]
entity Second Component--><rect fill="#FEFECE" filter="url(#fr8k0wtucxsbs)" height="37.6094" style="stroke: #A80036; stroke-width: 1.5;" width="145" x="100.5" y="233"/><rect fill="#FEFECE" height="5" style="stroke: #A80036; stroke-width: 1.5;" width="10" x="95.5" y="238"/><rect fill="#FEFECE" height="5" style="stroke: #A80036; stroke-width: 1.5;" width="10" x="95.5" y="260.6094"/><text fill="#000000" font-family="sans-serif" font-size="14" lengthAdjust="spacingAndGlyphs" textLength="125" x="110.5" y="257.5332">Second Component</text><!--MD5=[243c1e580c31013c48b02624e18b25a7]
entity Example 1--><rect fill="#FEFECE" filter="url(#fr8k0wtucxsbs)" height="37.6094" style="stroke: #A80036; stroke-width: 1.5;" width="85" x="302.5" y="233"/><rect fill="#FEFECE" height="5" style="stroke: #A80036; stroke-width: 1.5;" width="10" x="297.5" y="238"/><rect fill="#FEFECE" height="5" style="stroke: #A80036; stroke-width: 1.5;" width="10" x="297.5" y="260.6094"/><text fill="#000000" font-family="sans-serif" font-size="14" lengthAdjust="spacingAndGlyphs" textLength="65" x="312.5" y="257.5332">Example 1</text><!--MD5=[3e0e08c92570480402984701ab5a6d2d]
entity Folder 3--><rect fill="#FEFECE" filter="url(#fr8k0wtucxsbs)" height="37.6094" style="stroke: #A80036; stroke-width: 1.5;" width="73" x="468.5" y="233"/><rect fill="#FEFECE" height="5" style="stroke: #A80036; stroke-width: 1.5;" width="10" x="463.5" y="238"/><rect fill="#FEFECE" height="5" style="stroke: #A80036; stroke-width: 1.5;" width="10" x="463.5" y="260.6094"/><text fill="#000000" font-family="sans-serif" font-size="14" lengthAdjust="spacingAndGlyphs" textLength="53" x="478.5" y="257.5332">Folder 3</text><!--MD5=[63877ed85df621d134a6c80fb52dad56]
entity Frame 4--><rect fill="#FEFECE" filter="url(#fr8k0wtucxsbs)" height="37.6094" style="stroke: #A80036; stroke-width: 1.5;" width="73" x="468.5" y="347"/><rect fill="#FEFECE" height="5" style="stroke: #A80036; stroke-width: 1.5;" width="10" x="463.5" y="352"/><rect fill="#FEFECE" height="5" style="stroke: #A80036; stroke-width: 1.5;" width="10" x="463.5" y="374.6094"/><text fill="#000000" font-family="sans-serif" font-size="14" lengthAdjust="spacingAndGlyphs" textLength="53" x="478.5" y="371.5332">Frame 4</text><!--MD5=[46d996859f59e5baf77956ce93023cee]
link HTTP to First Component--><path d="M198.654,79 C187.001,79 175.348,79 163.695,79 " fill="none" id="HTTP-First Component" style="stroke: #A80036; stroke-width: 1.0;"/><!--MD5=[1966a42bb49d59057147dbda06282f4b]
link FTP to Second Component--><path d="M65.1406,252 C76.7973,252 88.454,252 100.1107,252 " fill="none" id="FTP-Second Component" style="stroke: #A80036; stroke-width: 1.0;"/><!--MD5=[d3aefbd8005e27b21e7ce98ddd948193]
link First Component to FTP--><path d="M93.7708,98.339 C90.2347,107.717 86.0867,119.368 83,130 C71.7699,168.682 62.5302,215.47 58.372,237.842 " fill="none" id="First Component-&gt;FTP" style="stroke: #A80036; stroke-width: 1.0;"/><polygon fill="#A80036" points="57.4262,242.984,62.9879,234.8558,58.3305,238.0665,55.1199,233.409,57.4262,242.984" style="stroke: #A80036; stroke-width: 1.0;"/><!--MD5=[efc1ffe8b578a0fb156c7bce303319bb]
link Another Component to Example 1--><path d="M328.033,98.3 C331.505,129.541 338.569,193.12 342.396,227.563 " fill="none" id="Another Component-&gt;Example 1" style="stroke: #A80036; stroke-width: 1.0;"/><polygon fill="#A80036" points="342.981,232.832,345.9638,223.4457,342.4295,227.8625,338.0127,224.3281,342.981,232.832" style="stroke: #A80036; stroke-width: 1.0;"/><!--MD5=[7ec8393a78a133520e8846dd05a7857a]
link Example 1 to Folder 3--><path d="M387.813,252 C412.99,252 438.167,252 463.344,252 " fill="none" id="Example 1-&gt;Folder 3" style="stroke: #A80036; stroke-width: 1.0;"/><polygon fill="#A80036" points="468.379,252,459.379,248,463.379,252,459.379,256,468.379,252" style="stroke: #A80036; stroke-width: 1.0;"/><!--MD5=[b96c7096199393c1414a8b4e9ed2c30f]
link Folder 3 to Frame 4--><path d="M505,271.495 C505,290.74 505,320.922 505,341.7643 " fill="none" id="Folder 3-&gt;Frame 4" style="stroke: #A80036; stroke-width: 1.0;"/><polygon fill="#A80036" points="505,346.8496,509,337.8496,505,341.8496,501,337.8496,505,346.8496" style="stroke: #A80036; stroke-width: 1.0;"/><!--MD5=[f614669fe28fddf44a61110f8b55ed8b]
@startuml
package "Some Group" {
  HTTP - [First Component]
  [Another Component]
}
rectangle "Other Groups" {
  FTP - [Second Component]
  [First Component] - -> FTP
}
cloud {
  [Example 1]
}
database "MySql" {
  folder "This is my folder" {
    [Folder 3]
  }
  frame "Foo" {
    [Frame 4]
  }
}
[Another Component] - -> [Example 1]
[Example 1] -right-> [Folder 3]
[Folder 3] - -> [Frame 4]
@enduml

PlantUML version 1.2019.12(Sun Nov 03 11:24:54 CET 2019)
(APACHE source distribution)
Java Runtime: Java(TM) SE Runtime Environment
JVM: Java HotSpot(TM) 64-Bit Server VM
Java Version: 1.8.0_221-b11
Operating System: Windows 10
Default Encoding: Cp1252
Language: fr
Country: FR
--></g></svg>