<?xml version="1.0" encoding="UTF-8" standalone="no"?><svg xmlns="http://www.w3.org/2000/svg" xmlns:xlink="http://www.w3.org/1999/xlink" contentScriptType="application/ecmascript" contentStyleType="text/css" height="265px" preserveAspectRatio="none" style="width:520px;height:265px;" version="1.1" viewBox="0 0 520 265" width="520px" zoomAndPan="magnify"><defs><filter height="300%" id="fgdhnm6vcqt8g" width="300%" x="-1" y="-1"><feGaussianBlur result="blurOut" stdDeviation="2.0"/><feColorMatrix in="blurOut" result="blurOut2" type="matrix" values="0 0 0 0 0 0 0 0 0 0 0 0 0 0 0 0 0 0 .4 0"/><feOffset dx="4.0" dy="4.0" in="blurOut2" result="blurOut3"/><feBlend in="SourceGraphic" in2="blurOut3" mode="normal"/></filter></defs><g><!--MD5=[728d23d58e22fa55ea5a0544ed140874]
cluster net.dummy--><polygon fill="#FFFFFF" filter="url(#fgdhnm6vcqt8g)" points="22,24,104,24,111,47.6094,130,47.6094,130,253,22,253,22,24" style="stroke: #000000; stroke-width: 1.5;"/><line style="stroke: #000000; stroke-width: 1.5;" x1="22" x2="111" y1="47.6094" y2="47.6094"/><text fill="#000000" font-family="sans-serif" font-size="14" font-weight="bold" lengthAdjust="spacingAndGlyphs" textLength="76" x="26" y="40.5332">net.dummy</text><!--MD5=[33e59a955278c32565a5bf6f302dc15e]
cluster net.foo--><polygon fill="#FFFFFF" filter="url(#fgdhnm6vcqt8g)" points="154,153,210,153,217,176.6094,258,176.6094,258,253,154,253,154,153" style="stroke: #000000; stroke-width: 1.5;"/><line style="stroke: #000000; stroke-width: 1.5;" x1="154" x2="217" y1="176.6094" y2="176.6094"/><text fill="#000000" font-family="sans-serif" font-size="14" font-weight="bold" lengthAdjust="spacingAndGlyphs" textLength="50" x="158" y="169.5332">net.foo</text><!--MD5=[a192a6f29c441cea5ef200ac5f138a29]
cluster net.unused--><polygon fill="#FFFFFF" filter="url(#fgdhnm6vcqt8g)" points="282,153,368,153,375,176.6094,386,176.6094,386,253,282,253,282,153" style="stroke: #000000; stroke-width: 1.5;"/><line style="stroke: #000000; stroke-width: 1.5;" x1="282" x2="375" y1="176.6094" y2="176.6094"/><text fill="#000000" font-family="sans-serif" font-size="14" font-weight="bold" lengthAdjust="spacingAndGlyphs" textLength="80" x="286" y="169.5332">net.unused</text><!--MD5=[cb3a15f9f15e1ea33d1c370015e332c8]
class net.dummy.Person--><rect fill="#FEFECE" filter="url(#fgdhnm6vcqt8g)" height="48" id="net.dummy.Person" style="stroke: #A80036; stroke-width: 1.5;" width="72" x="42" y="189"/><ellipse cx="57" cy="205" fill="#ADD1B2" rx="11" ry="11" style="stroke: #A80036; stroke-width: 1.0;"/><path d="M59.7656,200.875 Q59.9219,200.6563 60.1094,200.5469 Q60.2969,200.4375 60.5156,200.4375 Q60.8906,200.4375 61.125,200.6953 Q61.3594,200.9531 61.3594,201.5625 L61.3594,203.0156 Q61.3594,203.625 61.125,203.8906 Q60.8906,204.1563 60.5156,204.1563 Q60.1719,204.1563 59.9688,203.9531 Q59.7656,203.7656 59.6563,203.25 Q59.6094,202.8906 59.4219,202.7031 Q59.0938,202.3281 58.4844,202.1094 Q57.875,201.8906 57.25,201.8906 Q56.4844,201.8906 55.8516,202.2188 Q55.2188,202.5469 54.7266,203.2969 Q54.2344,204.0469 54.2344,205.0781 L54.2344,206.1719 Q54.2344,207.4063 55.125,208.2266 Q56.0156,209.0469 57.6094,209.0469 Q58.5469,209.0469 59.2031,208.7969 Q59.5938,208.6406 60.0156,208.2031 Q60.2813,207.9375 60.4297,207.8594 Q60.5781,207.7813 60.7813,207.7813 Q61.1094,207.7813 61.3672,208.0391 Q61.625,208.2969 61.625,208.6406 Q61.625,208.9844 61.2813,209.3906 Q60.7813,209.9688 59.9844,210.2969 Q58.9063,210.75 57.6094,210.75 Q56.0938,210.75 54.8906,210.125 Q53.9063,209.625 53.2188,208.5547 Q52.5313,207.4844 52.5313,206.2031 L52.5313,205.0469 Q52.5313,203.7188 53.1484,202.5703 Q53.7656,201.4219 54.8594,200.8047 Q55.9531,200.1875 57.1875,200.1875 Q57.9219,200.1875 58.5703,200.3516 Q59.2188,200.5156 59.7656,200.875 Z "/><text fill="#000000" font-family="sans-serif" font-size="12" lengthAdjust="spacingAndGlyphs" textLength="40" x="71" y="209.9102">Person</text><line style="stroke: #A80036; stroke-width: 1.5;" x1="43" x2="113" y1="221" y2="221"/><line style="stroke: #A80036; stroke-width: 1.5;" x1="43" x2="113" y1="229" y2="229"/><!--MD5=[8ac4e197c3b047d8b0ccbf03414837ae]
class net.dummy.Meeting--><rect fill="#FEFECE" filter="url(#fgdhnm6vcqt8g)" height="48" id="net.dummy.Meeting" style="stroke: #A80036; stroke-width: 1.5;" width="75" x="38.5" y="60"/><ellipse cx="53.5" cy="76" fill="#ADD1B2" rx="11" ry="11" style="stroke: #A80036; stroke-width: 1.0;"/><path d="M56.2656,71.875 Q56.4219,71.6563 56.6094,71.5469 Q56.7969,71.4375 57.0156,71.4375 Q57.3906,71.4375 57.625,71.6953 Q57.8594,71.9531 57.8594,72.5625 L57.8594,74.0156 Q57.8594,74.625 57.625,74.8906 Q57.3906,75.1563 57.0156,75.1563 Q56.6719,75.1563 56.4688,74.9531 Q56.2656,74.7656 56.1563,74.25 Q56.1094,73.8906 55.9219,73.7031 Q55.5938,73.3281 54.9844,73.1094 Q54.375,72.8906 53.75,72.8906 Q52.9844,72.8906 52.3516,73.2188 Q51.7188,73.5469 51.2266,74.2969 Q50.7344,75.0469 50.7344,76.0781 L50.7344,77.1719 Q50.7344,78.4063 51.625,79.2266 Q52.5156,80.0469 54.1094,80.0469 Q55.0469,80.0469 55.7031,79.7969 Q56.0938,79.6406 56.5156,79.2031 Q56.7813,78.9375 56.9297,78.8594 Q57.0781,78.7813 57.2813,78.7813 Q57.6094,78.7813 57.8672,79.0391 Q58.125,79.2969 58.125,79.6406 Q58.125,79.9844 57.7813,80.3906 Q57.2813,80.9688 56.4844,81.2969 Q55.4063,81.75 54.1094,81.75 Q52.5938,81.75 51.3906,81.125 Q50.4063,80.625 49.7188,79.5547 Q49.0313,78.4844 49.0313,77.2031 L49.0313,76.0469 Q49.0313,74.7188 49.6484,73.5703 Q50.2656,72.4219 51.3594,71.8047 Q52.4531,71.1875 53.6875,71.1875 Q54.4219,71.1875 55.0703,71.3516 Q55.7188,71.5156 56.2656,71.875 Z "/><text fill="#000000" font-family="sans-serif" font-size="12" lengthAdjust="spacingAndGlyphs" textLength="43" x="67.5" y="80.9102">Meeting</text><line style="stroke: #A80036; stroke-width: 1.5;" x1="39.5" x2="112.5" y1="92" y2="92"/><line style="stroke: #A80036; stroke-width: 1.5;" x1="39.5" x2="112.5" y1="100" y2="100"/><!--MD5=[39b7869a7bbdf1e166c12fc90d8f21cb]
class net.foo.Person--><rect fill="#FEFECE" filter="url(#fgdhnm6vcqt8g)" height="48" id="net.foo.Person" style="stroke: #A80036; stroke-width: 1.5;" width="72" x="170" y="189"/><ellipse cx="185" cy="205" fill="#ADD1B2" rx="11" ry="11" style="stroke: #A80036; stroke-width: 1.0;"/><path d="M187.7656,200.875 Q187.9219,200.6563 188.1094,200.5469 Q188.2969,200.4375 188.5156,200.4375 Q188.8906,200.4375 189.125,200.6953 Q189.3594,200.9531 189.3594,201.5625 L189.3594,203.0156 Q189.3594,203.625 189.125,203.8906 Q188.8906,204.1563 188.5156,204.1563 Q188.1719,204.1563 187.9688,203.9531 Q187.7656,203.7656 187.6563,203.25 Q187.6094,202.8906 187.4219,202.7031 Q187.0938,202.3281 186.4844,202.1094 Q185.875,201.8906 185.25,201.8906 Q184.4844,201.8906 183.8516,202.2188 Q183.2188,202.5469 182.7266,203.2969 Q182.2344,204.0469 182.2344,205.0781 L182.2344,206.1719 Q182.2344,207.4063 183.125,208.2266 Q184.0156,209.0469 185.6094,209.0469 Q186.5469,209.0469 187.2031,208.7969 Q187.5938,208.6406 188.0156,208.2031 Q188.2813,207.9375 188.4297,207.8594 Q188.5781,207.7813 188.7813,207.7813 Q189.1094,207.7813 189.3672,208.0391 Q189.625,208.2969 189.625,208.6406 Q189.625,208.9844 189.2813,209.3906 Q188.7813,209.9688 187.9844,210.2969 Q186.9063,210.75 185.6094,210.75 Q184.0938,210.75 182.8906,210.125 Q181.9063,209.625 181.2188,208.5547 Q180.5313,207.4844 180.5313,206.2031 L180.5313,205.0469 Q180.5313,203.7188 181.1484,202.5703 Q181.7656,201.4219 182.8594,200.8047 Q183.9531,200.1875 185.1875,200.1875 Q185.9219,200.1875 186.5703,200.3516 Q187.2188,200.5156 187.7656,200.875 Z "/><text fill="#000000" font-family="sans-serif" font-size="12" lengthAdjust="spacingAndGlyphs" textLength="40" x="199" y="209.9102">Person</text><line style="stroke: #A80036; stroke-width: 1.5;" x1="171" x2="241" y1="221" y2="221"/><line style="stroke: #A80036; stroke-width: 1.5;" x1="171" x2="241" y1="229" y2="229"/><!--MD5=[5f30d223f747d8ac33b5eb84f5743c2a]
class net.unused.Person--><rect fill="#FEFECE" filter="url(#fgdhnm6vcqt8g)" height="48" id="net.unused.Person" style="stroke: #A80036; stroke-width: 1.5;" width="72" x="298" y="189"/><ellipse cx="313" cy="205" fill="#ADD1B2" rx="11" ry="11" style="stroke: #A80036; stroke-width: 1.0;"/><path d="M315.7656,200.875 Q315.9219,200.6563 316.1094,200.5469 Q316.2969,200.4375 316.5156,200.4375 Q316.8906,200.4375 317.125,200.6953 Q317.3594,200.9531 317.3594,201.5625 L317.3594,203.0156 Q317.3594,203.625 317.125,203.8906 Q316.8906,204.1563 316.5156,204.1563 Q316.1719,204.1563 315.9688,203.9531 Q315.7656,203.7656 315.6563,203.25 Q315.6094,202.8906 315.4219,202.7031 Q315.0938,202.3281 314.4844,202.1094 Q313.875,201.8906 313.25,201.8906 Q312.4844,201.8906 311.8516,202.2188 Q311.2188,202.5469 310.7266,203.2969 Q310.2344,204.0469 310.2344,205.0781 L310.2344,206.1719 Q310.2344,207.4063 311.125,208.2266 Q312.0156,209.0469 313.6094,209.0469 Q314.5469,209.0469 315.2031,208.7969 Q315.5938,208.6406 316.0156,208.2031 Q316.2813,207.9375 316.4297,207.8594 Q316.5781,207.7813 316.7813,207.7813 Q317.1094,207.7813 317.3672,208.0391 Q317.625,208.2969 317.625,208.6406 Q317.625,208.9844 317.2813,209.3906 Q316.7813,209.9688 315.9844,210.2969 Q314.9063,210.75 313.6094,210.75 Q312.0938,210.75 310.8906,210.125 Q309.9063,209.625 309.2188,208.5547 Q308.5313,207.4844 308.5313,206.2031 L308.5313,205.0469 Q308.5313,203.7188 309.1484,202.5703 Q309.7656,201.4219 310.8594,200.8047 Q311.9531,200.1875 313.1875,200.1875 Q313.9219,200.1875 314.5703,200.3516 Q315.2188,200.5156 315.7656,200.875 Z "/><text fill="#000000" font-family="sans-serif" font-size="12" lengthAdjust="spacingAndGlyphs" textLength="40" x="327" y="209.9102">Person</text><line style="stroke: #A80036; stroke-width: 1.5;" x1="299" x2="369" y1="221" y2="221"/><line style="stroke: #A80036; stroke-width: 1.5;" x1="299" x2="369" y1="229" y2="229"/><!--MD5=[ab8871ed637f40707b866ba6597734bc]
class ArrayList--><rect fill="#FEFECE" filter="url(#fgdhnm6vcqt8g)" height="75.6719" id="ArrayList" style="stroke: #A80036; stroke-width: 1.5;" width="111" x="280.5" y="46"/><ellipse cx="309.45" cy="62" fill="#A9DCDF" rx="11" ry="11" style="stroke: #A80036; stroke-width: 1.0;"/><path d="M311.6375,63.7656 L307.4969,63.7656 L307.075,64.7969 L307.4969,64.7969 Q308.1063,64.7969 308.3719,65.0313 Q308.6375,65.2656 308.6375,65.6563 Q308.6375,66.0313 308.3719,66.2656 Q308.1063,66.5 307.4969,66.5 L305.2,66.5 Q304.5906,66.5 304.3328,66.2656 Q304.075,66.0313 304.075,65.6406 Q304.075,65.2656 304.3484,65.0234 Q304.6219,64.7813 305.2469,64.7969 L307.9188,58.1406 L306.8094,58.1406 Q306.2,58.1406 305.9344,57.9063 Q305.6688,57.6719 305.6688,57.2813 Q305.6688,56.9063 305.9344,56.6719 Q306.2,56.4375 306.8094,56.4375 L310.4813,56.4375 L313.8719,64.7969 Q314.4656,64.7969 314.6531,64.9375 Q315.0438,65.2031 315.0438,65.6563 Q315.0438,66.0313 314.7859,66.2656 Q314.5281,66.5 313.9188,66.5 L311.6219,66.5 Q311.0125,66.5 310.7469,66.2656 Q310.4813,66.0313 310.4813,65.6406 Q310.4813,65.2656 310.7469,65.0313 Q311.0125,64.7969 311.6219,64.7969 L312.0438,64.7969 L311.6375,63.7656 Z M310.9188,62.0625 L309.5594,58.6875 L308.1844,62.0625 L310.9188,62.0625 Z "/><text fill="#000000" font-family="sans-serif" font-size="12" font-style="italic" lengthAdjust="spacingAndGlyphs" textLength="48" x="326.55" y="66.9102">ArrayList</text><line style="stroke: #A80036; stroke-width: 1.5;" x1="281.5" x2="390.5" y1="78" y2="78"/><text fill="#000000" font-family="sans-serif" font-size="11" lengthAdjust="spacingAndGlyphs" textLength="99" x="286.5" y="93.4189">Object[] elementData</text><line style="stroke: #A80036; stroke-width: 1.5;" x1="281.5" x2="390.5" y1="99.8359" y2="99.8359"/><text fill="#000000" font-family="sans-serif" font-size="11" lengthAdjust="spacingAndGlyphs" textLength="28" x="286.5" y="115.2549">size()</text><!--MD5=[15b68e006199004da79ea2a4d117d8e9]
class TimeUnit--><rect fill="#FEFECE" filter="url(#fgdhnm6vcqt8g)" height="89.5078" id="TimeUnit" style="stroke: #A80036; stroke-width: 1.5;" width="82" x="427" y="39"/><ellipse cx="442" cy="55" fill="#EB937F" rx="11" ry="11" style="stroke: #A80036; stroke-width: 1.0;"/><path d="M440.8594,55.7969 L440.8594,58.2969 L445.1875,58.2969 L445.1875,57.375 Q445.1875,56.7656 445.4297,56.5 Q445.6719,56.2344 446.0469,56.2344 Q446.4219,56.2344 446.6563,56.5 Q446.8906,56.7656 446.8906,57.375 L446.8906,60 L438.8906,60 Q438.2656,60 438.0078,59.7656 Q437.75,59.5313 437.75,59.1406 Q437.75,58.7656 438.0156,58.5313 Q438.2813,58.2969 438.8906,58.2969 L439.1563,58.2969 L439.1563,51.6406 L438.8906,51.6406 Q438.2656,51.6406 438.0078,51.4063 Q437.75,51.1719 437.75,50.7813 Q437.75,50.4063 438.0078,50.1719 Q438.2656,49.9375 438.8906,49.9375 L446.5156,49.9375 L446.5156,52.5313 Q446.5156,53.1406 446.2891,53.3984 Q446.0625,53.6563 445.6719,53.6563 Q445.2969,53.6563 445.0625,53.3984 Q444.8281,53.1406 444.8281,52.5313 L444.8281,51.6406 L440.8594,51.6406 L440.8594,54.0938 L442.3438,54.0938 Q442.3438,53.4375 442.4688,53.25 Q442.7344,52.8438 443.2031,52.8438 Q443.5781,52.8438 443.8125,53.1016 Q444.0469,53.3594 444.0469,53.9688 L444.0469,55.9375 Q444.0469,56.4844 443.9219,56.6719 Q443.6563,57.0625 443.2031,57.0625 Q442.7344,57.0625 442.4688,56.6563 Q442.3438,56.4688 442.3438,55.7969 L440.8594,55.7969 Z "/><text fill="#000000" font-family="sans-serif" font-size="12" lengthAdjust="spacingAndGlyphs" textLength="50" x="456" y="59.9102">TimeUnit</text><line style="stroke: #A80036; stroke-width: 1.5;" x1="428" x2="508" y1="71" y2="71"/><text fill="#000000" font-family="sans-serif" font-size="11" lengthAdjust="spacingAndGlyphs" textLength="30" x="433" y="86.4189">DAYS</text><text fill="#000000" font-family="sans-serif" font-size="11" lengthAdjust="spacingAndGlyphs" textLength="36" x="433" y="100.2549">HOURS</text><text fill="#000000" font-family="sans-serif" font-size="11" lengthAdjust="spacingAndGlyphs" textLength="43" x="433" y="114.0908">MINUTES</text><line style="stroke: #A80036; stroke-width: 1.5;" x1="428" x2="508" y1="120.5078" y2="120.5078"/><!--MD5=[8e57f1f895cc705ad5645d1ac73dc0a2]
class BaseClass--><rect fill="#FEFECE" filter="url(#fgdhnm6vcqt8g)" height="48" id="BaseClass" style="stroke: #A80036; stroke-width: 1.5;" width="91" x="154.5" y="60"/><ellipse cx="169.5" cy="76" fill="#B4A7E5" rx="11" ry="11" style="stroke: #A80036; stroke-width: 1.0;"/><path d="M170.4531,72.6406 L170.4531,79.2969 L172.1719,79.2969 Q172.7813,79.2969 173.0469,79.5313 Q173.3125,79.7656 173.3125,80.1563 Q173.3125,80.5313 173.0469,80.7656 Q172.7813,81 172.1719,81 L167.0313,81 Q166.4219,81 166.1563,80.7656 Q165.8906,80.5313 165.8906,80.1406 Q165.8906,79.7656 166.1563,79.5313 Q166.4219,79.2969 167.0313,79.2969 L168.75,79.2969 L168.75,72.6406 L167.0313,72.6406 Q166.4219,72.6406 166.1563,72.4063 Q165.8906,72.1719 165.8906,71.7813 Q165.8906,71.4063 166.1563,71.1719 Q166.4219,70.9375 167.0313,70.9375 L172.1719,70.9375 Q172.7813,70.9375 173.0469,71.1719 Q173.3125,71.4063 173.3125,71.7813 Q173.3125,72.1719 173.0469,72.4063 Q172.7813,72.6406 172.1719,72.6406 L170.4531,72.6406 Z "/><text fill="#000000" font-family="sans-serif" font-size="12" font-style="italic" lengthAdjust="spacingAndGlyphs" textLength="59" x="183.5" y="80.9102">BaseClass</text><line style="stroke: #A80036; stroke-width: 1.5;" x1="155.5" x2="244.5" y1="92" y2="92"/><line style="stroke: #A80036; stroke-width: 1.5;" x1="155.5" x2="244.5" y1="100" y2="100"/><!--MD5=[38d283ab138c7dee77115f9fbc859330]
reverse link BaseClass to net.dummy.Person--><path d="M163.591,122.901 C142.996,144.341 117.909,170.4557 100.2348,188.8539 " fill="none" id="BaseClass&lt;-net.dummy.Person" style="stroke: #A80036; stroke-width: 1.0;"/><polygon fill="none" points="158.72,117.868,177.623,108.294,168.816,127.566,158.72,117.868" style="stroke: #A80036; stroke-width: 1.0;"/><!--MD5=[3aad075c01a5f1f4921d0fd2481fc4e0]
reverse link net.dummy.Meeting to net.dummy.Person--><path d="M76.5724,121.349 C76.9145,143.068 77.3387,170.0092 77.6355,188.8539 " fill="none" id="net.dummy.Meeting&lt;-net.dummy.Person" style="stroke: #A80036; stroke-width: 1.0;"/><polygon fill="#FFFFFF" points="76.3668,108.294,72.4622,114.3565,76.5567,120.2925,80.4612,114.23,76.3668,108.294" style="stroke: #A80036; stroke-width: 1.0;"/><!--MD5=[5b94dd299fdb64f5042d8ccdd246a8aa]
reverse link BaseClass to net.dummy.Meeting--><path d="M133.989,84 C127.253,84 120.517,84 113.781,84 " fill="none" id="BaseClass&lt;-net.dummy.Meeting" style="stroke: #A80036; stroke-width: 1.0;"/><polygon fill="none" points="134.196,77,154.196,84,134.196,91,134.196,77" style="stroke: #A80036; stroke-width: 1.0;"/><!--MD5=[b57b6e1cdce0b532ba1371e9c7d07ce1]
reverse link net.dummy.Person to net.foo.Person--><path d="M134.842,213 C146.528,213 158.214,213 169.9,213 " fill="none" id="net.dummy.Person&lt;-net.foo.Person" style="stroke: #A80036; stroke-width: 1.0;"/><polygon fill="none" points="134.5,219.9999,114.5,213,134.5,205.9999,134.5,219.9999" style="stroke: #A80036; stroke-width: 1.0;"/><!--MD5=[3949315fc233572465e48cd9e3f6e864]
reverse link BaseClass to net.foo.Person--><path d="M202.046,128.298 C203.005,148.598 204.109,171.974 204.906,188.8539 " fill="none" id="BaseClass&lt;-net.foo.Person" style="stroke: #A80036; stroke-width: 1.0;"/><polygon fill="none" points="195.052,128.602,201.1,108.294,209.037,127.941,195.052,128.602" style="stroke: #A80036; stroke-width: 1.0;"/><!--MD5=[736f19012fcb2f75c0b04526aeb93c2d]
reverse link net.dummy.Meeting to net.foo.Person--><path d="M109.162,117.397 C132.01,139.718 161.829,168.848 182.307,188.8539 " fill="none" id="net.dummy.Meeting&lt;-net.foo.Person" style="stroke: #A80036; stroke-width: 1.0;"/><polygon fill="#FFFFFF" points="99.844,108.294,101.3403,115.3482,108.4273,116.6801,106.931,109.626,99.844,108.294" style="stroke: #A80036; stroke-width: 1.0;"/><!--MD5=[20bb99b6116bfc237a0342da45d84df8]
reverse link BaseClass to net.unused.Person--><path d="M239.333,122.278 C262.075,143.833 289.977,170.2771 309.578,188.8539 " fill="none" id="BaseClass&lt;-net.unused.Person" style="stroke: #A80036; stroke-width: 1.0;"/><polygon fill="none" points="234.279,127.132,224.578,108.294,243.909,116.971,234.279,127.132" style="stroke: #A80036; stroke-width: 1.0;"/><!--MD5=[06d9da7a3b53d7c588d567c5cf65fa7e]
@startuml
abstract class ArrayList {
  Object[] elementData
  size()
}
enum TimeUnit {
  DAYS
  HOURS
  MINUTES
}
Interface BaseClass

namespace net.dummy {
    .BaseClass <|- - Person
    Meeting o- - Person

    .BaseClass <|- Meeting
}
namespace net.foo {
  net.dummy.Person  <|- Person
  .BaseClass <|- - Person

  net.dummy.Meeting o- - Person
}
BaseClass <|- - net.unused.Person
@enduml

PlantUML version 1.2019.12(Sun Nov 03 11:24:54 CET 2019)
(APACHE source distribution)
Java Runtime: Java(TM) SE Runtime Environment
JVM: Java HotSpot(TM) 64-Bit Server VM
Java Version: 1.8.0_221-b11
Operating System: Windows 10
Default Encoding: Cp1252
Language: fr
Country: FR
--></g></svg>